<svg xmlns="http://www.w3.org/2000/svg" xmlns:xlink="http://www.w3.org/1999/xlink" width="860" height="661.59"><rect width="860" height="661.59" rx="0" ry="0" class="a"/><svg height="629.59" viewBox="0 0 76 62.959" width="760" x="50" xmlns="http://www.w3.org/2000/svg" xmlns:xlink="http://www.w3.org/1999/xlink" y="16"><style>@keyframes j{0%{transform:translateX(-532px)}to{transform:translateX(-608px)}}.a{fill:#282d35}.c{fill:#b9c0cb;font-weight:700}.d{fill:#66c2cd}.e{fill:#b9c0cb}.f{fill:#e88388}.g{fill:#a8cc8c}</style><g font-size="1.67" font-family="Monaco,Consolas,Menlo,'Bitstream Vera Sans Mono','Powerline Symbols',monospace"><defs><symbol id="1"><text y="1.67" class="c">diff</text><text x="5.01" y="1.67" class="c">--git</text><text x="11.022" y="1.67" class="c">a/src/TodoApp.js</text><text x="28.056" y="1.67" class="c">b/src/TodoApp.js</text></symbol><symbol id="2"><text y="1.67" class="c">index</text><text x="6.012" y="1.67" class="c">b98c3da..afa7bc0</text><text x="23.046" y="1.67" class="c">100644</text></symbol><symbol id="3"><text y="1.67" class="c">---</text><text x="4.008" y="1.67" class="c">a/src/TodoApp.js</text></symbol><symbol id="4"><text y="1.67" class="c">+++</text><text x="4.008" y="1.67" class="c">b/src/TodoApp.js</text></symbol><symbol id="5"><text y="1.67" class="d">@@</text><text x="3.006" y="1.67" class="d">-69,7</text><text x="9.018" y="1.67" class="d">+69,7</text><text x="15.03" y="1.67" class="d">@@</text><text x="18.036" y="1.67" class="e">export</text><text x="25.05" y="1.67" class="e">default</text><text x="33.066" y="1.67" class="e">class</text><text x="39.078" y="1.67" class="e">TodoApp</text><text x="47.094" y="1.67" class="e">extends</text><text x="55.11" y="1.67" class="e">React.Component</text><text x="71.142" y="1.67" class="e">{</text></symbol><symbol id="6"><text x="5.01" y="1.67" class="e">this.props.model.destroy(todo)</text></symbol><symbol id="7"><text x="3.006" y="1.67" class="e">edit</text><text x="8.016" y="1.67" class="e">=</text><text x="10.02" y="1.67" class="e">todo</text><text x="15.03" y="1.67" class="e">=&gt;</text></symbol><symbol id="8"><text y="1.67" class="f">-</text><text x="5.01" y="1.67" class="f">this.setState({</text><text x="21.042" y="1.67" class="f">editing:</text><text x="30.06" y="1.67" class="f">todo.id</text><text x="38.076" y="1.67" class="f">})</text></symbol><symbol id="9"><text y="1.67" class="g">+</text><text x="5.01" y="1.67" class="g">this.setState({</text><text x="21.042" y="1.67" class="g">editing:</text><text x="30.06" y="1.67" class="g">todo.uid</text><text x="39.078" y="1.67" class="g">})</text></symbol><symbol id="10"><text x="3.006" y="1.67" class="e">save</text><text x="8.016" y="1.67" class="e">=</text><text x="10.02" y="1.67" class="e">(todoToSave,</text><text x="23.046" y="1.67" class="e">text)</text><text x="29.058" y="1.67" class="e">=&gt;</text><text x="32.064" y="1.67" class="e">{</text></symbol><symbol id="11"><text x="5.01" y="1.67" class="e">this.props.model.save(todoToSave,</text><text x="39.078" y="1.67" class="e">text)</text></symbol><symbol id="12"><text y="1.67" class="d">@@</text><text x="3.006" y="1.67" class="d">-99,12</text><text x="10.02" y="1.67" class="d">+99,12</text><text x="17.034" y="1.67" class="d">@@</text><text x="20.04" y="1.67" class="e">export</text><text x="27.054" y="1.67" class="e">default</text><text x="35.07" y="1.67" class="e">class</text><text x="41.082" y="1.67" class="e">TodoApp</text><text x="49.098" y="1.67" class="e">extends</text><text x="57.114" y="1.67" class="e">React.Component</text><text x="73.146" y="1.67" class="e">{</text></symbol><symbol id="13"><text x="5.01" y="1.67" class="e">const</text><text x="11.022" y="1.67" class="e">todoItems</text><text x="21.042" y="1.67" class="e">=</text><text x="23.046" y="1.67" class="e">shownTodos.map(todo</text><text x="43.086" y="1.67" class="e">=&gt;</text><text x="46.092" y="1.67" class="e">(</text></symbol><symbol id="14"><text x="7.014" y="1.67" class="e">&lt;TodoItem</text></symbol><symbol id="15"><text y="1.67" class="f">-</text><text x="9.018" y="1.67" class="f">key={todo.id}</text></symbol><symbol id="16"><text y="1.67" class="g">+</text><text x="9.018" y="1.67" class="g">key={todo.uid}</text></symbol><symbol id="17"><text x="9.018" y="1.67" class="e">todo={todo}</text></symbol><symbol id="18"><text x="9.018" y="1.67" class="e">onToggle={()</text><text x="22.044" y="1.67" class="e">=&gt;</text><text x="25.05" y="1.67" class="e">this.toggle(todo)}</text></symbol><symbol id="19"><text x="9.018" y="1.67" class="e">onDestroy={()</text><text x="23.046" y="1.67" class="e">=&gt;</text><text x="26.052" y="1.67" class="e">this.destroy(todo)}</text></symbol><symbol id="20"><text x="9.018" y="1.67" class="e">onEdit={()</text><text x="20.04" y="1.67" class="e">=&gt;</text><text x="23.046" y="1.67" class="e">this.edit(todo)}</text></symbol><symbol id="21"><text y="1.67" class="f">-</text><text x="9.018" y="1.67" class="f">editing={editing</text><text x="26.052" y="1.67" class="f">===</text><text x="30.06" y="1.67" class="f">todo.id}</text></symbol><symbol id="22"><text y="1.67" class="g">+</text><text x="9.018" y="1.67" class="g">editing={editing</text><text x="26.052" y="1.67" class="g">===</text><text x="30.06" y="1.67" class="g">todo.uid}</text></symbol><symbol id="23"><text x="9.018" y="1.67" class="e">onSave={text</text><text x="22.044" y="1.67" class="e">=&gt;</text><text x="25.05" y="1.67" class="e">this.save(todo,</text><text x="41.082" y="1.67" class="e">text)}</text></symbol><symbol id="24"><text x="9.018" y="1.67" class="e">onCancel={this.cancel}</text></symbol><symbol id="25"><text x="7.014" y="1.67" class="e">/&gt;</text></symbol><symbol id="a"><path fill="transparent" d="M0 0h76v30H0z"/></symbol><symbol id="b"><path fill="#6f7683" d="M0 0h1.102v2.171H0z"/></symbol></defs><path class="a" d="M0 0h76v62.959H0z"/><g style="animation-duration:10.1s;animation-iteration-count:infinite;animation-name:j;animation-timing-function:steps(1,end)"><svg width="684"><svg><use xlink:href="#a"/><use xlink:href="#b" x="-.004"/></svg><svg x="76"><use xlink:href="#a"/><use xlink:href="#b" x="-.004"/></svg><svg x="152"><use xlink:href="#a"/><use xlink:href="#b" x="33.996" y="49.908"/><use xlink:href="#1"/><use xlink:href="#2" y="2.171"/><use xlink:href="#3" y="4.342"/><use xlink:href="#4" y="6.513"/><use xlink:href="#5" y="8.684"/><use xlink:href="#6" y="10.855"/><use xlink:href="#7" y="15.197"/><use xlink:href="#8" y="17.368"/><use xlink:href="#9" y="19.539"/><use xlink:href="#10" y="23.881"/><use xlink:href="#11" y="26.052"/><use xlink:href="#12" y="28.223"/><use xlink:href="#13" y="32.565"/><use xlink:href="#14" y="34.736"/><use xlink:href="#15" y="36.907"/><use xlink:href="#16" y="39.078"/><use xlink:href="#17" y="41.249"/><use xlink:href="#18" y="43.42"/><use xlink:href="#19" y="45.591"/><use xlink:href="#20" y="47.762"/><text y="51.603" class="f">-</text><text x="9.018" y="51.603" class="f">editing={editing</text><text x="26.052" y="51.603" class="f">===</text><text x="30.06" y="51.603" class="f">todo</text></svg><svg x="228"><use xlink:href="#a"/><use xlink:href="#b" x="-.004" y="60.763"/><use xlink:href="#1"/><use xlink:href="#2" y="2.171"/><use xlink:href="#3" y="4.342"/><use xlink:href="#4" y="6.513"/><use xlink:href="#5" y="8.684"/><use xlink:href="#6" y="10.855"/><use xlink:href="#7" y="15.197"/><use xlink:href="#8" y="17.368"/><use xlink:href="#9" y="19.539"/><use xlink:href="#10" y="23.881"/><use xlink:href="#11" y="26.052"/><use xlink:href="#12" y="28.223"/><use xlink:href="#13" y="32.565"/><use xlink:href="#14" y="34.736"/><use xlink:href="#15" y="36.907"/><use xlink:href="#16" y="39.078"/><use xlink:href="#17" y="41.249"/><use xlink:href="#18" y="43.42"/><use xlink:href="#19" y="45.591"/><use xlink:href="#20" y="47.762"/><use xlink:href="#21" y="49.933"/><use xlink:href="#22" y="52.104"/><use xlink:href="#23" y="54.275"/><use xlink:href="#24" y="56.446"/><use xlink:href="#25" y="58.617"/></svg><svg x="304"><use xlink:href="#a"/><use xlink:href="#b" x="-.004" y="60.763"/><use xlink:href="#1"/><use xlink:href="#2" y="2.171"/><use xlink:href="#3" y="4.342"/><use xlink:href="#4" y="6.513"/><use xlink:href="#5" y="8.684"/><use xlink:href="#6" y="10.855"/><use xlink:href="#7" y="15.197"/><use xlink:href="#8" y="17.368"/><use xlink:href="#9" y="19.539"/><use xlink:href="#10" y="23.881"/><use xlink:href="#11" y="26.052"/><use xlink:href="#12" y="28.223"/><use xlink:href="#13" y="32.565"/><use xlink:href="#14" y="34.736"/><use xlink:href="#15" y="36.907"/><use xlink:href="#16" y="39.078"/><use xlink:href="#17" y="41.249"/><use xlink:href="#18" y="43.42"/><use xlink:href="#19" y="45.591"/><use xlink:href="#20" y="47.762"/><use xlink:href="#21" y="49.933"/><use xlink:href="#22" y="52.104"/><use xlink:href="#23" y="54.275"/><use xlink:href="#24" y="56.446"/><use xlink:href="#25" y="58.617"/></svg><svg x="380"><use xlink:href="#a"/><use xlink:href="#b" x="-.004" y="60.763"/><use xlink:href="#1"/><use xlink:href="#2" y="2.171"/><use xlink:href="#3" y="4.342"/><use xlink:href="#4" y="6.513"/><use xlink:href="#5" y="8.684"/><use xlink:href="#6" y="10.855"/><use xlink:href="#7" y="15.197"/><use xlink:href="#8" y="17.368"/><use xlink:href="#9" y="19.539"/><use xlink:href="#10" y="23.881"/><use xlink:href="#11" y="26.052"/><use xlink:href="#12" y="28.223"/><use xlink:href="#13" y="32.565"/><use xlink:href="#14" y="34.736"/><use xlink:href="#15" y="36.907"/><use xlink:href="#16" y="39.078"/><use xlink:href="#17" y="41.249"/><use xlink:href="#18" y="43.42"/><use xlink:href="#19" y="45.591"/><use xlink:href="#20" y="47.762"/><use xlink:href="#21" y="49.933"/><use xlink:href="#22" y="52.104"/><use xlink:href="#23" y="54.275"/><use xlink:href="#24" y="56.446"/><use xlink:href="#25" y="58.617"/></svg><svg x="456"><use xlink:href="#a"/><use xlink:href="#b" x="-.004" y="60.763"/><use xlink:href="#1"/><use xlink:href="#2" y="2.171"/><use xlink:href="#3" y="4.342"/><use xlink:href="#4" y="6.513"/><use xlink:href="#5" y="8.684"/><use xlink:href="#6" y="10.855"/><use xlink:href="#7" y="15.197"/><use xlink:href="#8" y="17.368"/><use xlink:href="#9" y="19.539"/><use xlink:href="#10" y="23.881"/><use xlink:href="#11" y="26.052"/><use xlink:href="#12" y="28.223"/><use xlink:href="#13" y="32.565"/><use xlink:href="#14" y="34.736"/><use xlink:href="#15" y="36.907"/><use xlink:href="#16" y="39.078"/><use xlink:href="#17" y="41.249"/><use xlink:href="#18" y="43.42"/><use xlink:href="#19" y="45.591"/><use xlink:href="#20" y="47.762"/><use xlink:href="#21" y="49.933"/><use xlink:href="#22" y="52.104"/><use xlink:href="#23" y="54.275"/><use xlink:href="#24" y="56.446"/><use xlink:href="#25" y="58.617"/></svg><svg x="532"><use xlink:href="#a"/><use xlink:href="#b" x="-.004" y="60.763"/><use xlink:href="#1"/><use xlink:href="#2" y="2.171"/><use xlink:href="#3" y="4.342"/><use xlink:href="#4" y="6.513"/><use xlink:href="#5" y="8.684"/><use xlink:href="#6" y="10.855"/><use xlink:href="#7" y="15.197"/><use xlink:href="#8" y="17.368"/><use xlink:href="#9" y="19.539"/><use xlink:href="#10" y="23.881"/><use xlink:href="#11" y="26.052"/><use xlink:href="#12" y="28.223"/><use xlink:href="#13" y="32.565"/><use xlink:href="#14" y="34.736"/><use xlink:href="#15" y="36.907"/><use xlink:href="#16" y="39.078"/><use xlink:href="#17" y="41.249"/><use xlink:href="#18" y="43.42"/><use xlink:href="#19" y="45.591"/><use xlink:href="#20" y="47.762"/><use xlink:href="#21" y="49.933"/><use xlink:href="#22" y="52.104"/><use xlink:href="#23" y="54.275"/><use xlink:href="#24" y="56.446"/><use xlink:href="#25" y="58.617"/></svg><svg x="608"><use xlink:href="#a"/><use xlink:href="#b" x="-.004" y="60.763"/><use xlink:href="#1"/><use xlink:href="#2" y="2.171"/><use xlink:href="#3" y="4.342"/><use xlink:href="#4" y="6.513"/><use xlink:href="#5" y="8.684"/><use xlink:href="#6" y="10.855"/><use xlink:href="#7" y="15.197"/><use xlink:href="#8" y="17.368"/><use xlink:href="#9" y="19.539"/><use xlink:href="#10" y="23.881"/><use xlink:href="#11" y="26.052"/><use xlink:href="#12" y="28.223"/><use xlink:href="#13" y="32.565"/><use xlink:href="#14" y="34.736"/><use xlink:href="#15" y="36.907"/><use xlink:href="#16" y="39.078"/><use xlink:href="#17" y="41.249"/><use xlink:href="#18" y="43.42"/><use xlink:href="#19" y="45.591"/><use xlink:href="#20" y="47.762"/><use xlink:href="#21" y="49.933"/><use xlink:href="#22" y="52.104"/><use xlink:href="#23" y="54.275"/><use xlink:href="#24" y="56.446"/><use xlink:href="#25" y="58.617"/></svg></svg></g></g></svg></svg>