<svg xmlns="http://www.w3.org/2000/svg" xmlns:xlink="http://www.w3.org/1999/xlink" width="1120" height="667.88"><rect width="1120" height="667.88" rx="5" ry="5" class="a"/><svg y="0%" x="0%"><circle cx="20" cy="20" r="6" fill="#ff5f58"/><circle cx="40" cy="20" r="6" fill="#ffbd2e"/><circle cx="60" cy="20" r="6" fill="#18c132"/></svg><svg height="607.88" viewBox="0 0 108 60.788" width="1080" x="15" xmlns="http://www.w3.org/2000/svg" xmlns:xlink="http://www.w3.org/1999/xlink" y="50"><style>@keyframes m{0%{transform:translateX(0)}1.6%{transform:translateX(-108px)}1.7%{transform:translateX(-756px)}5.1%{transform:translateX(-864px)}6.4%{transform:translateX(-972px)}7.7%{transform:translateX(-1080px)}9.2%{transform:translateX(-1188px)}10.4%{transform:translateX(-1296px)}13.2%{transform:translateX(-1404px)}14.3%{transform:translateX(-1512px)}15.4%{transform:translateX(-1620px)}16%{transform:translateX(-1728px)}17.4%{transform:translateX(-1836px)}18.6%{transform:translateX(-1944px)}18.7%{transform:translateX(-2160px)}21.4%{transform:translateX(-2484px)}21.8%{transform:translateX(-2808px)}43.5%{transform:translateX(-3024px)}69.4%{transform:translateX(-3672px)}69.5%{transform:translateX(-3780px)}to{transform:translateX(-3888px)}}.a{fill:#282d35}.f{fill:#b9c0cb}.g{fill:#dbab79}.h{fill:#a8cc8c}.i{fill:#b9c0cb;font-weight:700}.j{fill:#66c2cd}</style><g font-size="1.67" font-family="Monaco,Consolas,Menlo,'Bitstream Vera Sans Mono','Powerline Symbols',monospace"><defs><symbol id="1"><text y="1.67" class="f">paul</text><text x="5.01" y="1.67" class="g">dgraph-react-todomvc</text><text x="26.052" y="1.67" class="h">ğº</text><text x="29.058" y="1.67" class="f">yarn</text></symbol><symbol id="2"><text y="1.67" class="f">paul</text><text x="5.01" y="1.67" class="g">dgraph-react-todomvc</text><text x="26.052" y="1.67" class="h">ğº</text><text x="29.058" y="1.67" class="f">yarn</text><text x="34.068" y="1.67" class="f">start</text></symbol><symbol id="3"><text y="1.67" class="i">yarn</text><text x="5.01" y="1.67" class="i">run</text><text x="9.018" y="1.67" class="i">v1.15.2</text></symbol><symbol id="4"><text y="1.67" class="h">Compiled</text><text x="9.018" y="1.67" class="h">successfully!</text></symbol><symbol id="5"><text y="1.67" class="f">You</text><text x="4.008" y="1.67" class="f">can</text><text x="8.016" y="1.67" class="f">now</text><text x="12.024" y="1.67" class="f">view</text><text x="17.034" y="1.67" class="i">dgraph-react-todomvc</text><text x="38.076" y="1.67" class="f">in</text><text x="41.082" y="1.67" class="f">the</text><text x="45.09" y="1.67" class="f">browser.</text></symbol><symbol id="6"><text x="2.004" y="1.67" class="i">Local:</text><text x="20.04" y="1.67" class="f">http://localhost:</text><text x="37.074" y="1.67" class="i">3000</text><text x="41.082" y="1.67" class="f">/</text></symbol><symbol id="7"><text x="2.004" y="1.67" class="i">On</text><text x="5.01" y="1.67" class="i">Your</text><text x="10.02" y="1.67" class="i">Network:</text><text x="20.04" y="1.67" class="f">http://10.101.10.2:</text><text x="39.078" y="1.67" class="i">3000</text><text x="43.086" y="1.67" class="f">/</text></symbol><symbol id="8"><text y="1.67" class="f">Note</text><text x="5.01" y="1.67" class="f">that</text><text x="10.02" y="1.67" class="f">the</text><text x="14.028" y="1.67" class="f">development</text><text x="26.052" y="1.67" class="f">build</text><text x="32.064" y="1.67" class="f">is</text><text x="35.07" y="1.67" class="f">not</text><text x="39.078" y="1.67" class="f">optimized.</text></symbol><symbol id="9"><text y="1.67" class="f">To</text><text x="3.006" y="1.67" class="f">create</text><text x="10.02" y="1.67" class="f">a</text><text x="12.024" y="1.67" class="f">production</text><text x="23.046" y="1.67" class="f">build,</text><text x="30.06" y="1.67" class="f">use</text><text x="34.068" y="1.67" class="j">yarn</text><text x="39.078" y="1.67" class="j">build</text><text x="44.088" y="1.67" class="f">.</text></symbol><symbol id="a"><path fill="transparent" d="M0 0h108v28H0z"/></symbol><symbol id="b"><path fill="#6f7683" d="M0 0h1.102v2.171H0z"/></symbol></defs><path class="a" d="M0 0h108v60.788H0z"/><g style="animation-duration:14s;animation-iteration-count:infinite;animation-name:m;animation-timing-function:steps(1,end)"><svg width="3996"><svg><use xlink:href="#a"/><use xlink:href="#b" x="-.004"/></svg><svg x="108"><use xlink:href="#a"/><use xlink:href="#b" x="-.004"/></svg><svg x="216"><use xlink:href="#a"/><use xlink:href="#b" x="-.004"/></svg><svg x="324"><use xlink:href="#a"/><use xlink:href="#b" x="-.004"/></svg><svg x="432"><use xlink:href="#a"/><use xlink:href="#b" x="-.004"/></svg><svg x="540"><use xlink:href="#a"/><use xlink:href="#b" x="-.004"/></svg><svg x="648"><use xlink:href="#a"/><use xlink:href="#b" x="-.004"/></svg><svg x="756"><use xlink:href="#a"/><use xlink:href="#b" x="28.996"/><text y="1.67" class="f">paul</text><text x="5.01" y="1.67" class="g">dgraph-react-todomvc</text><text x="26.052" y="1.67" class="h">ğº</text></svg><svg x="864"><use xlink:href="#a"/><use xlink:href="#b" x="29.996"/><text y="1.67" class="f">paul</text><text x="5.01" y="1.67" class="g">dgraph-react-todomvc</text><text x="26.052" y="1.67" class="h">ğº</text><text x="29.058" y="1.67" class="f">y</text></svg><svg x="972"><use xlink:href="#a"/><use xlink:href="#b" x="30.996"/><text y="1.67" class="f">paul</text><text x="5.01" y="1.67" class="g">dgraph-react-todomvc</text><text x="26.052" y="1.67" class="h">ğº</text><text x="29.058" y="1.67" class="f">ya</text></svg><svg x="1080"><use xlink:href="#a"/><use xlink:href="#b" x="31.996"/><text y="1.67" class="f">paul</text><text x="5.01" y="1.67" class="g">dgraph-react-todomvc</text><text x="26.052" y="1.67" class="h">ğº</text><text x="29.058" y="1.67" class="f">yar</text></svg><svg x="1188"><use xlink:href="#a"/><use xlink:href="#b" x="32.996"/><use xlink:href="#1"/></svg><svg x="1296"><use xlink:href="#a"/><use xlink:href="#b" x="33.996"/><use xlink:href="#1"/></svg><svg x="1404"><use xlink:href="#a"/><use xlink:href="#b" x="34.996"/><text y="1.67" class="f">paul</text><text x="5.01" y="1.67" class="g">dgraph-react-todomvc</text><text x="26.052" y="1.67" class="h">ğº</text><text x="29.058" y="1.67" class="f">yarn</text><text x="34.068" y="1.67" class="f">s</text></svg><svg x="1512"><use xlink:href="#a"/><use xlink:href="#b" x="35.996"/><text y="1.67" class="f">paul</text><text x="5.01" y="1.67" class="g">dgraph-react-todomvc</text><text x="26.052" y="1.67" class="h">ğº</text><text x="29.058" y="1.67" class="f">yarn</text><text x="34.068" y="1.67" class="f">st</text></svg><svg x="1620"><use xlink:href="#a"/><use xlink:href="#b" x="36.996"/><text y="1.67" class="f">paul</text><text x="5.01" y="1.67" class="g">dgraph-react-todomvc</text><text x="26.052" y="1.67" class="h">ğº</text><text x="29.058" y="1.67" class="f">yarn</text><text x="34.068" y="1.67" class="f">sta</text></svg><svg x="1728"><use xlink:href="#a"/><use xlink:href="#b" x="37.996"/><text y="1.67" class="f">paul</text><text x="5.01" y="1.67" class="g">dgraph-react-todomvc</text><text x="26.052" y="1.67" class="h">ğº</text><text x="29.058" y="1.67" class="f">yarn</text><text x="34.068" y="1.67" class="f">star</text></svg><svg x="1836"><use xlink:href="#a"/><use xlink:href="#b" x="38.996"/><use xlink:href="#2"/></svg><svg x="1944"><use xlink:href="#a"/><use xlink:href="#b" x="-.004" y="2.146"/><use xlink:href="#2"/></svg><svg x="2052"><use xlink:href="#a"/><use xlink:href="#b" x="-.004" y="2.146"/><use xlink:href="#2"/></svg><svg x="2160"><use xlink:href="#a"/><use xlink:href="#b" x="-.004" y="2.146"/><use xlink:href="#2"/></svg><svg x="2268"><use xlink:href="#a"/><use xlink:href="#b" x="-.004" y="2.146"/><use xlink:href="#2"/></svg><svg x="2376"><use xlink:href="#a"/><use xlink:href="#b" x="-.004" y="2.146"/><use xlink:href="#2"/></svg><svg x="2484"><use xlink:href="#a"/><use xlink:href="#b" x="-.004" y="4.317"/><use xlink:href="#2"/><use xlink:href="#3" y="2.171"/></svg><svg x="2592"><use xlink:href="#a"/><use xlink:href="#b" x="-.004" y="4.317"/><use xlink:href="#2"/><use xlink:href="#3" y="2.171"/></svg><svg x="2700"><use xlink:href="#a"/><use xlink:href="#b" x="-.004" y="4.317"/><use xlink:href="#2"/><use xlink:href="#3" y="2.171"/></svg><svg x="2808"><use xlink:href="#a"/><use xlink:href="#b" x="-.004" y="6.488"/><use xlink:href="#2"/><use xlink:href="#3" y="2.171"/><text y="6.012" class="f">$</text><text x="2.004" y="6.012" class="f">react-scripts</text><text x="16.032" y="6.012" class="f">start</text></svg><svg x="2916"><use xlink:href="#a"/><use xlink:href="#b" x="-.004"/></svg><svg x="3024"><use xlink:href="#a"/><use xlink:href="#b" x="-.004" y="4.317"/><text y="1.67" class="j">Starting</text><text x="9.018" y="1.67" class="j">the</text><text x="13.026" y="1.67" class="j">development</text><text x="25.05" y="1.67" class="j">server...</text></svg><svg x="3132"><use xlink:href="#a"/><use xlink:href="#b" x="-.004"/></svg><svg x="3240"><use xlink:href="#a"/><use xlink:href="#b" x="-.004" y="2.146"/><use xlink:href="#4"/></svg><svg x="3348"><use xlink:href="#a"/><use xlink:href="#b" x="-.004" y="4.317"/><use xlink:href="#4"/></svg><svg x="3456"><use xlink:href="#a"/><use xlink:href="#b" x="-.004" y="6.488"/><use xlink:href="#4"/><use xlink:href="#5" y="4.342"/></svg><svg x="3564"><use xlink:href="#a"/><use xlink:href="#b" x="-.004" y="10.83"/><use xlink:href="#4"/><use xlink:href="#5" y="4.342"/><use xlink:href="#6" y="8.684"/></svg><svg x="3672"><use xlink:href="#a"/><use xlink:href="#b" x="-.004" y="17.343"/><use xlink:href="#4"/><use xlink:href="#5" y="4.342"/><use xlink:href="#6" y="8.684"/><use xlink:href="#7" y="10.855"/><use xlink:href="#8" y="15.197"/></svg><svg x="3780"><use xlink:href="#a"/><use xlink:href="#b" x="-.004" y="21.685"/><use xlink:href="#4"/><use xlink:href="#5" y="4.342"/><use xlink:href="#6" y="8.684"/><use xlink:href="#7" y="10.855"/><use xlink:href="#8" y="15.197"/><use xlink:href="#9" y="17.368"/></svg><svg x="3888"><use xlink:href="#a"/><use xlink:href="#b" x="1.996" y="21.685"/><use xlink:href="#4"/><use xlink:href="#5" y="4.342"/><use xlink:href="#6" y="8.684"/><use xlink:href="#7" y="10.855"/><use xlink:href="#8" y="15.197"/><use xlink:href="#9" y="17.368"/><text y="23.38" class="f">^C</text></svg></svg></g></g></svg></svg>