<?xml version="1.0" encoding="utf-8"?>
<!-- Generator: Adobe Illustrator 16.0.0, SVG Export Plug-In . SVG Version: 6.00 Build 0)  -->
<!DOCTYPE svg PUBLIC "-//W3C//DTD SVG 1.0//EN" "http://www.w3.org/TR/2001/REC-SVG-20010904/DTD/svg10.dtd">
<svg version="1.0" id="Layer_10" xmlns="http://www.w3.org/2000/svg" xmlns:xlink="http://www.w3.org/1999/xlink" x="0px" y="0px"
	 width="295.126px" height="113.189px" viewBox="0 0 295.126 113.189" enable-background="new 0 0 295.126 113.189"
	 xml:space="preserve">
<g>
	<polygon fill="#FFFFFF" points="227.308,50.954 215.335,55.176 215.728,56.116 218.349,61.475 226.811,61.952 	"/>
	<path d="M215.617,54.741c-6.231,0.337,1.876,8.375,1.876,8.375l11.077-1.066l-0.652-11.461
		C227.918,50.589,221.85,54.404,215.617,54.741z"/>
	<path fill="#D6D6D6" d="M215.617,55.723c-6.231,0.336,1.876,8.375,1.876,8.375l11.077-1.066l-0.652-11.462
		C227.918,51.57,221.85,55.386,215.617,55.723z"/>
	<path d="M247.883,39.071c8.187-0.611,6.257,15.887,17.445,7.393c2.792,11.889-9.904,13.32-9.904,13.32l-8.515-13.692l-0.882-5.892
		C246.027,40.2,240.891,39.597,247.883,39.071z"/>
	<g>
		<defs>
			<path id="XMLID_251_" d="M247.336,39.344c6.994-0.49,6.938,16.154,17.451,8.58c1.44,10.065-10.4,10.739-10.4,10.739l-8.76-12.57
				l-0.882-5.892C244.745,40.2,240.346,39.835,247.336,39.344z"/>
		</defs>
		<use xlink:href="#XMLID_251_"  overflow="visible" fill="#EF2A25"/>
		<clipPath id="XMLID_2_">
			<use xlink:href="#XMLID_251_"  overflow="visible"/>
		</clipPath>
		<path opacity="0.3" clip-path="url(#XMLID_2_)" d="M248.445,41.967c4.552-2.953,8.551,16.253,17.718,10.999
			c1.908,6.341-8.039,7.561-8.039,7.561L247.513,48.61C247.513,48.61,243.888,44.921,248.445,41.967z"/>
	</g>
	<path opacity="0.2" d="M295.126,87.435c0,1.943-19.893,3.521-44.438,3.521s-44.444-1.578-44.444-3.521
		c0-1.942,19.899-3.521,44.444-3.521S295.126,85.492,295.126,87.435z"/>
	<g>
		<defs>
			<path id="XMLID_250_" d="M252.316,60.198c8.271-0.455,13.082,2.68,19.1,7.014c7.891,5.696,14.528-4.565,11.682-9.967
				c11.299,2.258,11.138,16.33,6.06,20.103c1.262-0.498,2.278-0.168,2.209,0.253c-1.634,4.293-6.067,5.45-6.067,5.45
				s2.202,0.028,0.414,1.207c-8.242,4.377-16.989,2.819-23.703-6.867c-0.848-1.234-2.216-3.592-2.867-4.896
				c-2.681-5.443-3.318-3.416-10.242-4.355C239.608,66.876,250.408,60.31,252.316,60.198z"/>
		</defs>
		<use xlink:href="#XMLID_250_"  overflow="visible"/>
		<clipPath id="XMLID_3_">
			<use xlink:href="#XMLID_250_"  overflow="visible"/>
		</clipPath>
	</g>
	<g>
		<defs>
			<path id="XMLID_249_" d="M253.061,60.998c8.271-0.449,12.135,3.192,18.152,7.526c7.892,5.696,16.211-4.152,13.37-9.553
				c8.895,3.016,8.895,15.874,0.862,19.998c1.256-0.499,5.415-1.656,4.854-0.897c-2.876,5.225-9.041,4.881-9.041,4.881
				s4.356,0.541,3.353,0.989c-8.248,4.377-17.256-0.316-22.671-8.319c-0.835-1.242-1.739-2.869-2.392-4.174
				c-2.435-4.953-4.7-4.062-11.91-5.043C238.336,65.143,251.146,61.11,253.061,60.998z"/>
		</defs>
		<use xlink:href="#XMLID_249_"  overflow="visible" fill="#FFFFFF"/>
		<clipPath id="XMLID_4_">
			<use xlink:href="#XMLID_249_"  overflow="visible"/>
		</clipPath>
		<path clip-path="url(#XMLID_4_)" d="M258.455,65.291c8.002-0.21,10.76,11.202,20.038,8.621c-0.392,1.543-1.437,2.729-3.71,3.184
			c6.581,0.793,12.422-4.755,13.167-7.175c0.736,2.722-1.095,5.843-1.095,5.843s4.511-2.188,4.903-6.881
			c0.217-2.645,2.225,18.195,2.225,18.195l-36.225,3.332l-2.671-23.954L258.455,65.291"/>
		<path clip-path="url(#XMLID_4_)" fill="#FFFFFF" d="M258.895,71.091c0,0,8.811,15.986,25.591,13.398
			c0.891,5.555-13.909,4.686-13.909,4.686l-10.438-9.708L258.895,71.091z"/>
	</g>
	<path d="M244.416,67.647c-3.292,3.605-3.053,11.413,2.087,17.22c-4.166,3.732-18.605,3.486-22.388,1.2
		c3.271-7.225,9.915-5.618,9.915-5.618s-9.713-6.91-1.451-14.906C235.839,66.96,239.706,68.019,244.416,67.647z"/>
	<g>
		<defs>
			<path id="XMLID_247_" d="M244.273,66.356c-6.175,7.407-0.282,14.842,1.906,18.133c-3.527,3.086-17.006,3.149-20.781,0.862
				c3.889-5.892,11.086-3.844,11.086-3.844s-10.546-6.397-3.771-16.168C236.17,59.482,250.443,58.95,244.273,66.356z"/>
		</defs>
		<use xlink:href="#XMLID_247_"  overflow="visible" fill="#FFFFFF"/>
		<clipPath id="XMLID_5_">
			<use xlink:href="#XMLID_247_"  overflow="visible"/>
		</clipPath>
		<path clip-path="url(#XMLID_5_)" d="M244.273,76.058c-8.414,3.317-14.665-3.065-16.004-4.945l2.034-10.094l13.099,1.55
			C243.402,62.569,251.733,73.119,244.273,76.058z"/>
		<g clip-path="url(#XMLID_5_)">
			<defs>
				<path id="XMLID_248_" d="M244.155,75.363c-7.769,2.042-15.809-2.568-15.803-2.568l1.847-12.374l15.399-0.687
					C245.599,59.735,251.91,73.314,244.155,75.363z"/>
			</defs>
			<use xlink:href="#XMLID_248_"  overflow="visible" fill="#EF2A25"/>
			<clipPath id="XMLID_6_">
				<use xlink:href="#XMLID_248_"  overflow="visible"/>
			</clipPath>
		</g>
		<polyline clip-path="url(#XMLID_5_)" points="253.783,61.307 255.298,76.619 247.996,74.43 244.542,78.155 242.394,70.375 
			246.259,65.992 		"/>
		<path clip-path="url(#XMLID_5_)" fill="#FFFFFF" d="M231.46,67.97c-1.185,6.601,3.519,12.408,3.519,12.408l-6.947-2.118
			l0.141-8.088C228.172,70.172,232.641,61.383,231.46,67.97z"/>
		<path opacity="0.3" clip-path="url(#XMLID_5_)" d="M237.77,73.575c0,0-1.551,4.292,2.463,8.6c-10.496-1.725-13.422,6.6-13.422,6.6
			l26.938,0.148l-7.246-20.441L237.77,73.575z"/>
	</g>
	<path fill="#020000" d="M230.304,86.923l0.855,0.154c0.512-0.786,2.149-2.841,5.474-3.451
		C232.746,83.655,230.746,86.271,230.304,86.923z"/>
	<path fill="#020000" d="M226.811,86.278l0.85,0.154c0.512-0.786,1.732-3.283,5.058-3.893
		C228.516,83.03,227.247,85.625,226.811,86.278z"/>
	<g>
		<g>
			<path fill="#FFFFFF" d="M234.002,49.375c1.747-3.1,3.212-0.441,2.609,0.744c-0.604,1.185-1.949,8.669-1.949,8.669
				s-1.325-1.494-2.435,1.018c-1.117,2.51-3.264,0.582-2.227-1.172c1.032-1.754,1.459-7.112,1.459-7.112
				S232.248,52.476,234.002,49.375z"/>
			<path fill="#020000" d="M237.318,58.879c2.375-2.055,2.627-5.646,0.577-8.017c-0.281-0.315-0.582-0.589-0.906-0.835
				c0.309-0.582,0.254-1.318-0.21-1.844c-0.589-0.688-1.634-0.758-2.314-0.162c-0.28,0.238-0.463,0.554-0.532,0.891
				c-1.431-0.078-2.894,0.365-4.058,1.381c-2.37,2.048-2.622,5.64-0.575,8.011c0.105,0.119,0.211,0.224,0.316,0.33
				c-0.429,0.604-0.406,1.445,0.098,2.027c0.596,0.68,1.634,0.757,2.323,0.168c0.219-0.189,0.373-0.42,0.465-0.673
				C234.156,60.485,235.944,60.065,237.318,58.879z M231.622,60.346c-0.419,0.365-1.059,0.322-1.423-0.099
				c-0.365-0.428-0.324-1.066,0.098-1.424c0.238-0.211,0.539-0.281,0.821-0.238l1.081-5.016l0.514,0.996l0.756-2.995l0.492,1.018
				l1.107-2.441c-0.105-0.057-0.211-0.133-0.293-0.224c-0.367-0.421-0.316-1.06,0.103-1.431c0.422-0.365,1.061-0.316,1.426,0.105
				c0.364,0.421,0.315,1.059-0.105,1.424c-0.218,0.189-0.491,0.273-0.758,0.246l-0.968,6.046l-0.548-1.073l-0.813,2.56l-0.524-0.862
				l-1.055,1.816c0.069,0.042,0.131,0.099,0.189,0.168C232.088,59.342,232.045,59.981,231.622,60.346z"/>
		</g>
		<path d="M226.69,52.447c-6.947,17.634,9.128,23.835,20.43,21.829c13.271-2.364,18.981-16.519,3.233-27.812
			c0.335-7.85-7.729-7.547-11.813-7.302C234.451,39.4,222.549,43.405,226.69,52.447z"/>
		<g>
			<defs>
				<path id="XMLID_246_" d="M227.694,52.581c-4.44,10.739,0.365,17.01,7.102,19.591c3.822,1.474,8.271,1.754,11.995,0.989
					c10.274-2.097,18.081-14.94,2.607-26.261c0-7.555-6.787-7.281-10.747-7.049C234.69,40.088,223.406,43.911,227.694,52.581z"/>
			</defs>
			<use xlink:href="#XMLID_246_"  overflow="visible" fill="#EF2A25"/>
			<clipPath id="XMLID_7_">
				<use xlink:href="#XMLID_246_"  overflow="visible"/>
			</clipPath>
			<path clip-path="url(#XMLID_7_)" fill="#FFFFFF" d="M228.964,42.943c0,0-1.971,5.499-1.115,8.873
				c0.083,0.308,0.183,0.603,0.315,0.87c-3.51,6.559,2.497,17.676,2.497,17.676l-8.819-0.806l0.707-22.952L228.964,42.943z"/>
			<path clip-path="url(#XMLID_7_)" fill="#FFFFFF" d="M259.241,56.06c0.986,5.695-2.324,12.177-2.324,12.177l4.153-1.024
				C261.07,67.212,262.164,58.087,259.241,56.06z"/>
			<path opacity="0.3" clip-path="url(#XMLID_7_)" d="M245.467,54.769c-4.042-3.395-18.159,12.753-18.159,12.753
				s-5.72,10.36,5.038,5.099C243.109,67.353,245.467,54.769,245.467,54.769"/>
			<path clip-path="url(#XMLID_7_)" fill="#FFFFFF" d="M252.416,48.61c8.022,11.504,4.544,19.971,4.544,19.971
				s2.861-5.296,2.245-13.812C258.587,46.254,244.401,37.106,252.416,48.61z"/>
		</g>
		<g>
			<path fill="#FFFFFF" d="M234.107,49.579c1.642-2.911,3.016-0.421,2.455,0.694c-0.575,1.122-1.838,8.15-1.838,8.15
				s-1.241-1.409-2.287,0.955c-1.047,2.364-3.061,0.546-2.092-1.102c0.976-1.648,1.376-6.678,1.376-6.678
				S232.459,52.489,234.107,49.579z"/>
			<path fill="#020000" d="M237.221,58.507c2.233-1.929,2.473-5.302,0.542-7.526c-0.26-0.302-0.542-0.562-0.843-0.786
				c0.288-0.547,0.231-1.241-0.203-1.732c-0.555-0.652-1.528-0.715-2.175-0.162c-0.266,0.231-0.435,0.526-0.496,0.842
				c-1.349-0.078-2.717,0.343-3.812,1.297c-2.231,1.929-2.469,5.303-0.541,7.526c0.092,0.112,0.189,0.217,0.295,0.309
				c-0.4,0.568-0.38,1.361,0.09,1.908c0.563,0.646,1.538,0.716,2.185,0.154c0.203-0.175,0.345-0.393,0.435-0.631
				C234.254,60.016,235.932,59.63,237.221,58.507z M231.868,59.89c-0.393,0.343-0.996,0.294-1.333-0.098
				c-0.344-0.393-0.301-0.996,0.091-1.34c0.218-0.189,0.505-0.26,0.772-0.218l1.019-4.713l0.485,0.933l0.707-2.813l0.457,0.954
				l1.037-2.286c-0.1-0.056-0.189-0.126-0.267-0.218c-0.344-0.392-0.303-0.996,0.091-1.339c0.4-0.344,0.996-0.302,1.34,0.098
				c0.344,0.393,0.301,0.996-0.098,1.333c-0.205,0.182-0.463,0.259-0.709,0.232l-0.911,5.681l-0.52-1.003l-0.758,2.399l-0.498-0.807
				l-0.99,1.705c0.063,0.042,0.127,0.098,0.184,0.162C232.313,58.95,232.271,59.545,231.868,59.89z"/>
		</g>
	</g>
	<path fill="#EF2A25" d="M242.933,43.321"/>
	<g>
		<g>
			<path d="M256.819,69.232c-2.32,3.065-2.623,11.679,2.723,17.718c-4.334,3.879-19.885,3.816-23.813,1.438
				c3.402-7.513,9.037-5.85,9.037-5.85s-8.681-7.821,0.154-15.327C248.312,68.692,251.924,69.618,256.819,69.232z"/>
			<g>
				<defs>
					<path id="XMLID_234_" d="M256.351,66.686c-5.662,7.955-1.019,16.337,1.262,19.746c-3.668,3.22-16.622,3.591-20.551,1.213
						c4.04-6.13,9.953-4.279,9.953-4.279s-9.394-6.369-2.347-16.532C248.263,60.746,259.514,60.647,256.351,66.686z"/>
				</defs>
				<use xlink:href="#XMLID_234_"  overflow="visible" fill="#FFFFFF"/>
				<clipPath id="XMLID_8_">
					<use xlink:href="#XMLID_234_"  overflow="visible"/>
				</clipPath>
				<path clip-path="url(#XMLID_8_)" d="M255.979,75.728c-6.994,5.106-15.304,0.498-16.699-1.452l2.875-11.939l13.619,1.621
					C255.773,63.958,262.719,70.804,255.979,75.728z"/>
				<g clip-path="url(#XMLID_8_)">
					<defs>
						<path id="XMLID_245_" d="M256.372,75.728c-7.963,2.946-15.941,0-15.937,0l1.621-14.001l15.998-0.715
							C258.055,61.012,264.206,72.831,256.372,75.728z"/>
					</defs>
					<use xlink:href="#XMLID_245_"  overflow="visible" fill="#EF2A25"/>
					<clipPath id="XMLID_9_">
						<use xlink:href="#XMLID_245_"  overflow="visible"/>
					</clipPath>
				</g>
				<path clip-path="url(#XMLID_8_)" fill="#FFFFFF" d="M242.869,69.696c-1.227,6.859,3.311,13.503,3.311,13.503l-6.381-3.059
					l0.146-8.41C239.945,71.73,244.097,62.85,242.869,69.696z"/>
			</g>
		</g>
		<path fill="#020000" d="M241.551,89.371l0.884,0.161c0.534-0.814,2.239-2.953,5.694-3.584
			C244.091,85.976,242.008,88.69,241.551,89.371z"/>
		<path fill="#020000" d="M238.015,88.845l0.898,0.091c0.465-0.855,1.985-3.128,5.373-4.047
			C240.267,85.253,238.421,88.136,238.015,88.845z"/>
	</g>
	<polygon fill="#EF2A25" points="248.81,45.776 247.919,44.97 247.618,44.97 245.627,52.447 248.71,55.176 249.398,53.142 	"/>
	<polygon fill="#EF2A25" points="242.414,67.717 244.286,68.573 256.351,66.686 257.396,64.597 255.712,58.971 246.938,58.662 	"/>
	<path fill="#BC9431" d="M214.915,50.995c-7.823-4.665-19.333-4.335-19.333-4.335s10.103,16.014,5.332,24.55
		c9.068-0.308,17.594,9.239,17.594,9.239S224.39,64.807,214.915,50.995z"/>
	<g>
		<defs>
			<path id="XMLID_233_" d="M214.214,51.626c-7.36-4.377-17.622-4.013-17.622-4.013s9.884,14.969,5.395,22.98
				c8.537-0.295,16.186,8.732,16.186,8.732S223.134,64.589,214.214,51.626z"/>
		</defs>
		<use xlink:href="#XMLID_233_"  overflow="visible" fill="#FFE94A"/>
		<clipPath id="XMLID_10_">
			<use xlink:href="#XMLID_233_"  overflow="visible"/>
		</clipPath>
		<path clip-path="url(#XMLID_10_)" fill="#E0D168" d="M201.531,74.978c0,0,2.237-24.01,9.301-18.294
			c7.074,5.71,11.506,25.855,11.506,25.855L201.531,74.978z"/>
	</g>
	<path d="M242.442,49.712c-4.007-0.547-12.349,6.292-18.327,10.072c-2.702-2.896-5.409-1.122-5.409-1.122l0.005,1.697
		c0,0-4.497-1.697-6.475-0.028c-1.924,1.621,0.437,3.5,0.437,3.5s-1.194,2.498,2.107,5.023c-1.296,3.521,15.523,11.392,30.076-12.57
		C246.503,53.219,245.599,50.146,242.442,49.712z"/>
	<path d="M205.957,65.873c0.47-3.578-6.25-4.917-6.055-1.774C200.149,67.984,205.486,69.45,205.957,65.873z"/>
	<path fill="#FFFFFF" d="M205.376,65.522c0.37-2.925-4.798-3.697-4.693-1.13C200.794,66.967,204.996,68.44,205.376,65.522z"/>
	<path d="M204.85,62.885c0.855-3.5-6.139-5.563-6.013-2.42S204.076,66.02,204.85,62.885z"/>
	<path fill="#FFFFFF" d="M204.056,62.618c0.38-2.926-4.258-4.672-4.153-2.104C200.008,63.081,203.676,65.536,204.056,62.618z"/>
	<path d="M204.785,58.563c0.773-4.335-8.466-7.196-8.193-3.388C196.929,59.784,204.056,62.618,204.785,58.563z"/>
	<path fill="#FFFFFF" d="M203.706,58.241c0.553-3.542-6.271-5.688-6.161-2.574C197.658,58.781,203.149,61.791,203.706,58.241z"/>
	<g>
		<defs>
			<path id="XMLID_232_" d="M242.94,49.417c-3.879-0.534-13.017,8.354-18.825,11.454c-2.612-2.799-4.939-1.613-4.939-1.613
				l0.483,2.322c0,0-4.009-1.606-6.315-0.863c-2.316,0.744,0.421,3.381,0.421,3.381s-1.472,1.445,1.731,3.886
				c-1.254,3.402,13.37,11.96,30.537-14.169C247.631,51.065,245.991,49.838,242.94,49.417z"/>
		</defs>
		<use xlink:href="#XMLID_232_"  overflow="visible" fill="#FFFFFF"/>
		<clipPath id="XMLID_11_">
			<use xlink:href="#XMLID_232_"  overflow="visible"/>
		</clipPath>
		<path clip-path="url(#XMLID_11_)" d="M233.16,52.805c7.129,4.433,8.496,12.374,8.496,12.374l7.021-11.433l-6.348-8.522
			C242.329,45.223,226.03,48.372,233.16,52.805z"/>
		<path clip-path="url(#XMLID_11_)" fill="#EF2A25" d="M233.469,53.296c8.945,3.557,7.381,12.528,7.381,12.528l8.431-12.331
			l-6.348-8.523C242.933,44.97,225.666,50.195,233.469,53.296z"/>
		<path clip-path="url(#XMLID_11_)" fill="#FFFFFF" d="M238.153,50.504c-3.619,7.015-13.546,9.708-13.546,9.708
			S241.769,43.489,238.153,50.504z"/>
		<path opacity="0.3" clip-path="url(#XMLID_11_)" d="M246.174,54.32c0,0-16.08,18.637-30.109,16.33
			c-2.271,5.682,9.334,5.5,9.334,5.5l16.658-8.467L246.174,54.32z"/>
	</g>
	<path d="M213.478,63.614c1.303,1.248,4.694,1.929,4.694,1.929s-2.781,1.487-1.544,0.014c-0.9,0.099-2.638-0.266-3.284-0.981
		C212.216,63.327,212.18,62.366,213.478,63.614z"/>
	<path d="M215.496,67.984c1.322,0.813,3.49,0.744,3.49,0.744s-1.29,1.339-0.954,0.231c-0.898,0.231-1.884,0.281-2.577-0.007
		C214.271,68.468,214.348,67.275,215.496,67.984z"/>
	<polyline fill="#EF2A25" points="240.541,50.392 244.209,54.467 247.048,54.769 249.398,52.3 246.033,46.092 	"/>
	<path d="M219.448,61.32c0,0,0.799,0.919,1.929,0c1.13-0.926-2.391-0.449-2.391-0.449L219.448,61.32z"/>
	<polygon fill="#EF2A25" points="242.057,42.044 247.035,39.344 249.398,41.484 245.915,42.549 	"/>
	<path d="M250.164,41.519c1.823,0.771-6.234,1.669-6.738,2.307C242.92,44.458,246.58,40.039,250.164,41.519z"/>
	<g>
		<path fill="#FFFFFF" d="M226.755,46.464c-1.251-6.019,14.377-10.325,12.762-4.012"/>
		<path fill="#EF2A25" d="M238.724,42.971"/>
		<path d="M225.574,9.386c5.213-3.998,2.891-11.293-4.21-8.922c-8.376,2.805-5.938,10.367,1.102,9.624
			C229.076,9.379,221.511,12.5,225.574,9.386z"/>
		<path fill="#FFFFFF" d="M225.398,9.337c4.169-3.318,2.389-9.953-3.971-7.954c-6.367,1.991-5.369,7.056,0.111,8.957
			C223.449,10.417,224.788,9.82,225.398,9.337z"/>
		<path d="M224.859,9.575c3.403-2.617,2.134-7.534-2.837-5.759c-4.973,1.775-4.033,6.944,0.59,6.537
			C223.238,10.305,223.939,10.284,224.859,9.575z"/>
		<path d="M213.226,30.913c-0.343-5.022-1.501-13.082,2.748-18.245c8.344-8.74,25.331-8.41,32.744-2.546
			c7.4,5.871,4.616,10.058,4.616,10.058l-7.14,12.816l-27.132,8.488C219.063,41.484,213.569,35.921,213.226,30.913z"/>
		<path d="M213.688,30.843c-0.344-5.022-1.065-12.983,3.178-18.146c8.344-8.74,25.024-7.352,32.428-1.487
			c7.408,5.871,3.558,11.616,3.558,11.616l-6.026,10.073l-27.13,8.487C219.694,41.385,214.026,35.858,213.688,30.843z"/>
		<path fill="#474747" d="M238.225,29.966c0.865-3.051,0.773-13.986-5.322-13.411c-6.684,0.631-5.292,12.864-5.292,12.864
			s-2.604,0.701-2.009,4.538C226.277,38.327,237.362,33.017,238.225,29.966z"/>
		<path fill="#474747" d="M214.893,32.436c0,0-3.457-16.007,1.68-15.524c4.849,0.463,4.658,12.767,4.658,12.767l-4.533,2.483
			L214.893,32.436z"/>
		<path fill="#FFFFFF" d="M215.173,32.393l1.798-0.273l0.092-0.056l0.569-0.344l2.771-1.648c0,0,0.134-2.195-0.063-4.734
			c-0.042-0.541-0.098-1.095-0.175-1.656c-0.386-2.848-1.284-5.625-3.292-5.905C212.139,17.116,215.173,32.393,215.173,32.393z"/>
		<path d="M216.544,31.698c-2.379,0.183-5.425-10.991-12.018-4.019c2.224-0.512,3.4,0.063,3.4,0.063s-1.978,1.277-1.03,4.293
			C207.845,35.051,218.93,31.509,216.544,31.698z"/>
		<path fill="#FFFFFF" d="M216.064,31.874c-2.385,0.175-4.804-8.48-9.82-4.994c2.006-0.112,3.198,0.792,3.198,0.792
			s-2.918,1.256-1.971,4.272C208.418,34.967,218.446,31.685,216.064,31.874z"/>
		<path d="M217.324,33.522l0.575-0.344l2.764-1.648c0,0,0.134-2.196-0.064-4.736c-0.041-0.54-0.098-1.094-0.167-1.655
			c-0.478-0.568-1.053-0.912-1.648-0.933c-1.613-0.063-2.865,2.209-2.796,5.058C216.03,31.004,216.557,32.562,217.324,33.522z"/>
		<path d="M218.495,34.154c10.566-2.729,3.625-21.142,14.202-26.62c3.542-1.837,9.148-1.978,11.149-1.915
			c-2.674-2.715-5.727-2.722-8.126-2.09c1.038-0.52,1.613-0.471,2.399-0.8c-5.808-3.128-16.014-0.595-17.955,11.364
			c-1.046,8.06,4.302,18.441-7.788,17.333C198.402,30.141,207.927,36.882,218.495,34.154z"/>
		<path fill="#FFFFFF" d="M226.038,34.54c0.75,4.349,10.931-1.045,11.725-4.083c0.069-0.267,0.126-0.575,0.181-0.94
			c0.037-0.203,0.063-0.428,0.084-0.652c0.148-1.313,0.185-3.017-0.006-4.7c-0.041-0.4-0.1-0.799-0.169-1.2h-0.008
			c-0.547-3.064-1.962-5.738-4.95-5.485c-5.775,0.498-4.82,12.29-4.82,12.29S225.294,30.184,226.038,34.54z"/>
		<path d="M233.848,31.397c-0.645,1.648-1.831,2.729-3.166,2.658c-1.864-0.112-3.19-2.518-3.051-5.387c0-0.07,0-0.113,0.035-0.183
			V28.38c0.036-0.47,0.113-0.898,0.252-1.333c0.036-0.105,0.071-0.21,0.113-0.322c0.567-1.866,1.865-3.122,3.262-3.052
			c0.978,0.07,1.839,0.757,2.373,1.831C234.213,26.942,234.27,28.963,233.848,31.397z"/>
		<path d="M220.137,37.99c11.128-16.021,23.702-2.792,29.599-17.241c0.287,1.164,0.834,2.518,0.071,4.532
			c3.318-3.753,3.576-9.624,3.576-9.624s3.857,6.881,0.218,13.201c6.901-1.683,7.31,6.271,7.31,6.271s-0.654-0.245-2.975-1.059
			c2.566,2.49,1.55,4.91,1.059,6.417c-13.94-9.525-22.397,17.115-44.389,6.818c-3.851,0.147-9.237-1.95-10.178-6.755
			C200.879,34.462,213.976,37.324,220.137,37.99z"/>
		<path fill="#FFFFFF" d="M205.15,40.25c0.12,0.427,0.272,0.827,0.455,1.206c0.464,0.968,1.124,1.774,1.9,2.441
			c2.099,1.817,5.018,2.609,7.045,2.708c0.083,0.028,0.16,0.063,0.229,0.099c22.097,8.859,29.867-16.478,44.009-7.26
			c0.485-1.508,0.121-5.043-4.5-5.941c3.022-0.779,5.856,0.757,5.856,0.757s-0.226-1.01-0.843-2.09
			c-1.01-1.733-2.694-3.936-6.93-1.782c3.388-7.428,1.191-12.646,1.114-13.488c-1.492,19.9-21.829,5.555-32.958,21.569
			C214.362,37.801,201.608,34.16,205.15,40.25z"/>
		<path fill="#D6D6D6" d="M205.605,41.456c0.464,0.968,1.124,1.774,1.9,2.441c3.487,1.537,10.093,1.516,10.948-1.431
			c0.301-0.625,0.49-0.898,0.532-0.961C218.796,41.715,215.532,45.355,205.605,41.456z"/>
		<path fill="#FFFFFF" d="M218.103,33.936c2.355-0.61,3.829-2.083,4.828-4.047c1.829-3.619,2.034-8.88,3.057-13.383
			c0.929-4.041,2.128-7.464,5.866-9.33c3.803-1.901,7.383-2.245,10.561-2.021c-4.253-2.728-9.162-0.21-10.151,0.036
			c0.94-1.109,2.749-1.958,4.082-2.561c-2.194-1.305-12.77-0.94-15.625,10.662c-0.977,4.959,0.981,11.49-0.457,15.348
			c-0.884,2.356-3.044,3.71-7.941,3.093C198.402,29.973,207.536,36.665,218.103,33.936z"/>
		<path d="M244.863,34.938c-5.845-2.896-7.432,2.393-7.368,2.646C240.24,32.982,246.706,36.314,244.863,34.938z"/>
		<path d="M221.246,35.802c0.734,2.153-1.644,6.699-4.499,7.506c-2.856,0.813-10.3-0.862-12.265-2.582
			c-2.566-2.238-2.713-7.926-1.262-8.866C206.896,29.762,219.877,31.832,221.246,35.802z"/>
		<path fill="#FFFFFF" d="M220.438,36.16c0.695,2.035-1.275,5.766-3.966,6.53c-2.687,0.765-9.806-0.603-11.638-2.252
			c-1.831-1.648-2.455-6.859-1.086-7.737C207.205,30.724,219.162,32.428,220.438,36.16z"/>
		<path d="M217.703,37.071c0.553,1.613-0.998,4.714-3.138,5.317c-2.142,0.61-7.753-0.618-9.205-1.93
			c-1.459-1.305-2.034-5.45-0.947-6.151C207.169,32.737,216.683,34.097,217.703,37.071z"/>
		<path fill="#FFFFFF" d="M210.629,35.978c0.035,0.758,1.284,1.312,2.786,1.241c1.5-0.069,2.685-0.743,2.649-1.5
			c-0.042-0.758-1.29-1.326-2.783-1.249C211.781,34.546,210.586,35.213,210.629,35.978z"/>
		<path d="M248.43,12.297c-2.739-7.302,5.086-12.858,10.277-5.717c5.19,7.148-0.596,14.612-7.352,8.86
			C245.403,10.347,250.549,17.943,248.43,12.297z"/>
		<path fill="#FFFFFF" d="M248.738,12.213c-1.739-6.033,4.497-11.209,9.246-4.938c4.755,6.257,0.337,10.458-6.221,8.551
			C249.882,14.583,248.992,13.097,248.738,12.213z"/>
		<path d="M249.09,12.816c-1.472-4.847,3.095-8.712,6.657-3.605c3.569,5.113-0.898,9.434-5.072,5.885
			C250.115,14.618,249.49,14.12,249.09,12.816z"/>
		<path fill="#FFFFFF" d="M230.724,28.023c-0.075,0.532-1.044,0.862-2.194,0.715c-0.323-0.036-0.611-0.141-0.863-0.253V28.38
			c0.036-0.47,0.113-0.898,0.252-1.333c0.036-0.105,0.071-0.21,0.113-0.322c0.21,0,0.464,0,0.75,0.035
			C229.932,26.907,230.795,27.448,230.724,28.023z"/>
		<path fill="#FFFFFF" d="M214.787,28.065c-0.062,0.456,0.647,0.918,1.58,1.045c0.936,0.12,1.742-0.147,1.797-0.597
			c0.064-0.448-0.645-0.912-1.579-1.038C215.65,27.35,214.844,27.616,214.787,28.065z"/>
		<path fill="#D6D6D6" d="M214.78,46.703c22.097,8.859,29.867-16.478,44.009-7.26c0.485-1.508,0.121-5.043-4.5-5.941
			c3.022-0.779,5.856,0.757,5.856,0.757s-0.226-1.01-0.843-2.09c-2.546-0.513-5.576-0.702-7.801,0.498
			c3.36,1.361,5.31,4.777,4.722,4.188c-11.394-5.191-21.787,14.491-34.276,8.916C221.482,45.566,218.999,46.779,214.78,46.703z"/>
		<path d="M213.765,46.534c0,0,12.048,1.074,14.336-7.968c12.456,4.468,11.627-3.444,11.627-3.444s0.688,0.021,1.122-0.175
			c-0.126,6.649-7.654,6.986-12.438,4.216c-2.001,9.322-14.385,7.828-14.385,7.828L213.765,46.534z"/>
		<path fill="#6D6D6D" d="M213.478,46.092c0,0-1.501-1.031-2.379-2.595C211.351,45.791,213.478,46.092,213.478,46.092z"/>
		<path d="M202.289,31.06c-7.197-5.794-12.312-4.18-12.312-4.18S197.069,27.181,202.289,31.06z"/>
		<path d="M227.525,33.606c10.833-4.602,17.22-2.209,17.22-2.209S235.307,30.583,227.525,33.606z"/>
		<path d="M201.531,32.709c-5.779-3.613-13.048-1.614-13.048-1.614S196.486,30.345,201.531,32.709z"/>
		<path d="M226.564,35.57c5.184-3.212,11.576-0.813,11.576-0.813S231.075,33.544,226.564,35.57z"/>
		<path d="M199.918,34.995c-2.386-0.336-5.247,0.996-5.247,0.996S202.289,35.325,199.918,34.995z"/>
		<path d="M236.969,6.671"/>
	</g>
	<path d="M167.606,55.926c8.193-0.617,6.257,15.88,17.453,7.386c2.786,11.896-9.912,13.32-9.912,13.32l-8.515-13.685l-0.892-5.892
		C165.741,57.056,160.606,56.445,167.606,55.926z"/>
	<path fill="#EF2A25" d="M167.062,56.192c6.999-0.49,6.936,16.162,17.456,8.586c1.438,10.059-10.408,10.732-10.408,10.732
		l-8.761-12.563l-0.892-5.892C164.457,57.056,160.06,56.684,167.062,56.192z"/>
	<path opacity="0.2" d="M217.646,109.206c0,2.196-22.562,3.984-50.396,3.984c-27.826,0-50.382-1.788-50.382-3.984
		c0-2.209,22.557-3.996,50.382-3.996C195.084,105.209,217.646,106.996,217.646,109.206z"/>
	<path fill="#FFDD50" d="M105.65,88.368v9.189c0,1.739,1.411,3.149,3.158,3.149h23.069c1.739,0,3.149-1.41,3.149-3.149v-9.189
		c0-1.74-1.411-3.143-3.149-3.143h-1.783l-0.119-2.638v-0.014l-0.007-0.168c-0.056-0.316-0.321-0.554-0.65-0.554
		c-0.162,0-0.308,0.056-0.421,0.154l-3.886,3.22h-16.203C107.061,85.226,105.65,86.628,105.65,88.368z"/>
	<g>
		<text transform="matrix(1 0 0 1 111.0918 94.7954)" fill="#AA8231" font-family="'MyriadPro-Regular'" font-size="29.8126">...</text>
	</g>
	<g>
		<path d="M133.503,62.632c0,0,20.895-2.84,22.523,2.505c2.694,11.468-30.603,16.603-32.32,5.464
			c-4.735-4.686-2.273-8.684,4.152-5.556c-1.768-1.326-2.553-4.292,0.379-4.735C131.673,59.792,133.503,62.632,133.503,62.632z"/>
		<g>
			<defs>
				<path id="XMLID_231_" d="M132.851,63.46c0,0,22.067-2.806,23.364,1.002c2.64,10.767-30.019,16.688-31.737,5.549
					c-4.735-4.686-0.416-6.65,6.01-3.521c-1.761-1.326-4.811-4.637-1.927-5.317C131.673,60.437,132.851,63.46,132.851,63.46z"/>
			</defs>
			<use xlink:href="#XMLID_231_"  overflow="visible" fill="#FFFFFF"/>
			<clipPath id="XMLID_12_">
				<use xlink:href="#XMLID_231_"  overflow="visible"/>
			</clipPath>
			<path clip-path="url(#XMLID_12_)" fill="#D6D6D6" d="M122.295,70.993c24.135,9.427,36.159-6.474,36.159-6.474l-1.097,12.409
				l-35.721,4.321C121.636,81.249,98.16,61.566,122.295,70.993z"/>
		</g>
		<path d="M130.852,66.729c0,0-0.526,1.347,1.101,4.265C128.925,69.085,130.852,66.729,130.852,66.729L130.852,66.729z"/>
		<path d="M124.478,70.012c-0.386-1.67,3.941,0.42,4.643,0.589c-0.603-2.014-1.137-0.891-1.137-0.891s-3.858-2.448-4.398-0.68
			C122.919,69.751,124.864,71.681,124.478,70.012z"/>
		<path d="M128.538,68.86c-4.889-4.489-6.888,0.45-6.067-2.02c0.638-1.93,3.985-0.386,5.416,0.982
			C128.195,66.335,128.546,68.581,128.538,68.86z"/>
	</g>
	<g>
		<defs>
			<path id="XMLID_230_" d="M169.101,78.316c9.378-0.512,14.829,3.038,21.655,7.962c8.951,6.453,16.472-5.177,13.244-11.3
				c12.818,2.56,12.628,18.511,6.875,22.79c1.431-0.568,2.589-0.196,2.504,0.281c-1.857,4.875-6.881,6.179-6.881,6.179
				s2.497,0.042,0.476,1.375c-9.35,4.964-19.276,3.197-26.88-7.786c-0.97-1.403-2.52-4.076-3.256-5.556
				c-3.037-6.166-3.759-3.872-11.615-4.938C154.687,85.892,166.928,78.442,169.101,78.316z"/>
		</defs>
		<use xlink:href="#XMLID_230_"  overflow="visible"/>
		<clipPath id="XMLID_13_">
			<use xlink:href="#XMLID_230_"  overflow="visible"/>
		</clipPath>
	</g>
	<g>
		<defs>
			<path id="XMLID_229_" d="M169.943,79.228c9.378-0.512,13.763,3.613,20.589,8.537c8.943,6.453,18.378-4.714,15.152-10.837
				c10.092,3.416,10.092,17.999,0.981,22.677c1.423-0.568,6.146-1.88,5.508-1.024c-3.264,5.927-10.25,5.542-10.25,5.542
				s4.938,0.611,3.794,1.122c-9.35,4.958-19.564-0.357-25.701-9.434c-0.955-1.403-1.979-3.254-2.715-4.735
				c-2.764-5.611-5.332-4.608-13.518-5.716C153.25,83.928,167.77,79.354,169.943,79.228z"/>
		</defs>
		<use xlink:href="#XMLID_229_"  overflow="visible" fill="#FFFFFF"/>
		<clipPath id="XMLID_14_">
			<use xlink:href="#XMLID_229_"  overflow="visible"/>
		</clipPath>
		<path clip-path="url(#XMLID_14_)" d="M176.062,84.096c9.075-0.245,12.198,12.697,22.719,9.771
			c-0.447,1.746-1.626,3.093-4.208,3.612c7.465,0.898,14.084-5.387,14.927-8.137c0.842,3.086-1.233,6.629-1.233,6.629
			s5.113-2.483,5.558-7.808c0.25-2.995,2.522,20.635,2.522,20.635l-41.078,3.773l-3.03-27.158L176.062,84.096"/>
		<path clip-path="url(#XMLID_14_)" fill="#FFFFFF" d="M176.558,90.676c0,0,9.989,18.124,29.014,15.186
			c1.01,6.297-15.769,5.315-15.769,5.315l-11.835-11.003L176.558,90.676z"/>
	</g>
	<path d="M160.129,86.762c-3.725,4.097-3.457,12.948,2.371,19.528c-4.721,4.228-21.091,3.955-25.378,1.367
		c3.711-8.199,11.238-6.375,11.238-6.375s-11.006-7.835-1.647-16.905C150.407,85.983,154.792,87.189,160.129,86.762z"/>
	<g>
		<defs>
			<path id="XMLID_227_" d="M159.97,85.303c-7.002,8.396-0.316,16.835,2.165,20.559c-3.997,3.498-19.274,3.569-23.554,0.982
				c4.399-6.685,12.563-4.363,12.563-4.363s-11.959-7.253-4.278-18.336C150.787,77.51,166.977,76.899,159.97,85.303z"/>
		</defs>
		<use xlink:href="#XMLID_227_"  overflow="visible" fill="#FFFFFF"/>
		<clipPath id="XMLID_15_">
			<use xlink:href="#XMLID_227_"  overflow="visible"/>
		</clipPath>
		<path clip-path="url(#XMLID_15_)" d="M159.97,96.308c-9.533,3.761-16.619-3.479-18.14-5.61l2.307-11.448l14.85,1.761
			C158.986,81.01,168.436,92.969,159.97,96.308z"/>
		<g clip-path="url(#XMLID_15_)">
			<defs>
				<path id="XMLID_228_" d="M159.834,95.516c-8.803,2.314-17.914-2.911-17.906-2.911l2.091-14.029l17.459-0.779
					C161.478,77.797,168.639,93.194,159.834,95.516z"/>
			</defs>
			<use xlink:href="#XMLID_228_"  overflow="visible" fill="#EF2A25"/>
			<clipPath id="XMLID_16_">
				<use xlink:href="#XMLID_228_"  overflow="visible"/>
			</clipPath>
		</g>
		<polyline clip-path="url(#XMLID_15_)" points="170.765,79.579 172.481,96.939 164.19,94.456 160.271,98.686 157.835,89.854 
			162.22,84.889 		"/>
		<path clip-path="url(#XMLID_15_)" fill="#FFFFFF" d="M145.449,87.134c-1.34,7.484,3.983,14.07,3.983,14.07l-7.87-2.398
			l0.154-9.175C141.717,89.63,146.78,79.67,145.449,87.134z"/>
		<path opacity="0.3" clip-path="url(#XMLID_15_)" d="M152.596,93.488c0,0-1.753,4.868,2.792,9.75
			c-11.896-1.957-15.214,7.483-15.214,7.483l30.548,0.168L162.5,87.716L152.596,93.488z"/>
	</g>
	<path fill="#020000" d="M144.137,108.617l0.969,0.182c0.583-0.891,2.44-3.225,6.208-3.912
		C146.908,104.915,144.635,107.88,144.137,108.617z"/>
	<path fill="#020000" d="M140.174,107.887l0.968,0.183c0.583-0.891,1.964-3.73,5.73-4.418
		C142.103,104.214,140.672,107.151,140.174,107.887z"/>
	<g>
		<path fill="#FFFFFF" d="M148.324,66.048c1.985-3.514,3.647-0.505,2.961,0.842c-0.688,1.347-2.209,9.834-2.209,9.834
			s-1.502-1.698-2.764,1.149c-1.256,2.849-3.691,0.66-2.52-1.325c1.171-1.993,1.656-8.067,1.656-8.067
			S146.338,69.563,148.324,66.048z"/>
		<path fill="#020000" d="M152.092,76.822c2.687-2.329,2.973-6.397,0.645-9.083c-0.308-0.365-0.652-0.674-1.017-0.947
			c0.35-0.66,0.281-1.494-0.237-2.09c-0.675-0.779-1.854-0.863-2.632-0.19c-0.316,0.274-0.519,0.631-0.604,1.017
			c-1.619-0.098-3.275,0.414-4.595,1.564c-2.687,2.322-2.98,6.39-0.65,9.076c0.118,0.134,0.231,0.26,0.357,0.379
			c-0.483,0.687-0.457,1.634,0.113,2.293c0.673,0.779,1.85,0.863,2.63,0.189c0.245-0.21,0.421-0.478,0.526-0.757
			C148.506,78.646,150.527,78.169,152.092,76.822z M145.63,78.485c-0.476,0.421-1.198,0.365-1.611-0.112
			c-0.414-0.478-0.367-1.2,0.111-1.613c0.267-0.232,0.611-0.316,0.935-0.267l1.228-5.688l0.574,1.129l0.863-3.395l0.555,1.15
			l1.255-2.764c-0.125-0.063-0.238-0.147-0.328-0.259c-0.416-0.477-0.367-1.2,0.11-1.613c0.478-0.414,1.2-0.358,1.613,0.112
			c0.413,0.484,0.364,1.2-0.112,1.613c-0.245,0.218-0.561,0.309-0.861,0.281l-1.102,6.853l-0.617-1.213l-0.919,2.904l-0.604-0.975
			l-1.194,2.055c0.079,0.049,0.156,0.112,0.218,0.189C146.156,77.355,146.109,78.071,145.63,78.485z"/>
	</g>
	<path d="M140.04,69.535c-7.877,19.998,10.418,27.356,23.163,24.746c12.008-2.461,24.509-16.112,6.65-28.92
		c2.656-12.458-11.751-11.167-16.38-10.894C148.843,54.741,135.348,59.279,140.04,69.535z"/>
	<g>
		<defs>
			<path id="XMLID_226_" d="M141.176,69.688c-7.89,19.093,9.997,25.715,21.655,23.33c11.658-2.377,23.289-14.652,5.738-27.482
				c2.715-11.651-10.48-10.549-14.97-10.29C149.11,55.52,136.316,59.854,141.176,69.688z"/>
		</defs>
		<use xlink:href="#XMLID_226_"  overflow="visible" fill="#EF2A25"/>
		<clipPath id="XMLID_17_">
			<use xlink:href="#XMLID_226_"  overflow="visible"/>
		</clipPath>
		<path clip-path="url(#XMLID_17_)" fill="#FFFFFF" d="M142.614,58.753c0,0-2.657,7.436-0.904,11.048
			c-3.977,7.435,2.835,20.047,2.835,20.047l-10.004-0.919l0.807-26.023L142.614,58.753z"/>
		<path clip-path="url(#XMLID_17_)" fill="#FFFFFF" d="M176.95,73.63c1.123,6.454-2.638,13.804-2.638,13.804l4.714-1.157
			C179.026,86.278,180.262,75.931,176.95,73.63z"/>
		<path opacity="0.3" clip-path="url(#XMLID_17_)" d="M165.53,71.084c2.785,7.877,12.486,8.158,12.486,8.158l-0.195-3.752
			L165.53,71.084"/>
		<path opacity="0.3" clip-path="url(#XMLID_17_)" d="M168.905,58.542l-5.121,1.971c0,0-4.446,24.487-17.703,7.092
			c-0.267-10.747-0.267-10.747-0.267-10.747l20.846-1.557L168.905,58.542z"/>
	</g>
	<g>
		<path fill="#FFFFFF" d="M148.444,66.28c1.865-3.304,3.43-0.477,2.784,0.792c-0.645,1.262-2.077,9.238-2.077,9.238
			s-1.416-1.6-2.602,1.08c-1.177,2.68-3.463,0.624-2.363-1.249c1.102-1.866,1.557-7.576,1.557-7.576S146.577,69.583,148.444,66.28z"
			/>
		<path fill="#020000" d="M151.979,76.401c2.524-2.188,2.799-6.011,0.61-8.536c-0.288-0.337-0.61-0.632-0.955-0.892
			c0.329-0.617,0.261-1.402-0.224-1.963c-0.632-0.729-1.741-0.807-2.471-0.175c-0.301,0.259-0.489,0.596-0.566,0.954
			c-1.522-0.091-3.08,0.386-4.322,1.466c-2.525,2.196-2.797,6.011-0.609,8.537c0.104,0.125,0.216,0.245,0.336,0.35
			c-0.457,0.646-0.429,1.543,0.105,2.161c0.631,0.729,1.739,0.814,2.468,0.175c0.231-0.196,0.393-0.442,0.499-0.708
			C148.612,78.113,150.521,77.671,151.979,76.401z M145.912,77.966c-0.449,0.393-1.13,0.344-1.515-0.105
			c-0.393-0.449-0.344-1.13,0.105-1.522c0.252-0.21,0.575-0.287,0.876-0.245l1.15-5.345l0.547,1.059l0.807-3.191l0.519,1.086
			l1.179-2.595c-0.112-0.063-0.218-0.147-0.309-0.246c-0.385-0.449-0.336-1.129,0.112-1.522c0.449-0.386,1.121-0.337,1.516,0.113
			c0.386,0.448,0.342,1.129-0.112,1.515c-0.231,0.204-0.526,0.288-0.807,0.26l-1.032,6.439l-0.588-1.137l-0.863,2.721l-0.56-0.911
			l-1.123,1.929c0.077,0.049,0.147,0.112,0.21,0.182C146.41,76.899,146.359,77.58,145.912,77.966z"/>
	</g>
	<path fill="#EF2A25" d="M158.454,59.181"/>
	<path d="M121.237,39.758c-5.198-9.083-11.258-9.498-11.258-9.498S117.336,33.508,121.237,39.758z"/>
	<g>
		<g>
			<path d="M174.207,88.564c-3.878,4.258-2.979,13.243,3.08,20.087c-4.911,4.398-22.552,4.329-26.999,1.634
				c3.851-8.521,10.234-6.634,10.234-6.634s-9.834-8.866,0.184-17.374C164.557,87.947,168.659,89.006,174.207,88.564z"/>
			<g>
				<defs>
					<path id="XMLID_224_" d="M174.038,87.042c-7.356,7.744-1.521,17.157,1.061,21.028c-4.153,3.64-18.847,4.061-23.303,1.368
						c4.581-6.95,11.287-4.846,11.287-4.846s-10.654-7.224-2.666-18.749C164.493,78.94,177.623,80.196,174.038,87.042z"/>
				</defs>
				<use xlink:href="#XMLID_224_"  overflow="visible" fill="#FFFFFF"/>
				<clipPath id="XMLID_18_">
					<use xlink:href="#XMLID_224_"  overflow="visible"/>
				</clipPath>
				<path clip-path="url(#XMLID_18_)" d="M173.247,95.929c-7.935,5.793-17.354,0.568-18.932-1.648l3.261-13.531l15.446,1.831
					C173.022,82.581,180.892,90.346,173.247,95.929z"/>
				<g clip-path="url(#XMLID_18_)">
					<defs>
						<path id="XMLID_225_" d="M173.696,95.929c-9.034,3.339-18.075,0-18.075,0l1.836-15.88l18.146-0.807
							C175.603,79.242,182.576,92.646,173.696,95.929z"/>
					</defs>
					<use xlink:href="#XMLID_225_"  overflow="visible" fill="#EF2A25"/>
					<clipPath id="XMLID_19_">
						<use xlink:href="#XMLID_225_"  overflow="visible"/>
					</clipPath>
				</g>
				<path clip-path="url(#XMLID_18_)" fill="#FFFFFF" d="M158.383,89.09c-1.388,7.779,3.752,15.306,3.752,15.306l-7.23-3.465
					l0.154-9.54C155.059,91.391,159.771,81.325,158.383,89.09z"/>
			</g>
		</g>
		<path fill="#020000" d="M156.89,111.395l1.002,0.189c0.604-0.926,2.532-3.353,6.455-4.068
			C159.767,107.544,157.408,110.63,156.89,111.395z"/>
		<path fill="#020000" d="M152.884,110.806l1.011,0.098c0.532-0.975,2.253-3.549,6.096-4.593
			C155.431,106.725,153.333,109.992,152.884,110.806z"/>
	</g>
	<polygon fill="#EF2A25" points="176.444,80.14 175.268,83.339 174.552,85.709 164.662,87.716 159.351,87.547 157.029,85.19 
		163.699,60.683 167.747,58.704 167.188,60.31 165.784,63.243 165.228,77.033 	"/>
	<path d="M186.574,62.969c0,0-15.564-2.813-22.3-1.578c-0.883,0.161-0.624,2.96-0.827,3.767
		c-2.694,11.468,31.21,16.918,32.929,5.779c4.733-4.685,2.271-8.684-4.153-5.556c1.76-1.325,2.546-4.292-0.386-4.734
		C188.406,60.128,186.574,62.969,186.574,62.969z"/>
	<g>
		<defs>
			<path id="XMLID_223_" d="M187.226,63.796c0,0-16.938-1.964-22.951-2.406c-0.827-0.056-1.508,6.404-1.228,7.084
				c2.127,5.815,30.838,13.012,32.556,1.873c4.734-4.686,0.416-6.649-6.011-3.521c1.762-1.326,4.812-4.637,1.93-5.317
				C188.4,60.773,187.226,63.796,187.226,63.796z"/>
		</defs>
		<use xlink:href="#XMLID_223_"  overflow="visible" fill="#FFFFFF"/>
		<clipPath id="XMLID_20_">
			<use xlink:href="#XMLID_223_"  overflow="visible"/>
		</clipPath>
		<path clip-path="url(#XMLID_20_)" fill="#D6D6D6" d="M197.786,71.33c-24.139,9.427-36.17-6.474-36.17-6.474l1.102,12.408
			l35.726,4.32C198.443,81.584,221.925,61.902,197.786,71.33z"/>
		<path clip-path="url(#XMLID_20_)" d="M173.478,60.247c-3.871,3.213-3.311,15.123-3.311,15.123l-8.921-2.813l2.636-12.991
			C163.882,59.566,178.6,55.997,173.478,60.247z"/>
		<path clip-path="url(#XMLID_20_)" fill="#EF2A25" d="M173.983,60.247c-7.562,3.851-3.696,15.298-3.696,15.298l-9.765-3.928
			l2.638-12.991C163.16,58.627,179.912,57.224,173.983,60.247z"/>
		<path clip-path="url(#XMLID_20_)" fill="#EF2A25" d="M164.725,60.051l20.313,2.364L164.725,60.051z"/>
		<path clip-path="url(#XMLID_20_)" fill="#FFFFFF" d="M166.127,61.054c4.903,3.97,17.825,1.691,17.825,1.691
			S161.218,57.091,166.127,61.054z"/>
	</g>
	<path d="M189.228,67.065c0,0,0.526,1.347-1.102,4.265C191.156,69.422,189.228,67.065,189.228,67.065L189.228,67.065z"/>
	<path d="M195.603,70.348c0.386-1.669-3.94,0.421-4.642,0.589c0.604-2.013,1.136-0.891,1.136-0.891s3.851-2.448,4.397-0.68
		C197.161,70.088,195.218,72.017,195.603,70.348z"/>
	<path d="M191.534,69.197c4.897-4.489,6.889,0.449,6.069-2.02c-0.64-1.929-3.979-0.386-5.409,0.982
		C191.886,66.672,191.534,68.917,191.534,69.197z"/>
	<polygon fill="#EF2A25" points="165.117,61.973 164.107,61.054 163.764,61.054 161.511,69.527 165.004,72.627 165.79,70.32 	"/>
	<polygon fill="#A52121" points="163,58.767 169.101,56.067 171.359,58.515 166.856,59.272 	"/>
	<path d="M170.028,58.339c1.829,0.772-6.329,2.344-6.329,2.344S166.779,57.904,170.028,58.339z"/>
	<path d="M116.375,43.567c-2.602-0.786-6.045,0.217-6.045,0.217S118.979,44.353,116.375,43.567z"/>
	<path d="M149.519,19.304c6.529-3.57,5.183-12.143-3.18-10.705c-9.861,1.698-8.43,10.585-0.419,10.964
		C153.438,19.914,144.432,22.095,149.519,19.304z"/>
	<path fill="#FFFFFF" d="M149.328,19.227c5.239-2.995,4.39-10.739-3.074-9.595c-7.47,1.143-7.223,6.986-1.421,10.058
		C146.957,20.096,148.563,19.669,149.328,19.227z"/>
	<path d="M148.683,19.402c4.258-2.35,3.689-8.066-2.188-6.937c-5.872,1.137-5.702,7.078-0.457,7.428
		C146.747,19.936,147.532,20.041,148.683,19.402z"/>
	<path d="M131.981,41.294c0.483-5.682,0.575-14.906,6.222-19.957c10.851-8.354,29.812-5.057,37.099,2.792
		c7.289,7.842,3.444,12.065,3.444,12.065l-10.207,13.117l-31.838,4.826C136.701,54.138,131.504,46.969,131.981,41.294z"/>
	<path d="M132.514,41.294c0.478-5.682,1.038-14.723,6.684-19.773c10.852-8.354,29.279-3.921,36.568,3.928
		c7.288,7.842,1.991,13.615,1.991,13.615l-8.494,10.248l-31.839,4.826C137.423,54.138,132.03,46.969,132.514,41.294z"/>
	<path fill="#474747" d="M160.137,44.542c1.494-3.269,3.27-15.53-3.647-15.937c-7.59-0.442-8.15,13.488-8.15,13.488
		s-3.031,0.352-3.031,4.75C145.316,51.844,158.649,47.811,160.137,44.542z"/>
	<path fill="#474747" d="M133.588,43.293c0,0-1.109-18.525,4.551-17.102c5.353,1.347,3.016,15.103,3.016,15.103l-5.5,1.999H133.588z
		"/>
	<path fill="#FFFFFF" d="M133.91,43.293h2.062l0.105-0.049l0.701-0.28l3.382-1.375c0,0,0.526-2.435,0.743-5.31
		c0.049-0.611,0.084-1.25,0.092-1.887c0.063-3.255-0.464-6.523-2.666-7.183C133.146,25.659,133.91,43.293,133.91,43.293z"/>
	<path d="M135.565,42.746c-2.693-0.203-4.188-13.243-12.764-6.572c2.581-0.183,3.802,0.667,3.802,0.667s-2.441,1.08-1.902,4.623
		C125.242,45.005,138.266,42.949,135.565,42.746z"/>
	<path fill="#FFFFFF" d="M134.998,42.858c-2.7-0.204-3.921-10.325-10.134-7.281c2.264,0.224,3.444,1.438,3.444,1.438
		s-3.479,0.905-2.947,4.448C125.909,45.005,137.692,43.055,134.998,42.858z"/>
	<path d="M136.077,43.244l0.701-0.28l3.382-1.375c0,0,0.526-2.435,0.743-5.31c0.049-0.611,0.084-1.25,0.092-1.887
		c-0.436-0.716-1.009-1.2-1.685-1.326c-1.795-0.351-3.583,1.978-3.991,5.184C135.067,40.2,135.383,42.03,136.077,43.244z"/>
	<path d="M137.325,45.833c12.304-1.242,7.703-23.05,20.489-27.363c4.287-1.445,10.58-0.639,12.808-0.225
		c-2.523-3.5-5.939-4.04-8.739-3.746c1.257-0.4,1.894-0.253,2.826-0.477c-5.968-4.504-17.823-3.424-22.059,9.624
		c-2.561,8.858,1.641,21.4-11.706,18.076C115.521,37.878,125.024,47.067,137.325,45.833z"/>
	<path fill="#FFFFFF" d="M145.709,47.559c0.09,5.008,12.416,0.722,13.824-2.554c0.12-0.273,0.246-0.617,0.364-1.01
		c0.079-0.225,0.147-0.47,0.211-0.722c0.388-1.445,0.724-3.346,0.809-5.261c0.013-0.462,0.021-0.919,0.006-1.375l0,0
		c-0.091-3.528-1.215-6.762-4.608-6.993c-6.545-0.442-7.505,12.935-7.505,12.935S145.624,42.563,145.709,47.559z"/>
	<path d="M151.476,46.26c1.436,0.323,2.979-0.688,3.983-2.441c1.22-1.795,1.297-3.921,0.827-6.614c0,0-0.105-0.246-0.139-0.288
		c-0.437-1.144-1.188-1.937-2.196-2.154c-1.544-0.323-3.192,0.863-4.202,2.841c-0.105,0.104-0.141,0.21-0.211,0.357
		c-0.182,0.428-0.364,0.933-0.47,1.438c0,0.035-0.036,0.105-0.036,0.141c-0.034,0.07-0.034,0.112-0.034,0.182
		C148.311,42.879,149.426,45.825,151.476,46.26z"/>
	<path d="M138.504,50.414c15.213-16.021,27.019,0.954,36.111-14.212c0.126,1.354,0.498,2.96-0.709,5.093
		c4.37-3.64,5.675-10.171,5.675-10.171s3.136,8.375-2.027,14.829c8.017-0.702,7.105,8.276,7.105,8.276s-0.687-0.386-3.149-1.697
		c2.442,3.227,0.891,5.766,0.085,7.372c-10.487-9.806-21.023,3.718-35.282,4.616c-1.151,0.07,2.425-6.994,1.22-7.106
		c-3.745-0.35-8.895,3.255-16.821,2.477c-4.34-0.498-10.008-3.774-10.239-9.322C117.555,43.146,131.715,48.603,138.504,50.414z"/>
	<path fill="#FFFFFF" d="M121.334,50.357c0.063,0.498,0.162,0.975,0.302,1.431c0.351,1.171,0.954,2.181,1.705,3.064
		c2.042,2.4,5.178,3.781,7.426,4.245c0.084,0.049,0.162,0.098,0.245,0.147c6.713,1.48,12.213-1.551,12.213-1.551
		s-0.077,2.912,0.336,5.535c15.817,0.681,26.508-14.793,37.984-4.531c0.799-1.606,1.002-5.625-4.021-7.435
		c3.515-0.351,6.427,1.866,6.427,1.866s-0.071-1.172-0.583-2.484c-0.829-2.125-2.335-4.874-7.451-3.191
		c5.073-7.737,3.509-13.959,3.565-14.92c-5.1,22.032-25.406,2.462-40.627,18.483C132.072,49.207,118.417,42.928,121.334,50.357z"/>
	<path fill="#D6D6D6" d="M121.636,51.788c0.351,1.171,0.954,2.181,1.705,3.064c3.648,2.315,11.04,3.431,12.505,0.281
		c0.442-0.645,0.701-0.919,0.758-0.982C136.365,54.348,132.08,57.862,121.636,51.788z"/>
	<path fill="#FFFFFF" d="M136.925,45.523c2.737-0.28,4.651-1.676,6.097-3.704c2.679-3.738,3.809-9.595,5.738-14.462
		c1.731-4.371,3.661-7.991,8.17-9.442c4.58-1.466,8.65-1.235,12.17-0.435c-4.292-3.795-10.226-1.81-11.368-1.712
		c1.233-1.08,3.408-1.718,5.014-2.16c-2.245-1.838-14.14-3.248-19.338,9.245c-1.95,5.386-0.876,13.04-3.157,17.108
		c-1.395,2.49-4.048,3.633-9.42,2.104C115.548,37.688,124.624,46.758,136.925,45.523z"/>
	<path d="M140.117,48.147c0.457,2.539-2.995,7.224-6.326,7.639c-3.332,0.414-11.376-2.743-13.291-5.001
		c-2.483-2.953-1.669-9.35,0.12-10.15C125.103,38.917,139.277,43.469,140.117,48.147z"/>
	<path fill="#FFFFFF" d="M139.157,48.421c0.429,2.392-2.427,6.236-5.568,6.628c-3.136,0.393-10.872-2.371-12.639-4.531
		c-1.768-2.161-1.572-8.102,0.113-8.853C125.285,40.045,138.363,44.016,139.157,48.421z"/>
	<path d="M135.938,48.961c0.342,1.908-1.931,5.106-4.434,5.422c-2.495,0.309-8.563-2.034-9.973-3.745
		c-1.403-1.719-1.34-6.454,0-7.057C124.892,42.291,135.306,45.461,135.938,48.961z"/>
	<path fill="#FFFFFF" d="M128.208,46.52c-0.09,0.856,1.207,1.698,2.896,1.874c1.697,0.182,3.143-0.372,3.226-1.228
		c0.092-0.855-1.206-1.697-2.897-1.88C129.737,45.11,128.293,45.665,128.208,46.52z"/>
	<path d="M174.607,26.508c-1.811-8.648,7.92-13.523,12.499-4.622c4.584,8.887-3.185,16.252-9.75,8.641
		C171.549,23.807,176.011,33.2,174.607,26.508z"/>
	<path fill="#FFFFFF" d="M174.973,26.473c-0.912-7.056,6.972-11.784,11.215-3.942c4.247,7.834-1.424,11.77-8.451,8.501
		C175.836,29.321,175.106,27.504,174.973,26.473z"/>
	<path d="M175.26,27.209c-0.813-5.688,4.966-9.224,8.089-2.89c3.113,6.327-2.638,10.402-6.706,5.717
		C176.095,29.398,175.484,28.739,175.26,27.209z"/>
	<path fill="#FFFFFF" d="M149.033,39.541c0.288,0.182,0.611,0.288,0.933,0.399c1.256,0.358,2.406,0.175,2.555-0.435
		c0.175-0.61-0.688-1.36-1.91-1.761c-0.322-0.069-0.609-0.14-0.861-0.14c-0.105,0.104-0.141,0.21-0.211,0.357
		c-0.182,0.428-0.364,0.933-0.47,1.438C149.068,39.436,149.033,39.505,149.033,39.541z"/>
	<path fill="#FFFFFF" d="M134.184,36.699c-0.146,0.491,0.568,1.137,1.593,1.438c1.017,0.295,1.962,0.141,2.111-0.358
		c0.139-0.49-0.568-1.135-1.593-1.437C135.271,36.047,134.323,36.209,134.184,36.699z"/>
	<path fill="#D6D6D6" d="M144.691,63.243c15.201-0.056,25.652-14.562,36.854-4.546c0.799-1.606,1.002-5.625-4.021-7.435
		c3.515-0.351,6.427,1.866,6.427,1.866s-0.071-1.172-0.583-2.484c-2.764-1.017-6.123-1.746-8.817-0.792
		c3.521,2.097,5.121,6.264,4.559,5.506c-10.354-6.783-23.106,7.758-34.84,6.019C143.492,61.461,143.703,62.66,144.691,63.243z"/>
	<path fill="#6D6D6D" d="M129.654,58.339c0,0-1.509-1.41-2.217-3.311C127.326,57.638,129.654,58.339,129.654,58.339z"/>
	<path d="M147.532,46.772c12.92-3.283,19.655,0.484,19.655,0.484S156.771,44.731,147.532,46.772z"/>
	<path d="M146.212,50.026c5.738-3.836,13.077-1.381,13.077-1.381S151.241,47.559,146.212,50.026z"/>
	<path d="M162.746,18.238"/>
	<path d="M163.203,57.077c-3.03,19.303-20.484,21.66-20.862,1.262c0.113-0.785,2.546-0.96,2.546-0.96S165.055,48.947,163.203,57.077
		z"/>
	<g>
		<defs>
			<path id="XMLID_222_" d="M163.105,55.414c-4.651,20.742-19.77,21.078-19.88,2.279c0.111-0.785,1.662-1.01,1.662-1.01
				S164.675,48.288,163.105,55.414z"/>
		</defs>
		<use xlink:href="#XMLID_222_"  overflow="visible" fill="#FFFFFF"/>
		<clipPath id="XMLID_21_">
			<use xlink:href="#XMLID_222_"  overflow="visible"/>
		</clipPath>
		<polygon clip-path="url(#XMLID_21_)" fill="#D6D6D6" points="140.903,63.243 146.78,60.31 144.887,56.684 141.003,58.339 		"/>
	</g>
	<path d="M163.203,50.735c0,0-5.838,18.237-11.392,17.732c-5.558-0.505-7.633-11.391-7.633-11.391s2.975-1.291,5.389-5.556
		C154.057,49.445,163.203,50.735,163.203,50.735z"/>
	<path fill="#AF4343" d="M149.104,65.726c0,0,0.147,0.175,0.356,0.428c1.045,1.08,4.168,3.051,8.334-5.85
		c-0.575-0.217-1.15-0.365-1.646-0.435C150.61,59.005,149.104,65.726,149.104,65.726z"/>
	<path d="M129.898,58.887c0,0,12.787,3.528,18.713-7.576c7.392-3.241,16.827-0.764,18.576,0.478c-9.085-1.431-11.33-1.221-17.677,0
		c-6.846,11.742-19.856,7.926-19.856,7.926L129.898,58.887z"/>
	<path fill="#F24C4C" d="M149.104,65.726c0,0,0.147,0.175,0.356,0.428c0.322,0.07,0.689,0.112,1.045,0.112
		c3.192,0,5.781-2.336,5.781-5.212c0-0.393-0.034-0.792-0.139-1.185C150.61,59.005,149.104,65.726,149.104,65.726z"/>
	<path d="M155.516,60.31c-3.2,0.133-4.603,4.209-4.603,4.209S153.157,61.791,155.516,60.31z"/>
	<path d="M54.747,53.794c-8.192-0.617-6.383,16.456-17.578,7.961C34.384,73.645,47.2,74.5,47.2,74.5l8.515-13.685l0.891-5.893
		C56.606,54.923,61.741,54.313,54.747,53.794z"/>
	<path fill="#EF2A25" d="M55.287,54.061c-6.993-0.491-6.938,16.162-17.452,8.586c-1.438,10.059,10.403,10.731,10.403,10.731
		l8.761-12.563l0.891-5.893C57.889,54.923,62.287,54.552,55.287,54.061z"/>
	<path opacity="0.2" d="M100.775,107.873c0,2.203-22.558,3.992-50.384,3.992C22.559,111.865,0,110.076,0,107.873
		c0-2.201,22.559-3.989,50.391-3.989C78.217,103.884,100.775,105.672,100.775,107.873z"/>
	<path fill="#FFDD50" d="M116.999,68.973v9.183c0,1.746-1.409,3.149-3.148,3.149H90.773c-1.74,0-3.149-1.403-3.149-3.149v-9.183
		c0-1.739,1.409-3.149,3.149-3.149h1.781l0.119-2.637v-0.015l0.007-0.168c0.056-0.308,0.33-0.546,0.653-0.546
		c0.161,0,0.309,0.056,0.427,0.147l3.88,3.22h16.21C115.59,65.824,116.999,67.233,116.999,68.973z"/>
	<g>
		<text transform="matrix(1 0 0 1 93.0586 75.4814)" fill="#AA8231" font-family="'MyriadPro-Regular'" font-size="29.8126">...</text>
	</g>
	<g>
		<defs>
			<path id="XMLID_221_" d="M52.615,76.991c-9.386-0.513-14.836,3.037-21.661,7.954c-8.944,6.454-16.471-5.176-13.243-11.3
				c-12.815,2.56-12.625,18.51-6.874,22.796c-1.424-0.568-2.588-0.197-2.504,0.281c1.858,4.868,6.88,6.18,6.88,6.18
				s-2.497,0.035-0.469,1.375c9.35,4.957,19.269,3.189,26.872-7.793c0.968-1.396,2.519-4.069,3.255-5.556
				c3.037-6.166,3.759-3.872,11.615-4.938C67.03,84.56,54.783,77.117,52.615,76.991z"/>
		</defs>
		<use xlink:href="#XMLID_221_"  overflow="visible"/>
		<clipPath id="XMLID_22_">
			<use xlink:href="#XMLID_221_"  overflow="visible"/>
		</clipPath>
	</g>
	<g>
		<defs>
			<path id="XMLID_220_" d="M51.773,77.895c-9.385-0.512-13.77,3.62-20.594,8.537c-8.943,6.453-18.378-4.713-15.152-10.837
				C5.941,79.018,5.941,93.593,15.045,98.272c-1.423-0.569-6.137-1.88-5.499-1.017c3.254,5.926,10.249,5.534,10.249,5.534
				s-4.938,0.61-3.803,1.122c9.35,4.965,19.563-0.357,25.701-9.427c0.954-1.41,1.978-3.255,2.715-4.742
				c2.763-5.604,5.337-4.602,13.517-5.717C68.468,82.595,53.94,78.021,51.773,77.895z"/>
		</defs>
		<use xlink:href="#XMLID_220_"  overflow="visible" fill="#FFFFFF"/>
		<clipPath id="XMLID_23_">
			<use xlink:href="#XMLID_220_"  overflow="visible"/>
		</clipPath>
		<path clip-path="url(#XMLID_23_)" d="M45.649,82.764c-9.077-0.238-12.198,12.703-22.72,9.778c0.449,1.747,1.628,3.093,4.209,3.605
			c-7.464,0.898-14.085-5.387-14.926-8.137c-0.842,3.087,1.234,6.629,1.234,6.629s-5.113-2.483-5.555-7.807
			c-0.252-2.988-2.526,20.635-2.526,20.635l41.077,3.774l3.031-27.158L45.649,82.764"/>
		<path clip-path="url(#XMLID_23_)" fill="#FFFFFF" d="M45.151,89.343c0,0-9.988,18.124-29.012,15.186
			c-1.01,6.297,15.769,5.316,15.769,5.316l11.833-11.004L45.151,89.343z"/>
	</g>
	<path d="M61.579,85.436c3.732,4.09,3.458,12.942-2.37,19.529c4.728,4.227,21.091,3.954,25.378,1.36
		c-3.704-8.192-11.238-6.376-11.238-6.376s11.006-7.828,1.648-16.897C71.302,84.657,66.917,85.856,61.579,85.436z"/>
	<g>
		<defs>
			<path id="XMLID_218_" d="M61.741,83.97c7,8.403,0.323,16.835-2.161,20.559c3.992,3.506,19.269,3.569,23.548,0.982
				c-4.398-6.685-12.563-4.363-12.563-4.363s11.96-7.246,4.278-18.329C70.923,76.184,54.74,75.574,61.741,83.97z"/>
		</defs>
		<use xlink:href="#XMLID_218_"  overflow="visible" fill="#FFFFFF"/>
		<clipPath id="XMLID_24_">
			<use xlink:href="#XMLID_218_"  overflow="visible"/>
		</clipPath>
		<path clip-path="url(#XMLID_24_)" d="M61.741,94.975c9.54,3.76,16.617-3.479,18.14-5.612l-2.301-11.447l-14.857,1.768
			C62.722,79.684,53.274,91.637,61.741,94.975z"/>
		<g clip-path="url(#XMLID_24_)">
			<defs>
				<path id="XMLID_219_" d="M61.874,94.183c8.804,2.322,17.915-2.904,17.907-2.904l-2.089-14.036l-17.459-0.778
					C60.232,76.465,53.071,91.861,61.874,94.183z"/>
			</defs>
			<use xlink:href="#XMLID_219_"  overflow="visible" fill="#EF2A25"/>
			<clipPath id="XMLID_25_">
				<use xlink:href="#XMLID_219_"  overflow="visible"/>
			</clipPath>
		</g>
		<polyline clip-path="url(#XMLID_24_)" points="50.953,78.246 49.234,95.613 57.517,93.131 61.438,97.354 63.873,88.53 
			59.489,83.556 		"/>
		<path clip-path="url(#XMLID_24_)" fill="#FFFFFF" d="M76.26,85.801c1.34,7.484-3.977,14.07-3.977,14.07l7.864-2.399l-0.155-9.175
			C79.992,88.298,74.927,78.337,76.26,85.801z"/>
		<path opacity="0.3" clip-path="url(#XMLID_24_)" d="M69.113,92.155c0,0,1.76,4.868-2.792,9.757
			c11.896-1.963,15.214,7.477,15.214,7.477l-30.547,0.168l8.221-23.174L69.113,92.155z"/>
	</g>
	<path fill="#020000" d="M77.573,107.291l-0.969,0.175c-0.582-0.89-2.434-3.218-6.208-3.912
		C74.801,103.589,77.074,106.549,77.573,107.291z"/>
	<path fill="#020000" d="M81.535,106.563l-0.961,0.175c-0.582-0.891-1.971-3.724-5.737-4.419
		C79.606,102.881,81.037,105.82,81.535,106.563z"/>
	<g>
		<g>
			<path fill="#FFFFFF" d="M73.385,64.723c-1.985-3.515-3.641-0.505-2.96,0.834c0.688,1.354,2.209,9.841,2.209,9.841
				s1.507-1.704,2.764,1.143c1.262,2.855,3.69,0.667,2.518-1.318c-1.172-1.992-1.656-8.066-1.656-8.066S75.377,68.236,73.385,64.723
				z"/>
			<path fill="#020000" d="M75.082,76.949c0.105,0.28,0.281,0.54,0.526,0.758c0.778,0.666,1.958,0.582,2.631-0.19
				c0.575-0.66,0.596-1.613,0.119-2.294c0.119-0.119,0.238-0.245,0.351-0.378c2.329-2.687,2.041-6.755-0.653-9.083
				c-1.318-1.151-2.974-1.655-4.594-1.564c-0.084-0.379-0.288-0.743-0.604-1.017c-0.771-0.673-1.957-0.589-2.631,0.189
				c-0.519,0.596-0.582,1.431-0.238,2.09c-0.365,0.273-0.702,0.589-1.018,0.947c-2.329,2.686-2.041,6.754,0.653,9.09
				C71.181,76.843,73.202,77.313,75.082,76.949z M75.966,75.545c0.063-0.077,0.14-0.14,0.217-0.196l-1.193-2.055l-0.596,0.982
				l-0.919-2.904l-0.624,1.213l-1.102-6.859c-0.301,0.035-0.61-0.057-0.863-0.273c-0.477-0.415-0.525-1.137-0.111-1.614
				s1.136-0.533,1.612-0.119c0.478,0.421,0.534,1.143,0.121,1.62c-0.099,0.105-0.21,0.196-0.331,0.26l1.256,2.764l0.555-1.151
				l0.854,3.395l0.583-1.129l1.228,5.688c0.314-0.056,0.659,0.029,0.925,0.267c0.477,0.407,0.534,1.129,0.119,1.613
				c-0.414,0.477-1.136,0.526-1.62,0.112C75.601,76.745,75.551,76.022,75.966,75.545z"/>
		</g>
		<path d="M81.668,68.202c7.877,19.997-10.409,27.355-23.161,24.746c-12.009-2.455-24.508-16.105-6.65-28.913
			C49.199,51.57,63.614,52.861,68.242,53.134C72.872,53.415,86.362,57.946,81.668,68.202z"/>
		<g>
			<defs>
				<path id="XMLID_217_" d="M80.532,68.355c7.898,19.094-9.996,25.715-21.653,23.337c-11.651-2.378-23.289-14.653-5.731-27.49
					C50.433,52.56,63.62,53.653,68.11,53.92C72.606,54.187,85.394,58.522,80.532,68.355z"/>
			</defs>
			<use xlink:href="#XMLID_217_"  overflow="visible" fill="#EF2A25"/>
			<clipPath id="XMLID_26_">
				<use xlink:href="#XMLID_217_"  overflow="visible"/>
			</clipPath>
			<path clip-path="url(#XMLID_26_)" fill="#FFFFFF" d="M79.094,57.428c0,0,2.659,7.435,0.905,11.047
				c3.977,7.435-2.834,20.04-2.834,20.04l10.003-0.912L86.362,61.58L79.094,57.428z"/>
			<path clip-path="url(#XMLID_26_)" fill="#FFFFFF" d="M44.759,72.298c-1.123,6.453,2.637,13.804,2.637,13.804l-4.713-1.157
				C42.683,84.945,41.448,74.599,44.759,72.298z"/>
			<polygon clip-path="url(#XMLID_26_)" points="192.02,66.777 170.519,60.072 169.178,71.876 192.649,74.697 204.287,67.731 
				195.757,68.167 			"/>
			<path opacity="0.3" clip-path="url(#XMLID_26_)" d="M52.671,57.006l5.12,1.971c0,0,4.448,24.488,17.705,7.091
				c4.665-11.973,0.266-10.746,0.266-10.746l-20.847-1.557L52.671,57.006z"/>
		</g>
		<g>
			<path fill="#FFFFFF" d="M73.265,64.954c-1.866-3.304-3.422-0.484-2.785,0.786c0.646,1.27,2.083,9.238,2.083,9.238
				s1.41-1.592,2.595,1.086c1.179,2.68,3.465,0.618,2.364-1.248c-1.101-1.873-1.557-7.575-1.557-7.575S75.138,68.251,73.265,64.954z
				"/>
			<path fill="#020000" d="M74.865,76.437c0.099,0.267,0.259,0.512,0.491,0.715c0.729,0.631,1.838,0.555,2.469-0.175
				c0.54-0.624,0.561-1.516,0.113-2.161c0.112-0.112,0.224-0.224,0.329-0.35c2.189-2.526,1.915-6.348-0.611-8.537
				c-1.241-1.08-2.797-1.557-4.32-1.473c-0.077-0.358-0.267-0.694-0.561-0.954c-0.729-0.631-1.838-0.554-2.476,0.182
				c-0.485,0.554-0.548,1.339-0.225,1.964c-0.344,0.252-0.66,0.547-0.955,0.891c-2.188,2.525-1.915,6.348,0.611,8.536
				C71.196,76.346,73.096,76.787,74.865,76.437z M75.693,75.125c0.063-0.078,0.126-0.133,0.203-0.183l-1.122-1.936l-0.561,0.919
				l-0.863-2.722L72.76,72.34l-1.031-6.44c-0.28,0.028-0.575-0.063-0.806-0.266c-0.45-0.386-0.498-1.066-0.113-1.515
				c0.393-0.449,1.074-0.498,1.522-0.105c0.449,0.385,0.492,1.066,0.105,1.515c-0.092,0.105-0.197,0.189-0.309,0.246l1.178,2.595
				l0.52-1.08l0.808,3.191l0.546-1.059l1.151,5.345c0.308-0.049,0.624,0.028,0.876,0.246c0.448,0.393,0.498,1.073,0.105,1.515
				c-0.387,0.449-1.066,0.498-1.515,0.112C75.348,76.247,75.3,75.574,75.693,75.125z"/>
		</g>
	</g>
	<path fill="#EF2A25" d="M63.256,57.855"/>
	<g>
		<g>
			<path d="M47.508,87.231c3.872,4.258,2.974,13.243-3.086,20.087c4.91,4.398,22.551,4.335,27.005,1.634
				c-3.857-8.514-10.241-6.634-10.241-6.634s9.834-8.866-0.182-17.375C57.161,86.622,53.05,87.674,47.508,87.231z"/>
			<g>
				<defs>
					<path id="XMLID_215_" d="M47.669,85.717c7.358,7.737,1.522,17.15-1.059,21.021c4.153,3.646,18.855,4.067,23.301,1.373
						c-4.58-6.95-11.278-4.852-11.278-4.852s10.648-7.225,2.665-18.742C57.216,77.615,44.085,78.864,47.669,85.717z"/>
				</defs>
				<use xlink:href="#XMLID_215_"  overflow="visible" fill="#FFFFFF"/>
				<clipPath id="XMLID_27_">
					<use xlink:href="#XMLID_215_"  overflow="visible"/>
				</clipPath>
				<path clip-path="url(#XMLID_27_)" d="M48.462,94.597c7.933,5.793,17.361,0.568,18.939-1.648l-3.262-13.531l-15.445,1.837
					C48.694,81.255,40.816,89.02,48.462,94.597z"/>
				<g clip-path="url(#XMLID_27_)">
					<defs>
						<path id="XMLID_216_" d="M48.014,94.597c9.035,3.339,18.083,0,18.076,0l-1.837-15.874L46.105,77.91
							C46.105,77.91,39.133,91.313,48.014,94.597z"/>
					</defs>
					<use xlink:href="#XMLID_216_"  overflow="visible" fill="#EF2A25"/>
					<clipPath id="XMLID_28_">
						<use xlink:href="#XMLID_216_"  overflow="visible"/>
					</clipPath>
				</g>
				<path clip-path="url(#XMLID_27_)" fill="#FFFFFF" d="M63.326,87.758c1.395,7.786-3.747,15.312-3.747,15.312l7.232-3.465
					l-0.161-9.54C66.651,90.065,61.937,79.999,63.326,87.758z"/>
			</g>
		</g>
		<path fill="#020000" d="M64.826,110.069l-1.001,0.182c-0.611-0.925-2.539-3.346-6.461-4.066
			C61.944,106.22,64.307,109.297,64.826,110.069z"/>
		<path fill="#020000" d="M68.832,109.473l-1.017,0.105c-0.526-0.976-2.252-3.548-6.095-4.593
			C66.279,105.399,68.376,108.666,68.832,109.473z"/>
	</g>
	<path d="M52.334,60.64c-0.736-0.337,2.244-3.795,1.347-3.886c-9.876-1.01-18.785,5.815-20.995,8.621
		c-1.395,1.774,2.183,0.954,2.183,0.954s-3.101,3.844-1.396,7.919c1.136,2.974,6.061,3.857,9.461,2.392
		c0.808-0.351,1.564-3.135,1.712-3.675c5.38-3.213,6.004-2.995,9.407-6.299C55.96,65.01,55.273,62.007,52.334,60.64z"/>
	<g>
		<defs>
			<path id="XMLID_214_" d="M55.8,58.283c-9.021-2.259-18.042,3.472-21.31,6.649c-1.754,1.705,1.739,0.294,1.739,0.294
				s-3.409,4.953-1.908,8.53c0.996,2.617,5.289,3.276,8.277,1.992c0.701-0.309,1.41-3.886,1.823-4.152
				c4.125-2.687,7.933-4.174,11.055-7.211C57.153,62.934,58.563,58.978,55.8,58.283z"/>
		</defs>
		<use xlink:href="#XMLID_214_"  overflow="visible" fill="#FFFFFF"/>
		<clipPath id="XMLID_29_">
			<use xlink:href="#XMLID_214_"  overflow="visible"/>
		</clipPath>
		<path clip-path="url(#XMLID_29_)" fill="#D6D6D6" d="M33.073,70.439c0,0,4.335,5.226,18.42-3.696
			c2.974,7.744-7.8,12.689-7.8,12.689L31.235,77.91L33.073,70.439z"/>
		<path clip-path="url(#XMLID_29_)" d="M45.151,58.978c-1.073,9.673,7.127,10.739,7.127,10.739l7.295-4.16l-4.167-10.704
			C55.407,54.853,46.21,49.402,45.151,58.978z"/>
		<path clip-path="url(#XMLID_29_)" fill="#EF2A25" d="M44.927,58.465c1.515,9.512,6.158,10.915,6.158,10.915l9.119-4.447
			l-4.167-10.704C56.038,54.229,43.413,48.947,44.927,58.465z"/>
		<path clip-path="url(#XMLID_29_)" fill="#FFFFFF" d="M55.533,57.771c0,0-13.433,1.452-21.597,6.67
			c-2.196-2.75,10.872-7.786,10.872-7.786L55.533,57.771z"/>
	</g>
	<polygon fill="#EF2A25" points="45.264,78.807 46.442,82.006 47.164,84.384 57.048,86.383 62.358,86.215 64.679,83.857 
		57.364,58.816 53.961,57.371 54.522,58.978 55.926,61.917 54.522,66.995 	"/>
	<path d="M40.718,73.588c0.925-0.512,7.358-4.18,7.358-4.18l-2.925,3.254C45.151,72.663,43.131,73.926,40.718,73.588z"/>
	<polygon fill="#A52121" points="52.222,54.733 57.343,55.323 58.142,58.557 50.693,56.761 	"/>
	<path d="M56.164,57.757c1.235,1.564-6.67-0.982-6.67-0.982S53.534,55.821,56.164,57.757z"/>
	<path d="M72.192,17.979c-6.531-3.577-5.184-12.149,3.177-10.712c9.869,1.706,8.438,10.593,0.429,10.964
		C68.271,18.582,77.278,20.771,72.192,17.979z"/>
	<path fill="#FFFFFF" d="M72.382,17.902c-5.24-2.996-4.391-10.74,3.072-9.603c7.471,1.144,7.232,6.993,1.431,10.065
		C74.752,18.771,73.146,18.336,72.382,17.902z"/>
	<path d="M73.027,18.076c-4.259-2.349-3.69-8.073,2.188-6.937c5.871,1.129,5.702,7.077,0.456,7.421
		C74.969,18.609,74.176,18.715,73.027,18.076z"/>
	<path d="M89.728,39.961c-0.477-5.675-0.574-14.906-6.221-19.949c-10.845-8.354-29.812-5.064-37.1,2.784
		c-7.288,7.85-3.444,12.065-3.444,12.065l10.206,13.116l31.838,4.833C85.006,52.812,90.212,45.644,89.728,39.961z"/>
	<path d="M89.202,39.961c-0.484-5.675-1.038-14.723-6.692-19.767c-10.843-8.354-29.277-3.928-36.565,3.92
		c-7.288,7.85-1.985,13.615-1.985,13.615l8.488,10.248l31.845,4.833C84.292,52.812,89.678,45.644,89.202,39.961z"/>
	<path fill="#474747" d="M61.573,43.209c-1.495-3.269-3.269-15.53,3.647-15.937c7.589-0.442,8.15,13.496,8.15,13.496
		s3.031,0.344,3.031,4.741C76.394,50.511,63.066,46.478,61.573,43.209z"/>
	<path fill="#474747" d="M88.122,41.96c0,0,1.108-18.525-4.545-17.094c-5.359,1.347-3.023,15.095-3.023,15.095l5.506,1.999H88.122z"
		/>
	<path fill="#FFFFFF" d="M87.806,41.96h-2.068l-0.105-0.042l-0.702-0.288l-3.38-1.375c0,0-0.526-2.434-0.745-5.31
		c-0.048-0.61-0.084-1.241-0.09-1.88c-0.063-3.255,0.47-6.531,2.666-7.183C88.564,24.326,87.806,41.96,87.806,41.96z"/>
	<path d="M86.144,41.42c2.7-0.21,4.188-13.25,12.773-6.572c-2.589-0.182-3.808,0.659-3.808,0.659s2.439,1.08,1.9,4.629
		C96.468,43.679,83.443,41.617,86.144,41.42z"/>
	<path fill="#FFFFFF" d="M86.712,41.526c2.7-0.204,3.92-10.318,10.135-7.274c-2.265,0.217-3.444,1.438-3.444,1.438
		s3.487,0.898,2.947,4.447C95.81,43.679,84.018,41.729,86.712,41.526z"/>
	<path d="M85.632,41.918l-0.702-0.288l-3.38-1.375c0,0-0.526-2.434-0.745-5.31c-0.048-0.61-0.084-1.241-0.09-1.88
		c0.435-0.716,1.01-1.2,1.683-1.333c1.796-0.343,3.585,1.978,3.999,5.184C86.642,38.875,86.326,40.705,85.632,41.918z"/>
	<path d="M84.382,44.5c-12.302-1.234-7.701-23.042-20.48-27.363c-4.286-1.438-10.585-0.639-12.816-0.225
		c2.533-3.5,5.941-4.033,8.741-3.745c-1.249-0.4-1.895-0.245-2.828-0.477c5.97-4.503,17.825-3.416,22.068,9.631
		c2.553,8.852-1.649,21.394,11.7,18.076C106.191,36.552,96.687,45.741,84.382,44.5z"/>
	<path fill="#FFFFFF" d="M76.001,46.232c-0.092,5.001-12.408,0.715-13.825-2.554c-0.12-0.28-0.247-0.624-0.365-1.017
		c-0.07-0.225-0.14-0.463-0.21-0.723c-0.386-1.445-0.722-3.346-0.799-5.261c-0.021-0.456-0.028-0.919-0.015-1.368v-0.007
		c0.092-3.521,1.214-6.762,4.609-6.993c6.552-0.442,7.512,12.935,7.512,12.935S76.093,41.231,76.001,46.232z"/>
	<path d="M70.235,44.928c-1.438,0.322-2.981-0.68-3.984-2.441c-1.22-1.795-1.291-3.914-0.828-6.607c0,0,0.105-0.253,0.147-0.288
		c0.427-1.151,1.185-1.943,2.188-2.153c1.543-0.323,3.198,0.862,4.201,2.833c0.105,0.112,0.14,0.217,0.217,0.358
		c0.176,0.434,0.358,0.94,0.463,1.438c0,0.035,0.036,0.112,0.036,0.147c0.035,0.07,0.035,0.105,0.035,0.175
		C73.398,41.554,72.283,44.5,70.235,44.928z"/>
	<path d="M83.205,49.081c-15.214-16.021-27.02,0.954-36.104-14.211c-0.133,1.361-0.504,2.967,0.702,5.092
		c-4.37-3.633-5.675-10.164-5.675-10.164s-3.135,8.369,2.028,14.822c-8.018-0.695-7.098,8.284-7.098,8.284s0.687-0.385,3.142-1.705
		c-2.441,3.234-0.885,5.773-0.084,7.373c10.494-9.806,21.022,3.724,35.283,4.616c1.151,0.077-2.42-6.994-1.222-7.106
		c3.753-0.344,8.902,3.255,16.822,2.483c4.349-0.505,10.017-3.773,10.24-9.322C104.164,41.82,89.994,47.271,83.205,49.081z"/>
	<path fill="#FFFFFF" d="M100.376,49.031c-0.063,0.498-0.162,0.975-0.302,1.431c-0.351,1.164-0.954,2.181-1.704,3.065
		c-2.042,2.399-5.17,3.781-7.428,4.244c-0.084,0.049-0.162,0.099-0.239,0.141c-6.72,1.48-12.219-1.55-12.219-1.55
		s0.077,2.918-0.337,5.534c-15.818,0.688-26.507-14.793-37.977-4.524c-0.806-1.613-1.009-5.625,4.012-7.435
		c-3.514-0.351-6.425,1.859-6.425,1.859s0.07-1.172,0.583-2.483c0.827-2.118,2.343-4.875,7.456-3.191
		c-5.071-7.73-3.514-13.959-3.571-14.913c5.101,22.032,25.413,2.455,40.628,18.477C89.644,47.881,103.294,41.596,100.376,49.031z"/>
	<path fill="#D6D6D6" d="M100.074,50.462c-0.351,1.164-0.954,2.181-1.704,3.065c-3.648,2.308-11.041,3.423-12.507,0.273
		c-0.436-0.638-0.702-0.919-0.757-0.975C85.344,53.022,89.63,56.537,100.074,50.462z"/>
	<path fill="#FFFFFF" d="M84.783,44.191c-2.735-0.274-4.644-1.677-6.096-3.704c-2.672-3.731-3.809-9.588-5.738-14.457
		c-1.731-4.37-3.662-7.99-8.171-9.441c-4.574-1.473-8.649-1.242-12.163-0.442c4.285-3.788,10.219-1.809,11.362-1.711
		c-1.234-1.08-3.408-1.719-5.007-2.153c2.237-1.845,14.133-3.254,19.33,9.238c1.951,5.386,0.877,13.04,3.157,17.108
		c1.396,2.497,4.047,3.641,9.421,2.104C106.163,36.356,97.087,45.425,84.783,44.191z"/>
	<path d="M81.59,46.821c-0.456,2.539,2.997,7.218,6.328,7.632c3.338,0.421,11.376-2.742,13.292-5.001
		c2.49-2.946,1.668-9.343-0.121-10.143C96.616,37.584,82.433,42.144,81.59,46.821z"/>
	<path fill="#FFFFFF" d="M82.552,47.095c-0.427,2.385,2.427,6.229,5.57,6.622c3.135,0.393,10.873-2.371,12.64-4.531
		c1.767-2.161,1.572-8.095-0.112-8.852C96.434,38.713,83.345,42.684,82.552,47.095z"/>
	<path d="M85.772,47.635c-0.345,1.901,1.928,5.106,4.432,5.422c2.498,0.309,8.572-2.035,9.975-3.753
		c1.403-1.719,1.339-6.446,0-7.056C96.819,40.964,86.404,44.128,85.772,47.635z"/>
	<path fill="#FFFFFF" d="M93.508,45.187c0.092,0.856-1.207,1.697-2.903,1.88c-1.691,0.175-3.143-0.373-3.226-1.235
		c-0.092-0.855,1.206-1.698,2.896-1.873C91.973,43.777,93.418,44.332,93.508,45.187z"/>
	<path d="M47.101,25.175c1.811-8.642-7.918-13.517-12.499-4.623c-4.582,8.894,3.185,16.252,9.756,8.648
		C50.167,22.482,45.699,31.867,47.101,25.175z"/>
	<path fill="#FFFFFF" d="M46.744,25.14c0.904-7.056-6.979-11.777-11.224-3.941c-4.236,7.834,1.432,11.777,8.454,8.508
		C45.874,27.988,46.61,26.171,46.744,25.14z"/>
	<path d="M46.45,25.884c0.819-5.689-4.967-9.231-8.081-2.897c-3.121,6.334,2.637,10.41,6.699,5.717
		C45.615,28.072,46.224,27.413,46.45,25.884z"/>
	<path fill="#FFFFFF" d="M72.677,38.215c-0.289,0.175-0.611,0.288-0.934,0.393c-1.254,0.357-2.405,0.182-2.545-0.428
		c-0.183-0.61,0.68-1.367,1.9-1.76c0.323-0.077,0.611-0.147,0.863-0.147c0.105,0.112,0.14,0.217,0.217,0.358
		c0.176,0.434,0.358,0.94,0.463,1.438C72.641,38.103,72.677,38.18,72.677,38.215z"/>
	<path fill="#FFFFFF" d="M87.532,35.367c0.141,0.498-0.567,1.143-1.592,1.438c-1.024,0.302-1.972,0.141-2.119-0.35
		c-0.14-0.499,0.576-1.137,1.593-1.438C86.439,34.722,87.385,34.876,87.532,35.367z"/>
	<path fill="#D6D6D6" d="M77.025,61.917c-15.2-0.063-25.659-14.569-36.854-4.546c-0.806-1.613-1.009-5.625,4.012-7.435
		c-3.514-0.351-6.425,1.859-6.425,1.859s0.07-1.172,0.583-2.483c2.763-1.017,6.124-1.747,8.823-0.793
		c-3.528,2.104-5.126,6.271-4.565,5.507c10.353-6.776,23.104,7.758,34.84,6.019C78.217,60.128,78.007,61.328,77.025,61.917z"/>
	<path fill="#6D6D6D" d="M92.057,57.006c0,0,1.509-1.41,2.223-3.311C94.385,56.305,92.057,57.006,92.057,57.006z"/>
	<path d="M102.002,38.25c7.058-7.73,13.068-6.811,13.068-6.811S107.18,33.003,102.002,38.25z"/>
	<path d="M74.176,45.447c-12.919-3.29-19.654,0.484-19.654,0.484S64.946,43.405,74.176,45.447z"/>
	<path d="M102.775,40.305c6.298-4.454,14.653-2.666,14.653-2.666S108.323,37.303,102.775,40.305z"/>
	<path d="M75.496,48.694c-5.737-3.83-13.067-1.375-13.067-1.375S70.467,46.226,75.496,48.694z"/>
	<path d="M105.336,42.241c2.608-0.786,6.045,0.217,6.045,0.217S102.734,43.027,105.336,42.241z"/>
	<path d="M58.971,16.905"/>
	<path d="M58.507,55.744c3.03,19.303,20.482,21.661,20.86,1.262c-0.111-0.785-2.545-0.96-2.545-0.96S56.655,47.622,58.507,55.744z"
		/>
	<g>
		<defs>
			<path id="XMLID_213_" d="M58.605,54.088c4.651,20.735,19.767,21.072,19.879,2.273c-0.113-0.786-1.662-1.01-1.662-1.01
				S57.035,46.962,58.605,54.088z"/>
		</defs>
		<use xlink:href="#XMLID_213_"  overflow="visible" fill="#FFFFFF"/>
		<clipPath id="XMLID_30_">
			<use xlink:href="#XMLID_213_"  overflow="visible"/>
		</clipPath>
		<polygon clip-path="url(#XMLID_30_)" fill="#D6D6D6" points="80.805,61.917 74.927,58.978 76.822,55.351 80.708,57.006 		"/>
	</g>
	<path d="M58.507,49.402c0,0,5.836,18.238,11.391,17.733c5.555-0.505,7.632-11.392,7.632-11.392s-2.975-1.291-5.388-5.556
		C67.654,48.112,58.507,49.402,58.507,49.402z"/>
	<path fill="#AF4343" d="M72.606,64.393c0,0-0.14,0.183-0.358,0.435c-1.045,1.073-4.167,3.051-8.333-5.857
		c0.576-0.218,1.151-0.358,1.656-0.428C71.097,57.68,72.606,64.393,72.606,64.393z"/>
	<path d="M91.819,57.554c0,0-12.789,3.528-18.723-7.576c-7.393-3.233-16.827-0.764-18.574,0.485c9.091-1.438,11.336-1.228,17.676,0
		c6.847,11.735,19.858,7.926,19.858,7.926L91.819,57.554z"/>
	<path fill="#F24C4C" d="M72.606,64.393c0,0-0.14,0.183-0.358,0.435c-0.322,0.07-0.68,0.105-1.045,0.105
		c-3.192,0-5.779-2.335-5.779-5.205c0-0.4,0.035-0.792,0.147-1.186C71.097,57.68,72.606,64.393,72.606,64.393z"/>
	<path d="M66.195,58.978c3.198,0.133,4.602,4.209,4.602,4.209S68.552,60.458,66.195,58.978z"/>
	<path fill="#FFFFFF" d="M55.729,30.247c0,0-0.849-8.326,6.117-9.736c-4.519-0.849,0.477-1.69,4.91,0.063
		C56.234,23.442,55.729,30.247,55.729,30.247z"/>
	<path d="M89.433,27.076c0,0,1.663-8.319-4.132-9.806c2.905-1.599-3.914-3.346-7.765,0.477
		C84.783,18.932,89.433,27.076,89.433,27.076z"/>
	<path fill="#FFFFFF" d="M88.753,25c0,0,0.371-6.994-5.514-7.884c3.747-0.891-0.462-1.396-4.104,0.252
		C88.051,19.339,88.753,25,88.753,25z"/>
</g>
</svg>
