<svg version="1.1" viewBox="0.0 0.0 707.0 469.0" fill="none" stroke="none" stroke-linecap="square" stroke-miterlimit="10" width="707" height="469" xmlns:xlink="http://www.w3.org/1999/xlink" xmlns="http://www.w3.org/2000/svg"><path fill="#ffffff" d="M0 0L707.0 0L707.0 469.0L0 469.0L0 0Z" fill-rule="nonzero"/><path stroke="#333333" stroke-width="1.0" stroke-linecap="butt" d="M87.5 410.5L553.5 410.5" fill-rule="nonzero"/><path stroke="#cccccc" stroke-width="1.0" stroke-linecap="butt" d="M87.5 361.5L553.5 361.5" fill-rule="nonzero"/><path stroke="#cccccc" stroke-width="1.0" stroke-linecap="butt" d="M87.5 312.5L553.5 312.5" fill-rule="nonzero"/><path stroke="#cccccc" stroke-width="1.0" stroke-linecap="butt" d="M87.5 263.5L553.5 263.5" fill-rule="nonzero"/><path stroke="#cccccc" stroke-width="1.0" stroke-linecap="butt" d="M87.5 214.5L553.5 214.5" fill-rule="nonzero"/><path stroke="#cccccc" stroke-width="1.0" stroke-linecap="butt" d="M87.5 164.5L553.5 164.5" fill-rule="nonzero"/><path stroke="#cccccc" stroke-width="1.0" stroke-linecap="butt" d="M87.5 115.5L553.5 115.5" fill-rule="nonzero"/><path stroke="#cccccc" stroke-width="1.0" stroke-linecap="butt" d="M87.5 66.5L553.5 66.5" fill-rule="nonzero"/><path stroke="#e6e6e6" stroke-width="1.0" stroke-linecap="butt" d="M87.5 397.5L553.5 397.5" fill-rule="nonzero"/><path stroke="#e6e6e6" stroke-width="1.0" stroke-linecap="butt" d="M87.5 385.5L553.5 385.5" fill-rule="nonzero"/><path stroke="#e6e6e6" stroke-width="1.0" stroke-linecap="butt" d="M87.5 373.5L553.5 373.5" fill-rule="nonzero"/><path stroke="#e6e6e6" stroke-width="1.0" stroke-linecap="butt" d="M87.5 348.5L553.5 348.5" fill-rule="nonzero"/><path stroke="#e6e6e6" stroke-width="1.0" stroke-linecap="butt" d="M87.5 336.5L553.5 336.5" fill-rule="nonzero"/><path stroke="#e6e6e6" stroke-width="1.0" stroke-linecap="butt" d="M87.5 324.5L553.5 324.5" fill-rule="nonzero"/><path stroke="#e6e6e6" stroke-width="1.0" stroke-linecap="butt" d="M87.5 299.5L553.5 299.5" fill-rule="nonzero"/><path stroke="#e6e6e6" stroke-width="1.0" stroke-linecap="butt" d="M87.5 287.5L553.5 287.5" fill-rule="nonzero"/><path stroke="#e6e6e6" stroke-width="1.0" stroke-linecap="butt" d="M87.5 275.5L553.5 275.5" fill-rule="nonzero"/><path stroke="#e6e6e6" stroke-width="1.0" stroke-linecap="butt" d="M87.5 250.5L553.5 250.5" fill-rule="nonzero"/><path stroke="#e6e6e6" stroke-width="1.0" stroke-linecap="butt" d="M87.5 238.5L553.5 238.5" fill-rule="nonzero"/><path stroke="#e6e6e6" stroke-width="1.0" stroke-linecap="butt" d="M87.5 226.5L553.5 226.5" fill-rule="nonzero"/><path stroke="#e6e6e6" stroke-width="1.0" stroke-linecap="butt" d="M87.5 201.5L553.5 201.5" fill-rule="nonzero"/><path stroke="#e6e6e6" stroke-width="1.0" stroke-linecap="butt" d="M87.5 189.5L553.5 189.5" fill-rule="nonzero"/><path stroke="#e6e6e6" stroke-width="1.0" stroke-linecap="butt" d="M87.5 177.5L553.5 177.5" fill-rule="nonzero"/><path stroke="#e6e6e6" stroke-width="1.0" stroke-linecap="butt" d="M87.5 152.5L553.5 152.5" fill-rule="nonzero"/><path stroke="#e6e6e6" stroke-width="1.0" stroke-linecap="butt" d="M87.5 140.5L553.5 140.5" fill-rule="nonzero"/><path stroke="#e6e6e6" stroke-width="1.0" stroke-linecap="butt" d="M87.5 128.5L553.5 128.5" fill-rule="nonzero"/><path stroke="#e6e6e6" stroke-width="1.0" stroke-linecap="butt" d="M87.5 103.5L553.5 103.5" fill-rule="nonzero"/><path stroke="#e6e6e6" stroke-width="1.0" stroke-linecap="butt" d="M87.5 91.5L553.5 91.5" fill-rule="nonzero"/><path stroke="#e6e6e6" stroke-width="1.0" stroke-linecap="butt" d="M87.5 79.5L553.5 79.5" fill-rule="nonzero"/><clipPath id="id_0"><path d="M87.37641 66.940605L553.1048 66.940605L553.1048 410.12552L87.37641 410.12552L87.37641 66.940605Z" clip-rule="nonzero"/></clipPath><path stroke="#ea4335" stroke-width="2.0" stroke-linecap="butt" clip-path="url(#id_0)" d="M116.484436 331.68326C116.484436 331.68326 155.29514 308.80426 174.70049 302.26743C194.10583 295.73056 213.51118 295.73056 232.91653 292.46213C252.32188 289.1937 271.72723 286.74237 291.13257 282.65683C310.53793 278.57132 329.94327 270.40024 349.34863 267.9489C368.75397 265.4976 388.15933 269.58313 407.56467 267.9489C426.97003 266.3147 446.37537 260.59497 465.78073 258.14365C485.18607 255.6923 523.99677 253.241 523.99677 253.241" fill-rule="nonzero"/><path stroke="#46bdc6" stroke-width="2.0" stroke-linecap="butt" clip-path="url(#id_0)" d="M116.484436 336.5859C116.484436 336.5859 155.29514 297.36478 174.70049 282.65683C194.10583 267.9489 213.51118 257.32654 232.91653 248.33835C252.32188 239.35017 271.72723 233.63043 291.13257 228.72778C310.53793 223.82513 329.94327 222.19093 349.34863 218.9225C368.75397 215.65407 388.15933 211.56854 407.56467 209.11722C426.97003 206.6659 446.37537 206.6659 465.78073 204.21457C485.18607 201.76326 523.99677 194.40929 523.99677 194.40929" fill-rule="nonzero"/><path stroke="#38761d" stroke-width="2.0" stroke-linecap="butt" clip-path="url(#id_0)" d="M116.484436 331.68326C116.484436 331.68326 155.29514 307.17004 174.70049 297.36478C194.10583 287.55948 213.51118 281.02264 232.91653 272.85156C252.32188 264.68048 271.72723 254.87521 291.13257 248.33835C310.53793 241.8015 329.94327 238.53307 349.34863 233.63043C368.75397 228.72778 388.15933 223.00804 407.56467 218.9225C426.97003 214.83696 446.37537 212.38565 465.78073 209.11722C485.18607 205.84879 523.99677 199.31194 523.99677 199.31194" fill-rule="nonzero"/><path fill="#ea4335" clip-path="url(#id_0)" d="M118.484436 331.68326C118.484436 332.78784 117.589005 333.68326 116.484436 333.68326C115.37987 333.68326 114.484436 332.78784 114.484436 331.68326C114.484436 330.5787 115.37987 329.68326 116.484436 329.68326C117.589005 329.68326 118.484436 330.5787 118.484436 331.68326Z" fill-rule="nonzero"/><path fill="#ea4335" clip-path="url(#id_0)" d="M176.70049 302.26743C176.70049 303.37198 175.80505 304.26743 174.70049 304.26743C173.59592 304.26743 172.70049 303.37198 172.70049 302.26743C172.70049 301.16284 173.59592 300.26743 174.70049 300.26743C175.80505 300.26743 176.70049 301.16284 176.70049 302.26743Z" fill-rule="nonzero"/><path fill="#ea4335" clip-path="url(#id_0)" d="M234.91653 292.46213C234.91653 293.5667 234.0211 294.46213 232.91653 294.46213C231.81197 294.46213 230.91653 293.5667 230.91653 292.46213C230.91653 291.35754 231.81197 290.46213 232.91653 290.46213C234.0211 290.46213 234.91653 291.35754 234.91653 292.46213Z" fill-rule="nonzero"/><path fill="#ea4335" clip-path="url(#id_0)" d="M293.13257 282.65683C293.13257 283.7614 292.23715 284.65683 291.13257 284.65683C290.028 284.65683 289.13257 283.7614 289.13257 282.65683C289.13257 281.55228 290.028 280.65683 291.13257 280.65683C292.23715 280.65683 293.13257 281.55228 293.13257 282.65683Z" fill-rule="nonzero"/><path fill="#ea4335" clip-path="url(#id_0)" d="M351.34863 267.9489C351.34863 269.0535 350.4532 269.9489 349.34863 269.9489C348.24405 269.9489 347.34863 269.0535 347.34863 267.9489C347.34863 266.84436 348.24405 265.9489 349.34863 265.9489C350.4532 265.9489 351.34863 266.84436 351.34863 267.9489Z" fill-rule="nonzero"/><path fill="#ea4335" clip-path="url(#id_0)" d="M409.56467 267.9489C409.56467 269.0535 408.66925 269.9489 407.56467 269.9489C406.4601 269.9489 405.56467 269.0535 405.56467 267.9489C405.56467 266.84436 406.4601 265.9489 407.56467 265.9489C408.66925 265.9489 409.56467 266.84436 409.56467 267.9489Z" fill-rule="nonzero"/><path fill="#ea4335" clip-path="url(#id_0)" d="M467.78073 258.14365C467.78073 259.2482 466.88528 260.14365 465.78073 260.14365C464.67615 260.14365 463.78073 259.2482 463.78073 258.14365C463.78073 257.03906 464.67615 256.14365 465.78073 256.14365C466.88528 256.14365 467.78073 257.03906 467.78073 258.14365Z" fill-rule="nonzero"/><path fill="#ea4335" clip-path="url(#id_0)" d="M525.99677 253.241C525.99677 254.34557 525.1013 255.241 523.99677 255.241C522.8922 255.241 521.99677 254.34557 521.99677 253.241C521.99677 252.13643 522.8922 251.241 523.99677 251.241C525.1013 251.241 525.99677 252.13643 525.99677 253.241Z" fill-rule="nonzero"/><path fill="#46bdc6" clip-path="url(#id_0)" d="M118.484436 336.5859C118.484436 337.69046 117.589005 338.5859 116.484436 338.5859C115.37987 338.5859 114.484436 337.69046 114.484436 336.5859C114.484436 335.48132 115.37987 334.5859 116.484436 334.5859C117.589005 334.5859 118.484436 335.48132 118.484436 336.5859Z" fill-rule="nonzero"/><path fill="#46bdc6" clip-path="url(#id_0)" d="M176.70049 282.65683C176.70049 283.7614 175.80505 284.65683 174.70049 284.65683C173.59592 284.65683 172.70049 283.7614 172.70049 282.65683C172.70049 281.55228 173.59592 280.65683 174.70049 280.65683C175.80505 280.65683 176.70049 281.55228 176.70049 282.65683Z" fill-rule="nonzero"/><path fill="#46bdc6" clip-path="url(#id_0)" d="M234.91653 248.33835C234.91653 249.44292 234.0211 250.33835 232.91653 250.33835C231.81197 250.33835 230.91653 249.44292 230.91653 248.33835C230.91653 247.23378 231.81197 246.33835 232.91653 246.33835C234.0211 246.33835 234.91653 247.23378 234.91653 248.33835Z" fill-rule="nonzero"/><path fill="#46bdc6" clip-path="url(#id_0)" d="M293.13257 228.72778C293.13257 229.83235 292.23715 230.72778 291.13257 230.72778C290.028 230.72778 289.13257 229.83235 289.13257 228.72778C289.13257 227.62321 290.028 226.72778 291.13257 226.72778C292.23715 226.72778 293.13257 227.62321 293.13257 228.72778Z" fill-rule="nonzero"/><path fill="#46bdc6" clip-path="url(#id_0)" d="M351.34863 218.9225C351.34863 220.02707 350.4532 220.9225 349.34863 220.9225C348.24405 220.9225 347.34863 220.02707 347.34863 218.9225C347.34863 217.81793 348.24405 216.9225 349.34863 216.9225C350.4532 216.9225 351.34863 217.81793 351.34863 218.9225Z" fill-rule="nonzero"/><path fill="#46bdc6" clip-path="url(#id_0)" d="M409.56467 209.11722C409.56467 210.22179 408.66925 211.11722 407.56467 211.11722C406.4601 211.11722 405.56467 210.22179 405.56467 209.11722C405.56467 208.01265 406.4601 207.11722 407.56467 207.11722C408.66925 207.11722 409.56467 208.01265 409.56467 209.11722Z" fill-rule="nonzero"/><path fill="#46bdc6" clip-path="url(#id_0)" d="M467.78073 204.21457C467.78073 205.31914 466.88528 206.21457 465.78073 206.21457C464.67615 206.21457 463.78073 205.31914 463.78073 204.21457C463.78073 203.11 464.67615 202.21457 465.78073 202.21457C466.88528 202.21457 467.78073 203.11 467.78073 204.21457Z" fill-rule="nonzero"/><path fill="#46bdc6" clip-path="url(#id_0)" d="M525.99677 194.40929C525.99677 195.51385 525.1013 196.40929 523.99677 196.40929C522.8922 196.40929 521.99677 195.51385 521.99677 194.40929C521.99677 193.30472 522.8922 192.40929 523.99677 192.40929C525.1013 192.40929 525.99677 193.30472 525.99677 194.40929Z" fill-rule="nonzero"/><path fill="#38761d" clip-path="url(#id_0)" d="M118.484436 331.68326C118.484436 332.78784 117.589005 333.68326 116.484436 333.68326C115.37987 333.68326 114.484436 332.78784 114.484436 331.68326C114.484436 330.5787 115.37987 329.68326 116.484436 329.68326C117.589005 329.68326 118.484436 330.5787 118.484436 331.68326Z" fill-rule="nonzero"/><path fill="#38761d" clip-path="url(#id_0)" d="M176.70049 297.36478C176.70049 298.46933 175.80505 299.36478 174.70049 299.36478C173.59592 299.36478 172.70049 298.46933 172.70049 297.36478C172.70049 296.2602 173.59592 295.36478 174.70049 295.36478C175.80505 295.36478 176.70049 296.2602 176.70049 297.36478Z" fill-rule="nonzero"/><path fill="#38761d" clip-path="url(#id_0)" d="M234.91653 272.85156C234.91653 273.95612 234.0211 274.85156 232.91653 274.85156C231.81197 274.85156 230.91653 273.95612 230.91653 272.85156C230.91653 271.74698 231.81197 270.85156 232.91653 270.85156C234.0211 270.85156 234.91653 271.74698 234.91653 272.85156Z" fill-rule="nonzero"/><path fill="#38761d" clip-path="url(#id_0)" d="M293.13257 248.33835C293.13257 249.44292 292.23715 250.33835 291.13257 250.33835C290.028 250.33835 289.13257 249.44292 289.13257 248.33835C289.13257 247.23378 290.028 246.33835 291.13257 246.33835C292.23715 246.33835 293.13257 247.23378 293.13257 248.33835Z" fill-rule="nonzero"/><path fill="#38761d" clip-path="url(#id_0)" d="M351.34863 233.63043C351.34863 234.735 350.4532 235.63043 349.34863 235.63043C348.24405 235.63043 347.34863 234.735 347.34863 233.63043C347.34863 232.52586 348.24405 231.63043 349.34863 231.63043C350.4532 231.63043 351.34863 232.52586 351.34863 233.63043Z" fill-rule="nonzero"/><path fill="#38761d" clip-path="url(#id_0)" d="M409.56467 218.9225C409.56467 220.02707 408.66925 220.9225 407.56467 220.9225C406.4601 220.9225 405.56467 220.02707 405.56467 218.9225C405.56467 217.81793 406.4601 216.9225 407.56467 216.9225C408.66925 216.9225 409.56467 217.81793 409.56467 218.9225Z" fill-rule="nonzero"/><path fill="#38761d" clip-path="url(#id_0)" d="M467.78073 209.11722C467.78073 210.22179 466.88528 211.11722 465.78073 211.11722C464.67615 211.11722 463.78073 210.22179 463.78073 209.11722C463.78073 208.01265 464.67615 207.11722 465.78073 207.11722C466.88528 207.11722 467.78073 208.01265 467.78073 209.11722Z" fill-rule="nonzero"/><path fill="#38761d" clip-path="url(#id_0)" d="M525.99677 199.31194C525.99677 200.4165 525.1013 201.31194 523.99677 201.31194C522.8922 201.31194 521.99677 200.4165 521.99677 199.31194C521.99677 198.20737 522.8922 197.31194 523.99677 197.31194C525.1013 197.31194 525.99677 198.20737 525.99677 199.31194Z" fill-rule="nonzero"/><path fill="#000000" d="M294.72498 456.22482Q295.50623 456.22482 296.08435 455.75607Q296.66248 455.28732 296.72498 454.5842L298.08435 454.5842Q298.0531 455.31857 297.58435 455.97482Q297.13123 456.63107 296.34998 457.0217Q295.58435 457.41232 294.72498 457.41232Q293.00623 457.41232 291.97498 456.25607Q290.95935 455.09982 290.95935 453.09982L290.95935 452.86545Q290.95935 451.63107 291.41248 450.67795Q291.8656 449.7092 292.70935 449.17795Q293.56873 448.6467 294.72498 448.6467Q296.14685 448.6467 297.08435 449.50607Q298.02185 450.34982 298.08435 451.7092L296.72498 451.7092Q296.66248 450.88107 296.09998 450.36545Q295.53748 449.8342 294.72498 449.8342Q293.6156 449.8342 293.00623 450.63107Q292.41248 451.41232 292.41248 452.91232L292.41248 453.19357Q292.41248 454.6467 293.00623 455.44357Q293.6156 456.22482 294.72498 456.22482ZM304.5531 457.25607Q304.4281 457.00607 304.34998 456.36545Q303.34998 457.41232 301.94373 457.41232Q300.69373 457.41232 299.89685 456.7092Q299.09998 455.99045 299.09998 454.91232Q299.09998 453.5842 300.09998 452.86545Q301.09998 452.13107 302.9281 452.13107L304.33435 452.13107L304.33435 451.4592Q304.33435 450.7092 303.88123 450.25607Q303.4281 449.80295 302.53748 449.80295Q301.77185 449.80295 301.2406 450.19357Q300.72498 450.5842 300.72498 451.1467L299.27185 451.1467Q299.27185 450.50607 299.70935 449.92795Q300.16248 449.3342 300.9281 448.99045Q301.70935 448.6467 302.63123 448.6467Q304.08435 448.6467 304.91248 449.38107Q305.7406 450.09982 305.77185 451.38107L305.77185 455.2717Q305.77185 456.44357 306.06873 457.13107L306.06873 457.25607L304.5531 457.25607ZM302.16248 456.1467Q302.83435 456.1467 303.44373 455.80295Q304.0531 455.44357 304.33435 454.88107L304.33435 453.1467L303.19373 453.1467Q300.53748 453.1467 300.53748 454.7092Q300.53748 455.38107 300.9906 455.7717Q301.44373 456.1467 302.16248 456.1467ZM315.47498 453.11545Q315.47498 455.05295 314.58435 456.24045Q313.70935 457.41232 312.20935 457.41232Q310.66248 457.41232 309.78748 456.42795L309.78748 460.50607L308.33435 460.50607L308.33435 448.80295L309.66248 448.80295L309.72498 449.74045Q310.6156 448.6467 312.1781 448.6467Q313.70935 448.6467 314.58435 449.80295Q315.47498 450.94357 315.47498 452.99045L315.47498 453.11545ZM314.03748 452.9592Q314.03748 451.5217 313.4281 450.69357Q312.81873 449.86545 311.75623 449.86545Q310.44373 449.86545 309.78748 451.03732L309.78748 455.06857Q310.4281 456.22482 311.77185 456.22482Q312.8031 456.22482 313.41248 455.41232Q314.03748 454.5842 314.03748 452.9592ZM322.5531 457.25607Q322.4281 457.00607 322.34998 456.36545Q321.34998 457.41232 319.94373 457.41232Q318.69373 457.41232 317.89685 456.7092Q317.09998 455.99045 317.09998 454.91232Q317.09998 453.5842 318.09998 452.86545Q319.09998 452.13107 320.9281 452.13107L322.33435 452.13107L322.33435 451.4592Q322.33435 450.7092 321.88123 450.25607Q321.4281 449.80295 320.53748 449.80295Q319.77185 449.80295 319.2406 450.19357Q318.72498 450.5842 318.72498 451.1467L317.27185 451.1467Q317.27185 450.50607 317.70935 449.92795Q318.16248 449.3342 318.9281 448.99045Q319.70935 448.6467 320.63123 448.6467Q322.08435 448.6467 322.91248 449.38107Q323.7406 450.09982 323.77185 451.38107L323.77185 455.2717Q323.77185 456.44357 324.06873 457.13107L324.06873 457.25607L322.5531 457.25607ZM320.16248 456.1467Q320.83435 456.1467 321.44373 455.80295Q322.0531 455.44357 322.33435 454.88107L322.33435 453.1467L321.19373 453.1467Q318.53748 453.1467 318.53748 454.7092Q318.53748 455.38107 318.9906 455.7717Q319.44373 456.1467 320.16248 456.1467ZM329.72498 456.22482Q330.50623 456.22482 331.08435 455.75607Q331.66248 455.28732 331.72498 454.5842L333.08435 454.5842Q333.0531 455.31857 332.58435 455.97482Q332.13123 456.63107 331.34998 457.0217Q330.58435 457.41232 329.72498 457.41232Q328.00623 457.41232 326.97498 456.25607Q325.95935 455.09982 325.95935 453.09982L325.95935 452.86545Q325.95935 451.63107 326.41248 450.67795Q326.8656 449.7092 327.70935 449.17795Q328.56873 448.6467 329.72498 448.6467Q331.14685 448.6467 332.08435 449.50607Q333.02185 450.34982 333.08435 451.7092L331.72498 451.7092Q331.66248 450.88107 331.09998 450.36545Q330.53748 449.8342 329.72498 449.8342Q328.6156 449.8342 328.00623 450.63107Q327.41248 451.41232 327.41248 452.91232L327.41248 453.19357Q327.41248 454.6467 328.00623 455.44357Q328.6156 456.22482 329.72498 456.22482ZM335.91248 457.25607L334.45935 457.25607L334.45935 448.80295L335.91248 448.80295L335.91248 457.25607ZM334.34998 446.55295Q334.34998 446.2092 334.5531 445.97482Q334.77185 445.72482 335.19373 445.72482Q335.6156 445.72482 335.83435 445.97482Q336.0531 446.2092 336.0531 446.56857Q336.0531 446.91232 335.83435 447.1467Q335.6156 447.38107 335.19373 447.38107Q334.77185 447.38107 334.5531 447.1467Q334.34998 446.91232 334.34998 446.55295ZM340.3031 446.75607L340.3031 448.80295L341.88123 448.80295L341.88123 449.91232L340.3031 449.91232L340.3031 455.16232Q340.3031 455.66232 340.50623 455.92795Q340.72498 456.17795 341.22498 456.17795Q341.47498 456.17795 341.91248 456.0842L341.91248 457.25607Q341.34998 457.41232 340.8031 457.41232Q339.83435 457.41232 339.33435 456.8342Q338.84998 456.24045 338.84998 455.16232L338.84998 449.91232L337.31873 449.91232L337.31873 448.80295L338.84998 448.80295L338.84998 446.75607L340.3031 446.75607ZM346.09998 455.13107L348.06873 448.80295L349.6156 448.80295L346.22498 458.56857Q345.4281 460.67795 343.70935 460.67795L343.44373 460.6467L342.89685 460.55295L342.89685 459.38107L343.28748 459.41232Q344.02185 459.41232 344.4281 459.11545Q344.84998 458.81857 345.1156 458.0217L345.4281 457.16232L342.41248 448.80295L343.9906 448.80295L346.09998 455.13107Z" fill-rule="nonzero"/><path fill="#000000" d="M27.179312 271.49133Q26.007437 270.5382 26.007437 268.99133Q26.007437 266.31946 29.023062 266.2882L34.616814 266.2882L34.616814 267.74133L29.023062 267.74133Q28.101187 267.74133 27.663687 268.1632Q27.226187 268.56946 27.226187 269.42883Q27.226187 270.13196 27.601187 270.6632Q27.976187 271.19446 28.585562 271.49133L34.616814 271.49133L34.616814 272.94446L22.616812 272.94446L22.616812 271.49133L27.179312 271.49133ZM34.616814 262.36633L34.616814 263.81946L26.163687 263.81946L26.163687 262.36633L34.616814 262.36633ZM23.913687 263.92883Q23.569937 263.92883 23.335562 263.7257Q23.085562 263.50696 23.085562 263.08508Q23.085562 262.6632 23.335562 262.44446Q23.569937 262.2257 23.929312 262.2257Q24.273062 262.2257 24.507437 262.44446Q24.741812 262.6632 24.741812 263.08508Q24.741812 263.50696 24.507437 263.7257Q24.273062 263.92883 23.913687 263.92883ZM24.116812 257.9757L26.163687 257.9757L26.163687 256.39758L27.273062 256.39758L27.273062 257.9757L32.523064 257.9757Q33.023064 257.9757 33.28869 257.77258Q33.53869 257.55383 33.53869 257.05383Q33.53869 256.80383 33.44494 256.36633L34.616814 256.36633Q34.773064 256.92883 34.773064 257.4757Q34.773064 258.44446 34.19494 258.94446Q33.60119 259.42883 32.523064 259.42883L27.273062 259.42883L27.273062 260.96008L26.163687 260.96008L26.163687 259.42883L24.116812 259.42883L24.116812 257.9757ZM27.460562 246.8507Q27.398062 247.17882 27.398062 247.56944Q27.398062 248.99132 28.616812 249.49132L34.616814 249.49132L34.616814 250.94444L26.163687 250.94444L26.163687 249.5382L27.132437 249.50694Q26.007437 248.80382 26.007437 247.49132Q26.007437 247.06944 26.116812 246.8507L27.460562 246.8507ZM34.616814 240.7257Q34.366814 240.8507 33.72619 240.92882Q34.773064 241.92882 34.773064 243.33507Q34.773064 244.58507 34.06994 245.38194Q33.35119 246.17882 32.273064 246.17882Q30.944937 246.17882 30.226187 245.17882Q29.491812 244.17882 29.491812 242.3507L29.491812 240.94444L28.819937 240.94444Q28.069937 240.94444 27.616812 241.39757Q27.163687 241.8507 27.163687 242.74132Q27.163687 243.50694 27.554312 244.0382Q27.944937 244.55382 28.507437 244.55382L28.507437 246.00694Q27.866812 246.00694 27.288687 245.56944Q26.694937 245.11632 26.351187 244.3507Q26.007437 243.56944 26.007437 242.64757Q26.007437 241.19444 26.741812 240.36632Q27.460562 239.5382 28.741812 239.50694L32.63244 239.50694Q33.804314 239.50694 34.491814 239.21007L34.616814 239.21007L34.616814 240.7257ZM33.50744 243.11632Q33.50744 242.44444 33.16369 241.83507Q32.804314 241.2257 32.241814 240.94444L30.507437 240.94444L30.507437 242.08507Q30.507437 244.74132 32.06994 244.74132Q32.741814 244.74132 33.13244 244.2882Q33.50744 243.83507 33.50744 243.11632ZM24.116812 234.9757L26.163687 234.9757L26.163687 233.39757L27.273062 233.39757L27.273062 234.9757L32.523064 234.9757Q33.023064 234.9757 33.28869 234.77257Q33.53869 234.55382 33.53869 234.05382Q33.53869 233.80382 33.44494 233.36632L34.616814 233.36632Q34.773064 233.92882 34.773064 234.4757Q34.773064 235.44444 34.19494 235.94444Q33.60119 236.42882 32.523064 236.42882L27.273062 236.42882L27.273062 237.96007L26.163687 237.96007L26.163687 236.42882L24.116812 236.42882L24.116812 234.9757ZM34.616814 230.36632L34.616814 231.81944L26.163687 231.81944L26.163687 230.36632L34.616814 230.36632ZM23.913687 231.92882Q23.569937 231.92882 23.335562 231.7257Q23.085562 231.50694 23.085562 231.08507Q23.085562 230.6632 23.335562 230.44444Q23.569937 230.2257 23.929312 230.2257Q24.273062 230.2257 24.507437 230.44444Q24.741812 230.6632 24.741812 231.08507Q24.741812 231.50694 24.507437 231.7257Q24.273062 231.92882 23.913687 231.92882ZM30.304312 228.31944Q29.069937 228.31944 28.085562 227.83507Q27.085562 227.3507 26.554312 226.4757Q26.007437 225.6007 26.007437 224.49132Q26.007437 222.75694 27.210562 221.69444Q28.398062 220.63194 30.382437 220.63194L30.476187 220.63194Q31.710562 220.63194 32.69494 221.1007Q33.679314 221.56944 34.22619 222.46007Q34.773064 223.33507 34.773064 224.4757Q34.773064 226.19444 33.585564 227.25694Q32.38244 228.31944 30.413687 228.31944L30.304312 228.31944ZM30.476187 226.86632Q31.882437 226.86632 32.741814 226.2257Q33.585564 225.56944 33.585564 224.4757Q33.585564 223.36632 32.72619 222.7257Q31.866812 222.06944 30.304312 222.06944Q28.913687 222.06944 28.054312 222.74132Q27.194937 223.39757 27.194937 224.49132Q27.194937 225.55382 28.054312 226.21007Q28.898062 226.86632 30.476187 226.86632Z" fill-rule="nonzero"/><path fill="#000000" d="M66.45454 410.76614Q66.45454 413.31302 65.57954 414.5474Q64.72016 415.78177 62.87641 415.78177Q61.06391 415.78177 60.18891 414.57864Q59.31391 413.3599 59.28266 410.96927L59.28266 409.03177Q59.28266 406.53177 60.142036 405.31302Q61.017036 404.09427 62.860786 404.09427Q64.70454 404.09427 65.56391 405.26614Q66.43891 406.43802 66.45454 408.89114L66.45454 410.76614ZM65.01704 408.7974Q65.01704 406.95364 64.50141 406.12552Q63.985786 405.28177 62.860786 405.28177Q61.75141 405.28177 61.235786 406.12552Q60.735786 406.95364 60.72016 408.68802L60.72016 411.00052Q60.72016 412.84427 61.25141 413.71927Q61.798286 414.59427 62.87641 414.59427Q63.954536 414.59427 64.47016 413.76614Q64.98579 412.93802 65.01704 411.15677L65.01704 408.7974ZM68.20454 406.43802Q68.20454 405.40677 68.84516 404.75052Q69.50141 404.07864 70.53266 404.07864Q71.56391 404.07864 72.20454 404.75052Q72.86079 405.4224 72.86079 406.4849L72.86079 407.03177Q72.86079 408.06302 72.20454 408.71927Q71.54829 409.37552 70.54829 409.37552Q69.53266 409.37552 68.86079 408.71927Q68.20454 408.06302 68.20454 406.9849L68.20454 406.43802ZM69.28266 407.03177Q69.28266 407.64114 69.62641 408.0474Q69.97016 408.43802 70.54829 408.43802Q71.09516 408.43802 71.43891 408.06302Q71.78266 407.6724 71.78266 407.00052L71.78266 406.43802Q71.78266 405.82864 71.43891 405.43802Q71.11079 405.03177 70.53266 405.03177Q69.95454 405.03177 69.61079 405.43802Q69.28266 405.82864 69.28266 406.46927L69.28266 407.03177ZM73.73579 412.82864Q73.73579 411.81302 74.39204 411.15677Q75.04829 410.4849 76.06391 410.4849Q77.09516 410.4849 77.75141 411.14114Q78.40766 411.7974 78.40766 412.89114L78.40766 413.43802Q78.40766 414.46927 77.75141 415.14114Q77.09516 415.7974 76.07954 415.7974Q75.06391 415.7974 74.39204 415.14114Q73.73579 414.4849 73.73579 413.39114L73.73579 412.82864ZM74.81391 413.43802Q74.81391 414.06302 75.15766 414.45364Q75.50141 414.84427 76.07954 414.84427Q76.64204 414.84427 76.97016 414.46927Q77.31391 414.07864 77.31391 413.40677L77.31391 412.82864Q77.31391 412.21927 76.97016 411.82864Q76.64204 411.43802 76.06391 411.43802Q75.51704 411.43802 75.15766 411.82864Q74.81391 412.20364 74.81391 412.8599L74.81391 413.43802ZM70.87641 414.76614L70.04829 414.25052L75.61079 405.3599L76.42329 405.87552L70.87641 414.76614Z" fill-rule="nonzero"/><path fill="#000000" d="M55.079536 366.59912L53.62641 366.59912L53.62641 356.9585L50.704536 358.03662L50.704536 356.72412L54.84516 355.16162L55.079536 355.16162L55.079536 366.59912ZM66.45454 361.73975Q66.45454 364.28662 65.57954 365.521Q64.72016 366.75537 62.87641 366.75537Q61.06391 366.75537 60.18891 365.55225Q59.31391 364.3335 59.28266 361.94287L59.28266 360.00537Q59.28266 357.50537 60.142036 356.28662Q61.017036 355.06787 62.860786 355.06787Q64.70454 355.06787 65.56391 356.23975Q66.43891 357.41162 66.45454 359.86475L66.45454 361.73975ZM65.01704 359.771Q65.01704 357.92725 64.50141 357.09912Q63.985786 356.25537 62.860786 356.25537Q61.75141 356.25537 61.235786 357.09912Q60.735786 357.92725 60.72016 359.66162L60.72016 361.97412Q60.72016 363.81787 61.25141 364.69287Q61.798286 365.56787 62.87641 365.56787Q63.954536 365.56787 64.47016 364.73975Q64.98579 363.91162 65.01704 362.13037L65.01704 359.771ZM68.20454 357.41162Q68.20454 356.38037 68.84516 355.72412Q69.50141 355.05225 70.53266 355.05225Q71.56391 355.05225 72.20454 355.72412Q72.86079 356.396 72.86079 357.4585L72.86079 358.00537Q72.86079 359.03662 72.20454 359.69287Q71.54829 360.34912 70.54829 360.34912Q69.53266 360.34912 68.86079 359.69287Q68.20454 359.03662 68.20454 357.9585L68.20454 357.41162ZM69.28266 358.00537Q69.28266 358.61475 69.62641 359.021Q69.97016 359.41162 70.54829 359.41162Q71.09516 359.41162 71.43891 359.03662Q71.78266 358.646 71.78266 357.97412L71.78266 357.41162Q71.78266 356.80225 71.43891 356.41162Q71.11079 356.00537 70.53266 356.00537Q69.95454 356.00537 69.61079 356.41162Q69.28266 356.80225 69.28266 357.44287L69.28266 358.00537ZM73.73579 363.80225Q73.73579 362.78662 74.39204 362.13037Q75.04829 361.4585 76.06391 361.4585Q77.09516 361.4585 77.75141 362.11475Q78.40766 362.771 78.40766 363.86475L78.40766 364.41162Q78.40766 365.44287 77.75141 366.11475Q77.09516 366.771 76.07954 366.771Q75.06391 366.771 74.39204 366.11475Q73.73579 365.4585 73.73579 364.36475L73.73579 363.80225ZM74.81391 364.41162Q74.81391 365.03662 75.15766 365.42725Q75.50141 365.81787 76.07954 365.81787Q76.64204 365.81787 76.97016 365.44287Q77.31391 365.05225 77.31391 364.38037L77.31391 363.80225Q77.31391 363.19287 76.97016 362.80225Q76.64204 362.41162 76.06391 362.41162Q75.51704 362.41162 75.15766 362.80225Q74.81391 363.17725 74.81391 363.8335L74.81391 364.41162ZM70.87641 365.73975L70.04829 365.22412L75.61079 356.3335L76.42329 356.84912L70.87641 365.73975Z" fill-rule="nonzero"/><path fill="#000000" d="M57.78266 317.5727L50.329536 317.5727L50.329536 316.52582L54.267036 312.15082Q55.142036 311.16644 55.47016 310.54144Q55.798286 309.91644 55.798286 309.2602Q55.798286 308.36957 55.25141 307.80707Q54.72016 307.22894 53.829536 307.22894Q52.75141 307.22894 52.142036 307.83832Q51.548286 308.4477 51.548286 309.54144L50.110786 309.54144Q50.110786 307.97894 51.110786 307.0102Q52.12641 306.04144 53.829536 306.04144Q55.40766 306.04144 56.329536 306.86957Q57.25141 307.6977 57.25141 309.08832Q57.25141 310.7602 55.110786 313.08832L52.06391 316.3852L57.78266 316.3852L57.78266 317.5727ZM66.45454 312.71332Q66.45454 315.2602 65.57954 316.49457Q64.72016 317.72894 62.87641 317.72894Q61.06391 317.72894 60.18891 316.52582Q59.31391 315.30707 59.28266 312.91644L59.28266 310.97894Q59.28266 308.47894 60.142036 307.2602Q61.017036 306.04144 62.860786 306.04144Q64.70454 306.04144 65.56391 307.21332Q66.43891 308.3852 66.45454 310.83832L66.45454 312.71332ZM65.01704 310.74457Q65.01704 308.90082 64.50141 308.0727Q63.985786 307.22894 62.860786 307.22894Q61.75141 307.22894 61.235786 308.0727Q60.735786 308.90082 60.72016 310.6352L60.72016 312.9477Q60.72016 314.79144 61.25141 315.66644Q61.798286 316.54144 62.87641 316.54144Q63.954536 316.54144 64.47016 315.71332Q64.98579 314.8852 65.01704 313.10394L65.01704 310.74457ZM68.20454 308.3852Q68.20454 307.35394 68.84516 306.6977Q69.50141 306.02582 70.53266 306.02582Q71.56391 306.02582 72.20454 306.6977Q72.86079 307.36957 72.86079 308.43207L72.86079 308.97894Q72.86079 310.0102 72.20454 310.66644Q71.54829 311.3227 70.54829 311.3227Q69.53266 311.3227 68.86079 310.66644Q68.20454 310.0102 68.20454 308.93207L68.20454 308.3852ZM69.28266 308.97894Q69.28266 309.58832 69.62641 309.99457Q69.97016 310.3852 70.54829 310.3852Q71.09516 310.3852 71.43891 310.0102Q71.78266 309.61957 71.78266 308.9477L71.78266 308.3852Q71.78266 307.77582 71.43891 307.3852Q71.11079 306.97894 70.53266 306.97894Q69.95454 306.97894 69.61079 307.3852Q69.28266 307.77582 69.28266 308.41644L69.28266 308.97894ZM73.73579 314.77582Q73.73579 313.7602 74.39204 313.10394Q75.04829 312.43207 76.06391 312.43207Q77.09516 312.43207 77.75141 313.08832Q78.40766 313.74457 78.40766 314.83832L78.40766 315.3852Q78.40766 316.41644 77.75141 317.08832Q77.09516 317.74457 76.07954 317.74457Q75.06391 317.74457 74.39204 317.08832Q73.73579 316.43207 73.73579 315.33832L73.73579 314.77582ZM74.81391 315.3852Q74.81391 316.0102 75.15766 316.40082Q75.50141 316.79144 76.07954 316.79144Q76.64204 316.79144 76.97016 316.41644Q77.31391 316.02582 77.31391 315.35394L77.31391 314.77582Q77.31391 314.16644 76.97016 313.77582Q76.64204 313.3852 76.06391 313.3852Q75.51704 313.3852 75.15766 313.77582Q74.81391 314.15082 74.81391 314.80707L74.81391 315.3852ZM70.87641 316.71332L70.04829 316.1977L75.61079 307.30707L76.42329 307.8227L70.87641 316.71332Z" fill-rule="nonzero"/><path fill="#000000" d="M52.423286 262.15564L53.517036 262.15564Q54.53266 262.14 55.110786 261.6244Q55.704536 261.09314 55.704536 260.2025Q55.704536 258.2025 53.72016 258.2025Q52.78266 258.2025 52.22016 258.73376Q51.65766 259.265 51.65766 260.15564L50.22016 260.15564Q50.22016 258.79626 51.204536 257.90564Q52.18891 257.015 53.72016 257.015Q55.329536 257.015 56.235786 257.8744Q57.15766 258.71814 57.15766 260.23376Q57.15766 260.96814 56.673286 261.67126Q56.18891 262.35876 55.360786 262.7025Q56.298286 262.9994 56.81391 263.6869Q57.329536 264.3744 57.329536 265.3744Q57.329536 266.90564 56.329536 267.8119Q55.329536 268.7025 53.72016 268.7025Q52.12641 268.7025 51.110786 267.84314Q50.110786 266.96814 50.110786 265.54626L51.56391 265.54626Q51.56391 266.4369 52.142036 266.98376Q52.735786 267.515 53.72016 267.515Q54.767036 267.515 55.31391 266.96814Q55.87641 266.42126 55.87641 265.40564Q55.87641 264.40564 55.267036 263.8744Q54.65766 263.34314 53.517036 263.3275L52.423286 263.3275L52.423286 262.15564ZM66.45454 263.6869Q66.45454 266.23376 65.57954 267.46814Q64.72016 268.7025 62.87641 268.7025Q61.06391 268.7025 60.18891 267.4994Q59.31391 266.28064 59.28266 263.89L59.28266 261.9525Q59.28266 259.4525 60.142036 258.23376Q61.017036 257.015 62.860786 257.015Q64.70454 257.015 65.56391 258.1869Q66.43891 259.35876 66.45454 261.8119L66.45454 263.6869ZM65.01704 261.71814Q65.01704 259.8744 64.50141 259.04626Q63.985786 258.2025 62.860786 258.2025Q61.75141 258.2025 61.235786 259.04626Q60.735786 259.8744 60.72016 261.60876L60.72016 263.92126Q60.72016 265.765 61.25141 266.64Q61.798286 267.515 62.87641 267.515Q63.954536 267.515 64.47016 266.6869Q64.98579 265.85876 65.01704 264.0775L65.01704 261.71814ZM68.20454 259.35876Q68.20454 258.3275 68.84516 257.67126Q69.50141 256.9994 70.53266 256.9994Q71.56391 256.9994 72.20454 257.67126Q72.86079 258.34314 72.86079 259.40564L72.86079 259.9525Q72.86079 260.98376 72.20454 261.64Q71.54829 262.29626 70.54829 262.29626Q69.53266 262.29626 68.86079 261.64Q68.20454 260.98376 68.20454 259.90564L68.20454 259.35876ZM69.28266 259.9525Q69.28266 260.5619 69.62641 260.96814Q69.97016 261.35876 70.54829 261.35876Q71.09516 261.35876 71.43891 260.98376Q71.78266 260.59314 71.78266 259.92126L71.78266 259.35876Q71.78266 258.7494 71.43891 258.35876Q71.11079 257.9525 70.53266 257.9525Q69.95454 257.9525 69.61079 258.35876Q69.28266 258.7494 69.28266 259.39L69.28266 259.9525ZM73.73579 265.7494Q73.73579 264.73376 74.39204 264.0775Q75.04829 263.40564 76.06391 263.40564Q77.09516 263.40564 77.75141 264.0619Q78.40766 264.71814 78.40766 265.8119L78.40766 266.35876Q78.40766 267.39 77.75141 268.0619Q77.09516 268.71814 76.07954 268.71814Q75.06391 268.71814 74.39204 268.0619Q73.73579 267.40564 73.73579 266.3119L73.73579 265.7494ZM74.81391 266.35876Q74.81391 266.98376 75.15766 267.3744Q75.50141 267.765 76.07954 267.765Q76.64204 267.765 76.97016 267.39Q77.31391 266.9994 77.31391 266.3275L77.31391 265.7494Q77.31391 265.14 76.97016 264.7494Q76.64204 264.35876 76.06391 264.35876Q75.51704 264.35876 75.15766 264.7494Q74.81391 265.1244 74.81391 265.78064L74.81391 266.35876ZM70.87641 267.6869L70.04829 267.17126L75.61079 258.28064L76.42329 258.79626L70.87641 267.6869Z" fill-rule="nonzero"/><path fill="#000000" d="M56.423286 215.69173L58.00141 215.69173L58.00141 216.87923L56.423286 216.87923L56.423286 219.51985L54.97016 219.51985L54.97016 216.87923L49.798286 216.87923L49.798286 216.01985L54.892036 208.14485L56.423286 208.14485L56.423286 215.69173ZM51.43891 215.69173L54.97016 215.69173L54.97016 210.1136L54.798286 210.4261L51.43891 215.69173ZM66.45454 214.66048Q66.45454 217.20735 65.57954 218.44173Q64.72016 219.6761 62.87641 219.6761Q61.06391 219.6761 60.18891 218.47298Q59.31391 217.25423 59.28266 214.8636L59.28266 212.9261Q59.28266 210.4261 60.142036 209.20735Q61.017036 207.9886 62.860786 207.9886Q64.70454 207.9886 65.56391 209.16048Q66.43891 210.33235 66.45454 212.78548L66.45454 214.66048ZM65.01704 212.69173Q65.01704 210.84798 64.50141 210.01985Q63.985786 209.1761 62.860786 209.1761Q61.75141 209.1761 61.235786 210.01985Q60.735786 210.84798 60.72016 212.58235L60.72016 214.89485Q60.72016 216.7386 61.25141 217.6136Q61.798286 218.4886 62.87641 218.4886Q63.954536 218.4886 64.47016 217.66048Q64.98579 216.83235 65.01704 215.0511L65.01704 212.69173ZM68.20454 210.33235Q68.20454 209.3011 68.84516 208.64485Q69.50141 207.97298 70.53266 207.97298Q71.56391 207.97298 72.20454 208.64485Q72.86079 209.31673 72.86079 210.37923L72.86079 210.9261Q72.86079 211.95735 72.20454 212.6136Q71.54829 213.26985 70.54829 213.26985Q69.53266 213.26985 68.86079 212.6136Q68.20454 211.95735 68.20454 210.87923L68.20454 210.33235ZM69.28266 210.9261Q69.28266 211.53548 69.62641 211.94173Q69.97016 212.33235 70.54829 212.33235Q71.09516 212.33235 71.43891 211.95735Q71.78266 211.56673 71.78266 210.89485L71.78266 210.33235Q71.78266 209.72298 71.43891 209.33235Q71.11079 208.9261 70.53266 208.9261Q69.95454 208.9261 69.61079 209.33235Q69.28266 209.72298 69.28266 210.3636L69.28266 210.9261ZM73.73579 216.72298Q73.73579 215.70735 74.39204 215.0511Q75.04829 214.37923 76.06391 214.37923Q77.09516 214.37923 77.75141 215.03548Q78.40766 215.69173 78.40766 216.78548L78.40766 217.33235Q78.40766 218.3636 77.75141 219.03548Q77.09516 219.69173 76.07954 219.69173Q75.06391 219.69173 74.39204 219.03548Q73.73579 218.37923 73.73579 217.28548L73.73579 216.72298ZM74.81391 217.33235Q74.81391 217.95735 75.15766 218.34798Q75.50141 218.7386 76.07954 218.7386Q76.64204 218.7386 76.97016 218.3636Q77.31391 217.97298 77.31391 217.3011L77.31391 216.72298Q77.31391 216.1136 76.97016 215.72298Q76.64204 215.33235 76.06391 215.33235Q75.51704 215.33235 75.15766 215.72298Q74.81391 216.09798 74.81391 216.75423L74.81391 217.33235ZM70.87641 218.66048L70.04829 218.14485L75.61079 209.25423L76.42329 209.76985L70.87641 218.66048Z" fill-rule="nonzero"/><path fill="#000000" d="M50.985786 164.79031L51.56391 159.11844L57.392036 159.11844L57.392036 160.44656L52.798286 160.44656L52.454536 163.55594Q53.28266 163.05594 54.34516 163.05594Q55.90766 163.05594 56.81391 164.08719Q57.735786 165.11844 57.735786 166.86844Q57.735786 168.61844 56.78266 169.63406Q55.829536 170.64969 54.12641 170.64969Q52.62641 170.64969 51.673286 169.82156Q50.72016 168.97781 50.579536 167.49344L51.954536 167.49344Q52.079536 168.47781 52.642036 168.97781Q53.204536 169.46219 54.12641 169.46219Q55.142036 169.46219 55.704536 168.77469Q56.28266 168.08719 56.28266 166.88406Q56.28266 165.74344 55.65766 165.05594Q55.048286 164.35281 54.017036 164.35281Q53.06391 164.35281 52.53266 164.77469L52.142036 165.08719L50.985786 164.79031ZM66.45454 165.63406Q66.45454 168.18094 65.57954 169.41531Q64.72016 170.64969 62.87641 170.64969Q61.06391 170.64969 60.18891 169.44656Q59.31391 168.22781 59.28266 165.83719L59.28266 163.89969Q59.28266 161.39969 60.142036 160.18094Q61.017036 158.96219 62.860786 158.96219Q64.70454 158.96219 65.56391 160.13406Q66.43891 161.30594 66.45454 163.75906L66.45454 165.63406ZM65.01704 163.66531Q65.01704 161.82156 64.50141 160.99344Q63.985786 160.14969 62.860786 160.14969Q61.75141 160.14969 61.235786 160.99344Q60.735786 161.82156 60.72016 163.55594L60.72016 165.86844Q60.72016 167.71219 61.25141 168.58719Q61.798286 169.46219 62.87641 169.46219Q63.954536 169.46219 64.47016 168.63406Q64.98579 167.80594 65.01704 166.02469L65.01704 163.66531ZM68.20454 161.30594Q68.20454 160.27469 68.84516 159.61844Q69.50141 158.94656 70.53266 158.94656Q71.56391 158.94656 72.20454 159.61844Q72.86079 160.29031 72.86079 161.35281L72.86079 161.89969Q72.86079 162.93094 72.20454 163.58719Q71.54829 164.24344 70.54829 164.24344Q69.53266 164.24344 68.86079 163.58719Q68.20454 162.93094 68.20454 161.85281L68.20454 161.30594ZM69.28266 161.89969Q69.28266 162.50906 69.62641 162.91531Q69.97016 163.30594 70.54829 163.30594Q71.09516 163.30594 71.43891 162.93094Q71.78266 162.54031 71.78266 161.86844L71.78266 161.30594Q71.78266 160.69656 71.43891 160.30594Q71.11079 159.89969 70.53266 159.89969Q69.95454 159.89969 69.61079 160.30594Q69.28266 160.69656 69.28266 161.33719L69.28266 161.89969ZM73.73579 167.69656Q73.73579 166.68094 74.39204 166.02469Q75.04829 165.35281 76.06391 165.35281Q77.09516 165.35281 77.75141 166.00906Q78.40766 166.66531 78.40766 167.75906L78.40766 168.30594Q78.40766 169.33719 77.75141 170.00906Q77.09516 170.66531 76.07954 170.66531Q75.06391 170.66531 74.39204 170.00906Q73.73579 169.35281 73.73579 168.25906L73.73579 167.69656ZM74.81391 168.30594Q74.81391 168.93094 75.15766 169.32156Q75.50141 169.71219 76.07954 169.71219Q76.64204 169.71219 76.97016 169.33719Q77.31391 168.94656 77.31391 168.27469L77.31391 167.69656Q77.31391 167.08719 76.97016 166.69656Q76.64204 166.30594 76.06391 166.30594Q75.51704 166.30594 75.15766 166.69656Q74.81391 167.07156 74.81391 167.72781L74.81391 168.30594ZM70.87641 169.63406L70.04829 169.11844L75.61079 160.22781L76.42329 160.74344L70.87641 169.63406Z" fill-rule="nonzero"/><path fill="#000000" d="M56.00141 110.07639L56.00141 111.31077L55.735786 111.31077Q54.048286 111.34202 53.048286 112.31077Q52.048286 113.27952 51.892036 115.02952Q52.78266 113.99827 54.34516 113.99827Q55.829536 113.99827 56.704536 115.04514Q57.59516 116.09202 57.59516 117.74827Q57.59516 119.51389 56.642036 120.57639Q55.68891 121.62327 54.079536 121.62327Q52.43891 121.62327 51.423286 120.37327Q50.40766 119.10764 50.40766 117.13889L50.40766 116.57639Q50.40766 113.43577 51.75141 111.77952Q53.09516 110.12327 55.735786 110.07639L56.00141 110.07639ZM54.09516 115.20139Q53.360786 115.20139 52.735786 115.65452Q52.110786 116.09202 51.860786 116.76389L51.860786 117.29514Q51.860786 118.70139 52.485786 119.56077Q53.12641 120.42014 54.079536 120.42014Q55.048286 120.42014 55.610786 119.70139Q56.173286 118.98264 56.173286 117.82639Q56.173286 116.65452 55.59516 115.93577Q55.03266 115.20139 54.09516 115.20139ZM66.45454 116.60764Q66.45454 119.15452 65.57954 120.38889Q64.72016 121.62327 62.87641 121.62327Q61.06391 121.62327 60.18891 120.42014Q59.31391 119.20139 59.28266 116.81077L59.28266 114.87327Q59.28266 112.37327 60.142036 111.15452Q61.017036 109.93577 62.860786 109.93577Q64.70454 109.93577 65.56391 111.10764Q66.43891 112.27952 66.45454 114.73264L66.45454 116.60764ZM65.01704 114.63889Q65.01704 112.79514 64.50141 111.96702Q63.985786 111.12327 62.860786 111.12327Q61.75141 111.12327 61.235786 111.96702Q60.735786 112.79514 60.72016 114.52952L60.72016 116.84202Q60.72016 118.68577 61.25141 119.56077Q61.798286 120.43577 62.87641 120.43577Q63.954536 120.43577 64.47016 119.60764Q64.98579 118.77952 65.01704 116.99827L65.01704 114.63889ZM68.20454 112.27952Q68.20454 111.24827 68.84516 110.59202Q69.50141 109.92014 70.53266 109.92014Q71.56391 109.92014 72.20454 110.59202Q72.86079 111.26389 72.86079 112.32639L72.86079 112.87327Q72.86079 113.90452 72.20454 114.56077Q71.54829 115.21702 70.54829 115.21702Q69.53266 115.21702 68.86079 114.56077Q68.20454 113.90452 68.20454 112.82639L68.20454 112.27952ZM69.28266 112.87327Q69.28266 113.48264 69.62641 113.88889Q69.97016 114.27952 70.54829 114.27952Q71.09516 114.27952 71.43891 113.90452Q71.78266 113.51389 71.78266 112.84202L71.78266 112.27952Q71.78266 111.67014 71.43891 111.27952Q71.11079 110.87327 70.53266 110.87327Q69.95454 110.87327 69.61079 111.27952Q69.28266 111.67014 69.28266 112.31077L69.28266 112.87327ZM73.73579 118.67014Q73.73579 117.65452 74.39204 116.99827Q75.04829 116.32639 76.06391 116.32639Q77.09516 116.32639 77.75141 116.98264Q78.40766 117.63889 78.40766 118.73264L78.40766 119.27952Q78.40766 120.31077 77.75141 120.98264Q77.09516 121.63889 76.07954 121.63889Q75.06391 121.63889 74.39204 120.98264Q73.73579 120.32639 73.73579 119.23264L73.73579 118.67014ZM74.81391 119.27952Q74.81391 119.90452 75.15766 120.29514Q75.50141 120.68577 76.07954 120.68577Q76.64204 120.68577 76.97016 120.31077Q77.31391 119.92014 77.31391 119.24827L77.31391 118.67014Q77.31391 118.06077 76.97016 117.67014Q76.64204 117.27952 76.06391 117.27952Q75.51704 117.27952 75.15766 117.67014Q74.81391 118.04514 74.81391 118.70139L74.81391 119.27952ZM70.87641 120.60764L70.04829 120.09202L75.61079 111.20139L76.42329 111.71702L70.87641 120.60764Z" fill-rule="nonzero"/><path fill="#000000" d="M57.673286 61.878105L52.954536 72.440605L51.43891 72.440605L56.142036 62.253105L49.985786 62.253105L49.985786 61.065605L57.673286 61.065605L57.673286 61.878105ZM66.45454 67.58123Q66.45454 70.128105 65.57954 71.36248Q64.72016 72.596855 62.87641 72.596855Q61.06391 72.596855 60.18891 71.39373Q59.31391 70.17498 59.28266 67.784355L59.28266 65.846855Q59.28266 63.346855 60.142036 62.128105Q61.017036 60.909355 62.860786 60.909355Q64.70454 60.909355 65.56391 62.08123Q66.43891 63.253105 66.45454 65.70623L66.45454 67.58123ZM65.01704 65.61248Q65.01704 63.76873 64.50141 62.940605Q63.985786 62.096855 62.860786 62.096855Q61.75141 62.096855 61.235786 62.940605Q60.735786 63.76873 60.72016 65.503105L60.72016 67.815605Q60.72016 69.659355 61.25141 70.534355Q61.798286 71.409355 62.87641 71.409355Q63.954536 71.409355 64.47016 70.58123Q64.98579 69.753105 65.01704 67.971855L65.01704 65.61248ZM68.20454 63.253105Q68.20454 62.221855 68.84516 61.565605Q69.50141 60.89373 70.53266 60.89373Q71.56391 60.89373 72.20454 61.565605Q72.86079 62.23748 72.86079 63.29998L72.86079 63.846855Q72.86079 64.878105 72.20454 65.534355Q71.54829 66.190605 70.54829 66.190605Q69.53266 66.190605 68.86079 65.534355Q68.20454 64.878105 68.20454 63.79998L68.20454 63.253105ZM69.28266 63.846855Q69.28266 64.45623 69.62641 64.86248Q69.97016 65.253105 70.54829 65.253105Q71.09516 65.253105 71.43891 64.878105Q71.78266 64.48748 71.78266 63.815605L71.78266 63.253105Q71.78266 62.64373 71.43891 62.253105Q71.11079 61.846855 70.53266 61.846855Q69.95454 61.846855 69.61079 62.253105Q69.28266 62.64373 69.28266 63.284355L69.28266 63.846855ZM73.73579 69.64373Q73.73579 68.628105 74.39204 67.971855Q75.04829 67.29998 76.06391 67.29998Q77.09516 67.29998 77.75141 67.95623Q78.40766 68.61248 78.40766 69.70623L78.40766 70.253105Q78.40766 71.284355 77.75141 71.95623Q77.09516 72.61248 76.07954 72.61248Q75.06391 72.61248 74.39204 71.95623Q73.73579 71.29998 73.73579 70.20623L73.73579 69.64373ZM74.81391 70.253105Q74.81391 70.878105 75.15766 71.26873Q75.50141 71.659355 76.07954 71.659355Q76.64204 71.659355 76.97016 71.284355Q77.31391 70.89373 77.31391 70.221855L77.31391 69.64373Q77.31391 69.034355 76.97016 68.64373Q76.64204 68.253105 76.06391 68.253105Q75.51704 68.253105 75.15766 68.64373Q74.81391 69.01873 74.81391 69.67498L74.81391 70.253105ZM70.87641 71.58123L70.04829 71.065605L75.61079 62.17498L76.42329 62.690605L70.87641 71.58123Z" fill-rule="nonzero"/><path fill="#000000" d="M111.390686 433.12552L103.93756 433.12552L103.93756 432.07864L107.87506 427.70364Q108.75006 426.71927 109.078186 426.09427Q109.40631 425.46927 109.40631 424.81302Q109.40631 423.9224 108.859436 423.3599Q108.328186 422.78177 107.43756 422.78177Q106.359436 422.78177 105.75006 423.39114Q105.15631 424.00052 105.15631 425.09427L103.71881 425.09427Q103.71881 423.53177 104.71881 422.56302Q105.734436 421.59427 107.43756 421.59427Q109.015686 421.59427 109.93756 422.4224Q110.859436 423.25052 110.859436 424.64114Q110.859436 426.31302 108.71881 428.64114L105.671936 431.93802L111.390686 431.93802L111.390686 433.12552ZM113.59381 427.4224L114.171936 421.75052L120.00006 421.75052L120.00006 423.07864L115.40631 423.07864L115.06256 426.18802Q115.890686 425.68802 116.953186 425.68802Q118.515686 425.68802 119.421936 426.71927Q120.34381 427.75052 120.34381 429.50052Q120.34381 431.25052 119.390686 432.26614Q118.43756 433.28177 116.734436 433.28177Q115.234436 433.28177 114.28131 432.45364Q113.328186 431.6099 113.18756 430.12552L114.56256 430.12552Q114.68756 431.1099 115.25006 431.6099Q115.81256 432.09427 116.734436 432.09427Q117.75006 432.09427 118.31256 431.40677Q118.890686 430.71927 118.890686 429.51614Q118.890686 428.37552 118.265686 427.68802Q117.65631 426.9849 116.62506 426.9849Q115.671936 426.9849 115.140686 427.40677L114.75006 427.71927L113.59381 427.4224ZM129.06256 428.26614Q129.06256 430.81302 128.18756 432.0474Q127.328186 433.28177 125.484436 433.28177Q123.671936 433.28177 122.796936 432.07864Q121.921936 430.8599 121.890686 428.46927L121.890686 426.53177Q121.890686 424.03177 122.75006 422.81302Q123.62506 421.59427 125.46881 421.59427Q127.31256 421.59427 128.17194 422.76614Q129.04694 423.93802 129.06256 426.39114L129.06256 428.26614ZM127.62506 426.2974Q127.62506 424.45364 127.109436 423.62552Q126.59381 422.78177 125.46881 422.78177Q124.359436 422.78177 123.84381 423.62552Q123.34381 424.45364 123.328186 426.18802L123.328186 428.50052Q123.328186 430.34427 123.859436 431.21927Q124.40631 432.09427 125.484436 432.09427Q126.56256 432.09427 127.078186 431.26614Q127.59381 430.43802 127.62506 428.65677L127.62506 426.2974Z" fill-rule="nonzero"/><path fill="#000000" d="M162.80986 427.4224L163.38799 421.75052L169.21611 421.75052L169.21611 423.07864L164.62236 423.07864L164.27861 426.18802Q165.10674 425.68802 166.16924 425.68802Q167.73174 425.68802 168.63799 426.71927Q169.55986 427.75052 169.55986 429.50052Q169.55986 431.25052 168.60674 432.26614Q167.65361 433.28177 165.95049 433.28177Q164.45049 433.28177 163.49736 432.45364Q162.54424 431.6099 162.40361 430.12552L163.77861 430.12552Q163.90361 431.1099 164.46611 431.6099Q165.02861 432.09427 165.95049 432.09427Q166.96611 432.09427 167.52861 431.40677Q168.10674 430.71927 168.10674 429.51614Q168.10674 428.37552 167.48174 427.68802Q166.87236 426.9849 165.84111 426.9849Q164.88799 426.9849 164.35674 427.40677L163.96611 427.71927L162.80986 427.4224ZM178.27861 428.26614Q178.27861 430.81302 177.40361 432.0474Q176.54424 433.28177 174.70049 433.28177Q172.88799 433.28177 172.01299 432.07864Q171.13799 430.8599 171.10674 428.46927L171.10674 426.53177Q171.10674 424.03177 171.96611 422.81302Q172.84111 421.59427 174.68486 421.59427Q176.52861 421.59427 177.38799 422.76614Q178.26299 423.93802 178.27861 426.39114L178.27861 428.26614ZM176.84111 426.2974Q176.84111 424.45364 176.32549 423.62552Q175.80986 422.78177 174.68486 422.78177Q173.57549 422.78177 173.05986 423.62552Q172.55986 424.45364 172.54424 426.18802L172.54424 428.50052Q172.54424 430.34427 173.07549 431.21927Q173.62236 432.09427 174.70049 432.09427Q175.77861 432.09427 176.29424 431.26614Q176.80986 430.43802 176.84111 428.65677L176.84111 426.2974ZM187.27861 428.26614Q187.27861 430.81302 186.40361 432.0474Q185.54424 433.28177 183.70049 433.28177Q181.88799 433.28177 181.01299 432.07864Q180.13799 430.8599 180.10674 428.46927L180.10674 426.53177Q180.10674 424.03177 180.96611 422.81302Q181.84111 421.59427 183.68486 421.59427Q185.52861 421.59427 186.38799 422.76614Q187.26299 423.93802 187.27861 426.39114L187.27861 428.26614ZM185.84111 426.2974Q185.84111 424.45364 185.32549 423.62552Q184.80986 422.78177 183.68486 422.78177Q182.57549 422.78177 182.05986 423.62552Q181.55986 424.45364 181.54424 426.18802L181.54424 428.50052Q181.54424 430.34427 182.07549 431.21927Q182.62236 432.09427 183.70049 432.09427Q184.77861 432.09427 185.29424 431.26614Q185.80986 430.43802 185.84111 428.65677L185.84111 426.2974Z" fill-rule="nonzero"/><path fill="#000000" d="M227.71341 422.56302L222.99466 433.12552L221.47903 433.12552L226.18216 422.93802L220.02591 422.93802L220.02591 421.75052L227.71341 421.75052L227.71341 422.56302ZM230.02591 427.4224L230.60403 421.75052L236.43216 421.75052L236.43216 423.07864L231.83841 423.07864L231.49466 426.18802Q232.32278 425.68802 233.38528 425.68802Q234.94778 425.68802 235.85403 426.71927Q236.77591 427.75052 236.77591 429.50052Q236.77591 431.25052 235.82278 432.26614Q234.86966 433.28177 233.16653 433.28177Q231.66653 433.28177 230.71341 432.45364Q229.76028 431.6099 229.61966 430.12552L230.99466 430.12552Q231.11966 431.1099 231.68216 431.6099Q232.24466 432.09427 233.16653 432.09427Q234.18216 432.09427 234.74466 431.40677Q235.32278 430.71927 235.32278 429.51614Q235.32278 428.37552 234.69778 427.68802Q234.08841 426.9849 233.05716 426.9849Q232.10403 426.9849 231.57278 427.40677L231.18216 427.71927L230.02591 427.4224ZM245.49466 428.26614Q245.49466 430.81302 244.61966 432.0474Q243.76028 433.28177 241.91653 433.28177Q240.10403 433.28177 239.22903 432.07864Q238.35403 430.8599 238.32278 428.46927L238.32278 426.53177Q238.32278 424.03177 239.18216 422.81302Q240.05716 421.59427 241.90091 421.59427Q243.74466 421.59427 244.60403 422.76614Q245.47903 423.93802 245.49466 426.39114L245.49466 428.26614ZM244.05716 426.2974Q244.05716 424.45364 243.54153 423.62552Q243.02591 422.78177 241.90091 422.78177Q240.79153 422.78177 240.27591 423.62552Q239.77591 424.45364 239.76028 426.18802L239.76028 428.50052Q239.76028 430.34427 240.29153 431.21927Q240.83841 432.09427 241.91653 432.09427Q242.99466 432.09427 243.51028 431.26614Q244.02591 430.43802 244.05716 428.65677L244.05716 426.2974Z" fill-rule="nonzero"/><path fill="#000000" d="M277.3357 433.12552L275.88257 433.12552L275.88257 423.4849L272.9607 424.56302L272.9607 423.25052L277.10132 421.68802L277.3357 421.68802L277.3357 433.12552ZM281.67944 435.39114L280.86694 434.82864Q281.60132 433.81302 281.63257 432.71927L281.63257 431.40677L283.03882 431.40677L283.03882 432.5474Q283.03882 433.34427 282.6482 434.12552Q282.2732 434.9224 281.67944 435.39114ZM291.7107 428.26614Q291.7107 430.81302 290.8357 432.0474Q289.97632 433.28177 288.13257 433.28177Q286.32007 433.28177 285.44507 432.07864Q284.57007 430.8599 284.53882 428.46927L284.53882 426.53177Q284.53882 424.03177 285.3982 422.81302Q286.2732 421.59427 288.11694 421.59427Q289.9607 421.59427 290.82007 422.76614Q291.69507 423.93802 291.7107 426.39114L291.7107 428.26614ZM290.2732 426.2974Q290.2732 424.45364 289.75757 423.62552Q289.24194 422.78177 288.11694 422.78177Q287.00757 422.78177 286.49194 423.62552Q285.99194 424.45364 285.97632 426.18802L285.97632 428.50052Q285.97632 430.34427 286.50757 431.21927Q287.05444 432.09427 288.13257 432.09427Q289.2107 432.09427 289.72632 431.26614Q290.24194 430.43802 290.2732 428.65677L290.2732 426.2974ZM300.7107 428.26614Q300.7107 430.81302 299.8357 432.0474Q298.97632 433.28177 297.13257 433.28177Q295.32007 433.28177 294.44507 432.07864Q293.57007 430.8599 293.53882 428.46927L293.53882 426.53177Q293.53882 424.03177 294.3982 422.81302Q295.2732 421.59427 297.11694 421.59427Q298.9607 421.59427 299.82007 422.76614Q300.69507 423.93802 300.7107 426.39114L300.7107 428.26614ZM299.2732 426.2974Q299.2732 424.45364 298.75757 423.62552Q298.24194 422.78177 297.11694 422.78177Q296.00757 422.78177 295.49194 423.62552Q294.99194 424.45364 294.97632 426.18802L294.97632 428.50052Q294.97632 430.34427 295.50757 431.21927Q296.05444 432.09427 297.13257 432.09427Q298.2107 432.09427 298.72632 431.26614Q299.24194 430.43802 299.2732 428.65677L299.2732 426.2974ZM309.7107 428.26614Q309.7107 430.81302 308.8357 432.0474Q307.97632 433.28177 306.13257 433.28177Q304.32007 433.28177 303.44507 432.07864Q302.57007 430.8599 302.53882 428.46927L302.53882 426.53177Q302.53882 424.03177 303.3982 422.81302Q304.2732 421.59427 306.11694 421.59427Q307.9607 421.59427 308.82007 422.76614Q309.69507 423.93802 309.7107 426.39114L309.7107 428.26614ZM308.2732 426.2974Q308.2732 424.45364 307.75757 423.62552Q307.24194 422.78177 306.11694 422.78177Q305.00757 422.78177 304.49194 423.62552Q303.99194 424.45364 303.97632 426.18802L303.97632 428.50052Q303.97632 430.34427 304.50757 431.21927Q305.05444 432.09427 306.13257 432.09427Q307.2107 432.09427 307.72632 431.26614Q308.24194 430.43802 308.2732 428.65677L308.2732 426.2974Z" fill-rule="nonzero"/><path fill="#000000" d="M335.55176 433.12552L334.09863 433.12552L334.09863 423.4849L331.17676 424.56302L331.17676 423.25052L335.31738 421.68802L335.55176 421.68802L335.55176 433.12552ZM339.8955 435.39114L339.083 434.82864Q339.81738 433.81302 339.84863 432.71927L339.84863 431.40677L341.25488 431.40677L341.25488 432.5474Q341.25488 433.34427 340.86426 434.12552Q340.48926 434.9224 339.8955 435.39114ZM350.25488 433.12552L342.80176 433.12552L342.80176 432.07864L346.73926 427.70364Q347.61426 426.71927 347.94238 426.09427Q348.2705 425.46927 348.2705 424.81302Q348.2705 423.9224 347.72363 423.3599Q347.19238 422.78177 346.30176 422.78177Q345.22363 422.78177 344.61426 423.39114Q344.0205 424.00052 344.0205 425.09427L342.583 425.09427Q342.583 423.53177 343.583 422.56302Q344.59863 421.59427 346.30176 421.59427Q347.87988 421.59427 348.80176 422.4224Q349.72363 423.25052 349.72363 424.64114Q349.72363 426.31302 347.583 428.64114L344.53613 431.93802L350.25488 431.93802L350.25488 433.12552ZM352.458 427.4224L353.03613 421.75052L358.86426 421.75052L358.86426 423.07864L354.2705 423.07864L353.92676 426.18802Q354.75488 425.68802 355.81738 425.68802Q357.37988 425.68802 358.28613 426.71927Q359.208 427.75052 359.208 429.50052Q359.208 431.25052 358.25488 432.26614Q357.30176 433.28177 355.59863 433.28177Q354.09863 433.28177 353.1455 432.45364Q352.19238 431.6099 352.05176 430.12552L353.42676 430.12552Q353.55176 431.1099 354.11426 431.6099Q354.67676 432.09427 355.59863 432.09427Q356.61426 432.09427 357.17676 431.40677Q357.75488 430.71927 357.75488 429.51614Q357.75488 428.37552 357.12988 427.68802Q356.5205 426.9849 355.48926 426.9849Q354.53613 426.9849 354.00488 427.40677L353.61426 427.71927L352.458 427.4224ZM367.92676 428.26614Q367.92676 430.81302 367.05176 432.0474Q366.19238 433.28177 364.34863 433.28177Q362.53613 433.28177 361.66113 432.07864Q360.78613 430.8599 360.75488 428.46927L360.75488 426.53177Q360.75488 424.03177 361.61426 422.81302Q362.48926 421.59427 364.333 421.59427Q366.17676 421.59427 367.03613 422.76614Q367.91113 423.93802 367.92676 426.39114L367.92676 428.26614ZM366.48926 426.2974Q366.48926 424.45364 365.97363 423.62552Q365.458 422.78177 364.333 422.78177Q363.22363 422.78177 362.708 423.62552Q362.208 424.45364 362.19238 426.18802L362.19238 428.50052Q362.19238 430.34427 362.72363 431.21927Q363.2705 432.09427 364.34863 432.09427Q365.42676 432.09427 365.94238 431.26614Q366.458 430.43802 366.48926 428.65677L366.48926 426.2974Z" fill-rule="nonzero"/><path fill="#000000" d="M393.7678 433.12552L392.31467 433.12552L392.31467 423.4849L389.3928 424.56302L389.3928 423.25052L393.53342 421.68802L393.7678 421.68802L393.7678 433.12552ZM398.11154 435.39114L397.29904 434.82864Q398.03342 433.81302 398.06467 432.71927L398.06467 431.40677L399.47092 431.40677L399.47092 432.5474Q399.47092 433.34427 399.0803 434.12552Q398.7053 434.9224 398.11154 435.39114ZM401.67404 427.4224L402.25217 421.75052L408.0803 421.75052L408.0803 423.07864L403.48654 423.07864L403.1428 426.18802Q403.97092 425.68802 405.03342 425.68802Q406.59592 425.68802 407.50217 426.71927Q408.42404 427.75052 408.42404 429.50052Q408.42404 431.25052 407.47092 432.26614Q406.5178 433.28177 404.81467 433.28177Q403.31467 433.28177 402.36154 432.45364Q401.40842 431.6099 401.2678 430.12552L402.6428 430.12552Q402.7678 431.1099 403.3303 431.6099Q403.8928 432.09427 404.81467 432.09427Q405.8303 432.09427 406.3928 431.40677Q406.97092 430.71927 406.97092 429.51614Q406.97092 428.37552 406.34592 427.68802Q405.73654 426.9849 404.7053 426.9849Q403.75217 426.9849 403.22092 427.40677L402.8303 427.71927L401.67404 427.4224ZM417.1428 428.26614Q417.1428 430.81302 416.2678 432.0474Q415.40842 433.28177 413.56467 433.28177Q411.75217 433.28177 410.87717 432.07864Q410.00217 430.8599 409.97092 428.46927L409.97092 426.53177Q409.97092 424.03177 410.8303 422.81302Q411.7053 421.59427 413.54904 421.59427Q415.3928 421.59427 416.25217 422.76614Q417.12717 423.93802 417.1428 426.39114L417.1428 428.26614ZM415.7053 426.2974Q415.7053 424.45364 415.18967 423.62552Q414.67404 422.78177 413.54904 422.78177Q412.43967 422.78177 411.92404 423.62552Q411.42404 424.45364 411.40842 426.18802L411.40842 428.50052Q411.40842 430.34427 411.93967 431.21927Q412.48654 432.09427 413.56467 432.09427Q414.6428 432.09427 415.15842 431.26614Q415.67404 430.43802 415.7053 428.65677L415.7053 426.2974ZM426.1428 428.26614Q426.1428 430.81302 425.2678 432.0474Q424.40842 433.28177 422.56467 433.28177Q420.75217 433.28177 419.87717 432.07864Q419.00217 430.8599 418.97092 428.46927L418.97092 426.53177Q418.97092 424.03177 419.8303 422.81302Q420.7053 421.59427 422.54904 421.59427Q424.3928 421.59427 425.25217 422.76614Q426.12717 423.93802 426.1428 426.39114L426.1428 428.26614ZM424.7053 426.2974Q424.7053 424.45364 424.18967 423.62552Q423.67404 422.78177 422.54904 422.78177Q421.43967 422.78177 420.92404 423.62552Q420.42404 424.45364 420.40842 426.18802L420.40842 428.50052Q420.40842 430.34427 420.93967 431.21927Q421.48654 432.09427 422.56467 432.09427Q423.6428 432.09427 424.15842 431.26614Q424.67404 430.43802 424.7053 428.65677L424.7053 426.2974Z" fill-rule="nonzero"/><path fill="#000000" d="M451.98386 433.12552L450.53073 433.12552L450.53073 423.4849L447.60886 424.56302L447.60886 423.25052L451.74948 421.68802L451.98386 421.68802L451.98386 433.12552ZM456.3276 435.39114L455.5151 434.82864Q456.24948 433.81302 456.28073 432.71927L456.28073 431.40677L457.68698 431.40677L457.68698 432.5474Q457.68698 433.34427 457.29636 434.12552Q456.92136 434.9224 456.3276 435.39114ZM466.5776 422.56302L461.85886 433.12552L460.34323 433.12552L465.04636 422.93802L458.8901 422.93802L458.8901 421.75052L466.5776 421.75052L466.5776 422.56302ZM468.8901 427.4224L469.46823 421.75052L475.29636 421.75052L475.29636 423.07864L470.7026 423.07864L470.35886 426.18802Q471.18698 425.68802 472.24948 425.68802Q473.81198 425.68802 474.71823 426.71927Q475.6401 427.75052 475.6401 429.50052Q475.6401 431.25052 474.68698 432.26614Q473.73386 433.28177 472.03073 433.28177Q470.53073 433.28177 469.5776 432.45364Q468.62448 431.6099 468.48386 430.12552L469.85886 430.12552Q469.98386 431.1099 470.54636 431.6099Q471.10886 432.09427 472.03073 432.09427Q473.04636 432.09427 473.60886 431.40677Q474.18698 430.71927 474.18698 429.51614Q474.18698 428.37552 473.56198 427.68802Q472.9526 426.9849 471.92136 426.9849Q470.96823 426.9849 470.43698 427.40677L470.04636 427.71927L468.8901 427.4224ZM484.35886 428.26614Q484.35886 430.81302 483.48386 432.0474Q482.62448 433.28177 480.78073 433.28177Q478.96823 433.28177 478.09323 432.07864Q477.21823 430.8599 477.18698 428.46927L477.18698 426.53177Q477.18698 424.03177 478.04636 422.81302Q478.92136 421.59427 480.7651 421.59427Q482.60886 421.59427 483.46823 422.76614Q484.34323 423.93802 484.35886 426.39114L484.35886 428.26614ZM482.92136 426.2974Q482.92136 424.45364 482.40573 423.62552Q481.8901 422.78177 480.7651 422.78177Q479.65573 422.78177 479.1401 423.62552Q478.6401 424.45364 478.62448 426.18802L478.62448 428.50052Q478.62448 430.34427 479.15573 431.21927Q479.7026 432.09427 480.78073 432.09427Q481.85886 432.09427 482.37448 431.26614Q482.8901 430.43802 482.92136 428.65677L482.92136 426.2974Z" fill-rule="nonzero"/><path fill="#000000" d="M512.903 433.12552L505.4499 433.12552L505.4499 432.07864L509.3874 427.70364Q510.2624 426.71927 510.5905 426.09427Q510.91864 425.46927 510.91864 424.81302Q510.91864 423.9224 510.37177 423.3599Q509.8405 422.78177 508.9499 422.78177Q507.87177 422.78177 507.2624 423.39114Q506.66864 424.00052 506.66864 425.09427L505.23114 425.09427Q505.23114 423.53177 506.23114 422.56302Q507.24677 421.59427 508.9499 421.59427Q510.528 421.59427 511.4499 422.4224Q512.37177 423.25052 512.37177 424.64114Q512.37177 426.31302 510.23114 428.64114L507.18427 431.93802L512.903 431.93802L512.903 433.12552ZM514.54364 435.39114L513.73114 434.82864Q514.4655 433.81302 514.49677 432.71927L514.49677 431.40677L515.903 431.40677L515.903 432.5474Q515.903 433.34427 515.5124 434.12552Q515.1374 434.9224 514.54364 435.39114ZM524.5749 428.26614Q524.5749 430.81302 523.6999 432.0474Q522.8405 433.28177 520.99677 433.28177Q519.18427 433.28177 518.30927 432.07864Q517.43427 430.8599 517.403 428.46927L517.403 426.53177Q517.403 424.03177 518.2624 422.81302Q519.1374 421.59427 520.98114 421.59427Q522.8249 421.59427 523.68427 422.76614Q524.55927 423.93802 524.5749 426.39114L524.5749 428.26614ZM523.1374 426.2974Q523.1374 424.45364 522.62177 423.62552Q522.10614 422.78177 520.98114 422.78177Q519.87177 422.78177 519.35614 423.62552Q518.85614 424.45364 518.8405 426.18802L518.8405 428.50052Q518.8405 430.34427 519.37177 431.21927Q519.91864 432.09427 520.99677 432.09427Q522.0749 432.09427 522.5905 431.26614Q523.10614 430.43802 523.1374 428.65677L523.1374 426.2974ZM533.5749 428.26614Q533.5749 430.81302 532.6999 432.0474Q531.8405 433.28177 529.99677 433.28177Q528.18427 433.28177 527.30927 432.07864Q526.43427 430.8599 526.403 428.46927L526.403 426.53177Q526.403 424.03177 527.2624 422.81302Q528.1374 421.59427 529.98114 421.59427Q531.8249 421.59427 532.68427 422.76614Q533.55927 423.93802 533.5749 426.39114L533.5749 428.26614ZM532.1374 426.2974Q532.1374 424.45364 531.62177 423.62552Q531.10614 422.78177 529.98114 422.78177Q528.87177 422.78177 528.35614 423.62552Q527.85614 424.45364 527.8405 426.18802L527.8405 428.50052Q527.8405 430.34427 528.37177 431.21927Q528.91864 432.09427 529.99677 432.09427Q531.0749 432.09427 531.5905 431.26614Q532.10614 430.43802 532.1374 428.65677L532.1374 426.2974ZM542.5749 428.26614Q542.5749 430.81302 541.6999 432.0474Q540.8405 433.28177 538.99677 433.28177Q537.18427 433.28177 536.30927 432.07864Q535.43427 430.8599 535.403 428.46927L535.403 426.53177Q535.403 424.03177 536.2624 422.81302Q537.1374 421.59427 538.98114 421.59427Q540.8249 421.59427 541.68427 422.76614Q542.55927 423.93802 542.5749 426.39114L542.5749 428.26614ZM541.1374 426.2974Q541.1374 424.45364 540.62177 423.62552Q540.10614 422.78177 538.98114 422.78177Q537.87177 422.78177 537.35614 423.62552Q536.85614 424.45364 536.8405 426.18802L536.8405 428.50052Q536.8405 430.34427 537.37177 431.21927Q537.91864 432.09427 538.99677 432.09427Q540.0749 432.09427 540.5905 431.26614Q541.10614 430.43802 541.1374 428.65677L541.1374 426.2974Z" fill-rule="nonzero"/><path fill="#ea4335" d="M591.2299 76.440605C591.2299 79.75431 588.54364 82.440605 585.2299 82.440605C581.9162 82.440605 579.2299 79.75431 579.2299 76.440605C579.2299 73.12689 581.9162 70.440605 585.2299 70.440605C588.54364 70.440605 591.2299 73.12689 591.2299 76.440605Z" fill-rule="nonzero"/><path fill="#1a1a1a" d="M604.4174 74.784355Q604.0893 74.721855 603.69867 74.721855Q602.2768 74.721855 601.7768 75.940605L601.7768 81.940605L600.32367 81.940605L600.32367 73.48748L601.7299 73.48748L601.76117 74.45623Q602.4643 73.33123 603.7768 73.33123Q604.19867 73.33123 604.4174 73.440605L604.4174 74.784355ZM606.9018 81.940605L605.44867 81.940605L605.44867 73.48748L606.9018 73.48748L606.9018 81.940605ZM605.3393 71.23748Q605.3393 70.89373 605.5424 70.659355Q605.76117 70.409355 606.18304 70.409355Q606.6049 70.409355 606.82367 70.659355Q607.0424 70.89373 607.0424 71.253105Q607.0424 71.596855 606.82367 71.83123Q606.6049 72.065605 606.18304 72.065605Q605.76117 72.065605 605.5424 71.83123Q605.3393 71.596855 605.3393 71.23748ZM614.24554 79.690605Q614.24554 79.11248 613.80804 78.784355Q613.37054 78.45623 612.26117 78.221855Q611.1674 77.98748 610.5268 77.659355Q609.88617 77.33123 609.57367 76.878105Q609.26117 76.42498 609.26117 75.79998Q609.26117 74.76873 610.13617 74.04998Q611.0268 73.33123 612.38617 73.33123Q613.82367 73.33123 614.7143 74.08123Q615.62054 74.815605 615.62054 75.971855L614.1674 75.971855Q614.1674 75.378105 613.6518 74.95623Q613.1518 74.51873 612.38617 74.51873Q611.6049 74.51873 611.1518 74.86248Q610.7143 75.20623 610.7143 75.753105Q610.7143 76.284355 611.12054 76.54998Q611.5424 76.815605 612.62054 77.065605Q613.69867 77.29998 614.37054 77.64373Q615.0424 77.971855 615.37054 78.440605Q615.69867 78.909355 615.69867 79.596855Q615.69867 80.721855 614.7924 81.409355Q613.88617 82.096855 612.43304 82.096855Q611.4174 82.096855 610.63617 81.73748Q609.8549 81.378105 609.4174 80.73748Q608.9799 80.08123 608.9799 79.33123L610.4174 79.33123Q610.4643 80.065605 610.99554 80.48748Q611.5424 80.909355 612.43304 80.909355Q613.26117 80.909355 613.74554 80.58123Q614.24554 80.253105 614.24554 79.690605ZM619.2924 71.440605L619.2924 73.48748L620.87054 73.48748L620.87054 74.596855L619.2924 74.596855L619.2924 79.846855Q619.2924 80.346855 619.49554 80.61248Q619.7143 80.86248 620.2143 80.86248Q620.4643 80.86248 620.9018 80.76873L620.9018 81.940605Q620.3393 82.096855 619.7924 82.096855Q618.82367 82.096855 618.32367 81.51873Q617.8393 80.92498 617.8393 79.846855L617.8393 74.596855L616.30804 74.596855L616.30804 73.48748L617.8393 73.48748L617.8393 71.440605L619.2924 71.440605ZM626.4174 74.784355Q626.0893 74.721855 625.69867 74.721855Q624.2768 74.721855 623.7768 75.940605L623.7768 81.940605L622.32367 81.940605L622.32367 73.48748L623.7299 73.48748L623.76117 74.45623Q624.4643 73.33123 625.7768 73.33123Q626.19867 73.33123 626.4174 73.440605L626.4174 74.784355ZM630.8393 82.096855Q629.12054 82.096855 628.0424 80.971855Q626.9643 79.83123 626.9643 77.940605L626.9643 77.67498Q626.9643 76.42498 627.43304 75.440605Q627.9174 74.440605 628.7768 73.89373Q629.6518 73.33123 630.6518 73.33123Q632.30804 73.33123 633.2143 74.42498Q634.13617 75.503105 634.13617 77.51873L634.13617 78.128105L628.4018 78.128105Q628.43304 79.378105 629.13617 80.14373Q629.8393 80.909355 630.9174 80.909355Q631.68304 80.909355 632.2143 80.596855Q632.74554 80.284355 633.13617 79.76873L634.0268 80.45623Q632.9643 82.096855 630.8393 82.096855ZM630.6518 74.51873Q629.7768 74.51873 629.18304 75.159355Q628.5893 75.784355 628.44867 76.940605L632.68304 76.940605L632.68304 76.83123Q632.62054 75.721855 632.0893 75.128105Q631.55804 74.51873 630.6518 74.51873ZM637.2924 71.440605L637.2924 73.48748L638.87054 73.48748L638.87054 74.596855L637.2924 74.596855L637.2924 79.846855Q637.2924 80.346855 637.49554 80.61248Q637.7143 80.86248 638.2143 80.86248Q638.4643 80.86248 638.9018 80.76873L638.9018 81.940605Q638.3393 82.096855 637.7924 82.096855Q636.82367 82.096855 636.32367 81.51873Q635.8393 80.92498 635.8393 79.846855L635.8393 74.596855L634.30804 74.596855L634.30804 73.48748L635.8393 73.48748L635.8393 71.440605L637.2924 71.440605ZM642.2924 71.440605L642.2924 73.48748L643.87054 73.48748L643.87054 74.596855L642.2924 74.596855L642.2924 79.846855Q642.2924 80.346855 642.49554 80.61248Q642.7143 80.86248 643.2143 80.86248Q643.4643 80.86248 643.9018 80.76873L643.9018 81.940605Q643.3393 82.096855 642.7924 82.096855Q641.82367 82.096855 641.32367 81.51873Q640.8393 80.92498 640.8393 79.846855L640.8393 74.596855L639.30804 74.596855L639.30804 73.48748L640.8393 73.48748L640.8393 71.440605L642.2924 71.440605ZM644.94867 77.628105Q644.94867 76.39373 645.43304 75.409355Q645.9174 74.409355 646.7924 73.878105Q647.6674 73.33123 648.7768 73.33123Q650.51117 73.33123 651.57367 74.534355Q652.63617 75.721855 652.63617 77.70623L652.63617 77.79998Q652.63617 79.034355 652.1674 80.01873Q651.69867 81.003105 650.80804 81.54998Q649.93304 82.096855 648.7924 82.096855Q647.07367 82.096855 646.01117 80.909355Q644.94867 79.70623 644.94867 77.73748L644.94867 77.628105ZM646.4018 77.79998Q646.4018 79.20623 647.0424 80.065605Q647.69867 80.909355 648.7924 80.909355Q649.9018 80.909355 650.5424 80.04998Q651.19867 79.190605 651.19867 77.628105Q651.19867 76.23748 650.5268 75.378105Q649.87054 74.51873 648.7768 74.51873Q647.7143 74.51873 647.05804 75.378105Q646.4018 76.221855 646.4018 77.79998Z" fill-rule="nonzero"/><path fill="#46bdc6" d="M591.2299 105.440605C591.2299 108.75431 588.54364 111.440605 585.2299 111.440605C581.9162 111.440605 579.2299 108.75431 579.2299 105.440605C579.2299 102.12689 581.9162 99.440605 585.2299 99.440605C588.54364 99.440605 591.2299 102.12689 591.2299 105.440605Z" fill-rule="nonzero"/><path fill="#1a1a1a" d="M599.9799 106.64373Q599.9799 104.659355 600.88617 103.503105Q601.80804 102.33123 603.32367 102.33123Q604.87054 102.33123 605.7299 103.42498L605.80804 102.48748L607.12054 102.48748L607.12054 110.73748Q607.12054 112.378105 606.1518 113.315605Q605.18304 114.26873 603.5424 114.26873Q602.62054 114.26873 601.74554 113.878105Q600.87054 113.48748 600.4174 112.815605L601.1674 111.940605Q602.0893 113.096855 603.43304 113.096855Q604.49554 113.096855 605.07367 112.503105Q605.6674 111.909355 605.6674 110.815605L605.6674 110.096855Q604.80804 111.096855 603.30804 111.096855Q601.82367 111.096855 600.9018 109.909355Q599.9799 108.70623 599.9799 106.64373ZM601.43304 106.79998Q601.43304 108.23748 602.01117 109.04998Q602.6049 109.86248 603.6674 109.86248Q605.0268 109.86248 605.6674 108.628105L605.6674 104.76873Q605.01117 103.54998 603.68304 103.54998Q602.62054 103.54998 602.0268 104.378105Q601.43304 105.190605 601.43304 106.79998ZM608.94867 106.628105Q608.94867 105.39373 609.43304 104.409355Q609.9174 103.409355 610.7924 102.878105Q611.6674 102.33123 612.7768 102.33123Q614.51117 102.33123 615.57367 103.534355Q616.63617 104.721855 616.63617 106.70623L616.63617 106.79998Q616.63617 108.034355 616.1674 109.01873Q615.69867 110.003105 614.80804 110.54998Q613.93304 111.096855 612.7924 111.096855Q611.07367 111.096855 610.01117 109.909355Q608.94867 108.70623 608.94867 106.73748L608.94867 106.628105ZM610.4018 106.79998Q610.4018 108.20623 611.0424 109.065605Q611.69867 109.909355 612.7924 109.909355Q613.9018 109.909355 614.5424 109.04998Q615.19867 108.190605 615.19867 106.628105Q615.19867 105.23748 614.5268 104.378105Q613.87054 103.51873 612.7768 103.51873Q611.7143 103.51873 611.05804 104.378105Q610.4018 105.221855 610.4018 106.79998ZM625.4799 106.79998Q625.4799 108.73748 624.5893 109.92498Q623.69867 111.096855 622.19867 111.096855Q620.6049 111.096855 619.7299 109.95623L619.6518 110.940605L618.32367 110.940605L618.32367 98.940605L619.7768 98.940605L619.7768 103.409355Q620.6518 102.33123 622.18304 102.33123Q623.7299 102.33123 624.6049 103.503105Q625.4799 104.659355 625.4799 106.67498L625.4799 106.79998ZM624.0424 106.64373Q624.0424 105.159355 623.4643 104.36248Q622.9018 103.54998 621.82367 103.54998Q620.4018 103.54998 619.7768 104.878105L619.7768 108.534355Q620.43304 109.86248 621.8393 109.86248Q622.88617 109.86248 623.4643 109.065605Q624.0424 108.253105 624.0424 106.64373ZM632.5424 110.096855Q631.69867 111.096855 630.07367 111.096855Q628.7143 111.096855 628.01117 110.315605Q627.30804 109.51873 627.2924 107.98748L627.2924 102.48748L628.74554 102.48748L628.74554 107.940605Q628.74554 109.86248 630.30804 109.86248Q631.9643 109.86248 632.51117 108.628105L632.51117 102.48748L633.94867 102.48748L633.94867 110.940605L632.57367 110.940605L632.5424 110.096855ZM640.4174 103.784355Q640.0893 103.721855 639.69867 103.721855Q638.2768 103.721855 637.7768 104.940605L637.7768 110.940605L636.32367 110.940605L636.32367 102.48748L637.7299 102.48748L637.76117 103.45623Q638.4643 102.33123 639.7768 102.33123Q640.19867 102.33123 640.4174 102.440605L640.4174 103.784355ZM645.4174 103.784355Q645.0893 103.721855 644.69867 103.721855Q643.2768 103.721855 642.7768 104.940605L642.7768 110.940605L641.32367 110.940605L641.32367 102.48748L642.7299 102.48748L642.76117 103.45623Q643.4643 102.33123 644.7768 102.33123Q645.19867 102.33123 645.4174 102.440605L645.4174 103.784355ZM645.94867 106.628105Q645.94867 105.39373 646.43304 104.409355Q646.9174 103.409355 647.7924 102.878105Q648.6674 102.33123 649.7768 102.33123Q651.51117 102.33123 652.57367 103.534355Q653.63617 104.721855 653.63617 106.70623L653.63617 106.79998Q653.63617 108.034355 653.1674 109.01873Q652.69867 110.003105 651.80804 110.54998Q650.93304 111.096855 649.7924 111.096855Q648.07367 111.096855 647.01117 109.909355Q645.94867 108.70623 645.94867 106.73748L645.94867 106.628105ZM647.4018 106.79998Q647.4018 108.20623 648.0424 109.065605Q648.69867 109.909355 649.7924 109.909355Q650.9018 109.909355 651.5424 109.04998Q652.19867 108.190605 652.19867 106.628105Q652.19867 105.23748 651.5268 104.378105Q650.87054 103.51873 649.7768 103.51873Q648.7143 103.51873 648.05804 104.378105Q647.4018 105.221855 647.4018 106.79998ZM662.80804 108.940605L664.43304 102.48748L665.88617 102.48748L663.4174 110.940605L662.24554 110.940605L660.19867 104.534355L658.19867 110.940605L657.0268 110.940605L654.57367 102.48748L656.01117 102.48748L657.6674 108.815605L659.63617 102.48748L660.80804 102.48748L662.80804 108.940605Z" fill-rule="nonzero"/><path fill="#38761d" d="M591.2299 134.4406C591.2299 137.75432 588.54364 140.4406 585.2299 140.4406C581.9162 140.4406 579.2299 137.75432 579.2299 134.4406C579.2299 131.12689 581.9162 128.4406 585.2299 128.4406C588.54364 128.4406 591.2299 131.12689 591.2299 134.4406Z" fill-rule="nonzero"/><path fill="#1a1a1a" d="M599.9799 135.64372Q599.9799 133.65935 600.88617 132.5031Q601.80804 131.33122 603.32367 131.33122Q604.87054 131.33122 605.7299 132.42497L605.80804 131.48747L607.12054 131.48747L607.12054 139.73747Q607.12054 141.3781 606.1518 142.3156Q605.18304 143.26872 603.5424 143.26872Q602.62054 143.26872 601.74554 142.8781Q600.87054 142.48747 600.4174 141.8156L601.1674 140.9406Q602.0893 142.09685 603.43304 142.09685Q604.49554 142.09685 605.07367 141.5031Q605.6674 140.90935 605.6674 139.8156L605.6674 139.09685Q604.80804 140.09685 603.30804 140.09685Q601.82367 140.09685 600.9018 138.90935Q599.9799 137.70622 599.9799 135.64372ZM601.43304 135.79997Q601.43304 137.23747 602.01117 138.04997Q602.6049 138.86247 603.6674 138.86247Q605.0268 138.86247 605.6674 137.6281L605.6674 133.76872Q605.01117 132.54997 603.68304 132.54997Q602.62054 132.54997 602.0268 133.3781Q601.43304 134.1906 601.43304 135.79997ZM613.4174 132.78435Q613.0893 132.72185 612.69867 132.72185Q611.2768 132.72185 610.7768 133.9406L610.7768 139.9406L609.32367 139.9406L609.32367 131.48747L610.7299 131.48747L610.76117 132.45622Q611.4643 131.33122 612.7768 131.33122Q613.19867 131.33122 613.4174 131.4406L613.4174 132.78435ZM613.94867 135.6281Q613.94867 134.39372 614.43304 133.40935Q614.9174 132.40935 615.7924 131.8781Q616.6674 131.33122 617.7768 131.33122Q619.51117 131.33122 620.57367 132.53435Q621.63617 133.72185 621.63617 135.70622L621.63617 135.79997Q621.63617 137.03435 621.1674 138.01872Q620.69867 139.0031 619.80804 139.54997Q618.93304 140.09685 617.7924 140.09685Q616.07367 140.09685 615.01117 138.90935Q613.94867 137.70622 613.94867 135.73747L613.94867 135.6281ZM615.4018 135.79997Q615.4018 137.20622 616.0424 138.0656Q616.69867 138.90935 617.7924 138.90935Q618.9018 138.90935 619.5424 138.04997Q620.19867 137.1906 620.19867 135.6281Q620.19867 134.23747 619.5268 133.3781Q618.87054 132.51872 617.7768 132.51872Q616.7143 132.51872 616.05804 133.3781Q615.4018 134.22185 615.4018 135.79997ZM628.5424 139.09685Q627.69867 140.09685 626.07367 140.09685Q624.7143 140.09685 624.01117 139.3156Q623.30804 138.51872 623.2924 136.98747L623.2924 131.48747L624.74554 131.48747L624.74554 136.9406Q624.74554 138.86247 626.30804 138.86247Q627.9643 138.86247 628.51117 137.6281L628.51117 131.48747L629.94867 131.48747L629.94867 139.9406L628.57367 139.9406L628.5424 139.09685ZM639.4643 135.79997Q639.4643 137.73747 638.57367 138.92497Q637.69867 140.09685 636.19867 140.09685Q634.6518 140.09685 633.7768 139.11247L633.7768 143.1906L632.32367 143.1906L632.32367 131.48747L633.6518 131.48747L633.7143 132.42497Q634.6049 131.33122 636.1674 131.33122Q637.69867 131.33122 638.57367 132.48747Q639.4643 133.6281 639.4643 135.67497L639.4643 135.79997ZM638.0268 135.64372Q638.0268 134.20622 637.4174 133.3781Q636.80804 132.54997 635.74554 132.54997Q634.43304 132.54997 633.7768 133.72185L633.7768 137.7531Q634.4174 138.90935 635.76117 138.90935Q636.7924 138.90935 637.4018 138.09685Q638.0268 137.26872 638.0268 135.64372ZM644.7143 138.90935Q645.49554 138.90935 646.07367 138.4406Q646.6518 137.97185 646.7143 137.26872L648.07367 137.26872Q648.0424 138.0031 647.57367 138.65935Q647.12054 139.3156 646.3393 139.70622Q645.57367 140.09685 644.7143 140.09685Q642.99554 140.09685 641.9643 138.9406Q640.94867 137.78435 640.94867 135.78435L640.94867 135.54997Q640.94867 134.3156 641.4018 133.36247Q641.8549 132.39372 642.69867 131.86247Q643.55804 131.33122 644.7143 131.33122Q646.13617 131.33122 647.07367 132.1906Q648.01117 133.03435 648.07367 134.39372L646.7143 134.39372Q646.6518 133.5656 646.0893 133.04997Q645.5268 132.51872 644.7143 132.51872Q643.6049 132.51872 642.99554 133.3156Q642.4018 134.09685 642.4018 135.59685L642.4018 135.8781Q642.4018 137.33122 642.99554 138.1281Q643.6049 138.90935 644.7143 138.90935ZM654.5424 139.9406Q654.4174 139.6906 654.3393 139.04997Q653.3393 140.09685 651.93304 140.09685Q650.68304 140.09685 649.88617 139.39372Q649.0893 138.67497 649.0893 137.59685Q649.0893 136.26872 650.0893 135.54997Q651.0893 134.8156 652.9174 134.8156L654.32367 134.8156L654.32367 134.14372Q654.32367 133.39372 653.87054 132.9406Q653.4174 132.48747 652.5268 132.48747Q651.76117 132.48747 651.2299 132.8781Q650.7143 133.26872 650.7143 133.83122L649.26117 133.83122Q649.26117 133.1906 649.69867 132.61247Q650.1518 132.01872 650.9174 131.67497Q651.69867 131.33122 652.62054 131.33122Q654.07367 131.33122 654.9018 132.0656Q655.7299 132.78435 655.76117 134.0656L655.76117 137.95622Q655.76117 139.1281 656.05804 139.8156L656.05804 139.9406L654.5424 139.9406ZM652.1518 138.83122Q652.82367 138.83122 653.43304 138.48747Q654.0424 138.1281 654.32367 137.5656L654.32367 135.83122L653.18304 135.83122Q650.5268 135.83122 650.5268 137.39372Q650.5268 138.0656 650.9799 138.45622Q651.43304 138.83122 652.1518 138.83122ZM661.7143 138.90935Q662.49554 138.90935 663.07367 138.4406Q663.6518 137.97185 663.7143 137.26872L665.07367 137.26872Q665.0424 138.0031 664.57367 138.65935Q664.12054 139.3156 663.3393 139.70622Q662.57367 140.09685 661.7143 140.09685Q659.99554 140.09685 658.9643 138.9406Q657.94867 137.78435 657.94867 135.78435L657.94867 135.54997Q657.94867 134.3156 658.4018 133.36247Q658.8549 132.39372 659.69867 131.86247Q660.55804 131.33122 661.7143 131.33122Q663.13617 131.33122 664.07367 132.1906Q665.01117 133.03435 665.07367 134.39372L663.7143 134.39372Q663.6518 133.5656 663.0893 133.04997Q662.5268 132.51872 661.7143 132.51872Q660.6049 132.51872 659.99554 133.3156Q659.4018 134.09685 659.4018 135.59685L659.4018 135.8781Q659.4018 137.33122 659.99554 138.1281Q660.6049 138.90935 661.7143 138.90935ZM667.7768 132.5031Q668.7299 131.33122 670.2768 131.33122Q672.94867 131.33122 672.9799 134.34685L672.9799 139.9406L671.5268 139.9406L671.5268 134.34685Q671.5268 133.42497 671.1049 132.98747Q670.69867 132.54997 669.8393 132.54997Q669.13617 132.54997 668.6049 132.92497Q668.07367 133.29997 667.7768 133.90935L667.7768 139.9406L666.32367 139.9406L666.32367 127.9406L667.7768 127.9406L667.7768 132.5031ZM678.8393 140.09685Q677.12054 140.09685 676.0424 138.97185Q674.9643 137.83122 674.9643 135.9406L674.9643 135.67497Q674.9643 134.42497 675.43304 133.4406Q675.9174 132.4406 676.7768 131.89372Q677.6518 131.33122 678.6518 131.33122Q680.30804 131.33122 681.2143 132.42497Q682.13617 133.5031 682.13617 135.51872L682.13617 136.1281L676.4018 136.1281Q676.43304 137.3781 677.13617 138.14372Q677.8393 138.90935 678.9174 138.90935Q679.68304 138.90935 680.2143 138.59685Q680.74554 138.28435 681.13617 137.76872L682.0268 138.45622Q680.9643 140.09685 678.8393 140.09685ZM678.6518 132.51872Q677.7768 132.51872 677.18304 133.15935Q676.5893 133.78435 676.44867 134.9406L680.68304 134.9406L680.68304 134.83122Q680.62054 133.72185 680.0893 133.1281Q679.55804 132.51872 678.6518 132.51872Z" fill-rule="nonzero"/><path fill="#757575" d="M32.194946 40.626965L30.30432 40.626965L30.30432 34.04884L23.14807 34.04884L23.14807 40.626965L21.27307 40.626965L21.27307 26.408215L23.14807 26.408215L23.14807 32.51759L30.30432 32.51759L30.30432 26.408215L32.194946 26.408215L32.194946 40.626965ZM36.944946 40.626965L35.14807 40.626965L35.14807 30.064465L36.944946 30.064465L36.944946 40.626965ZM34.99182 27.251965Q34.99182 26.814465 35.257446 26.51759Q35.538696 26.20509 36.05432 26.20509Q36.58557 26.20509 36.851196 26.51759Q37.132446 26.814465 37.132446 27.251965Q37.132446 27.689465 36.851196 27.98634Q36.58557 28.283215 36.05432 28.283215Q35.538696 28.283215 35.257446 27.98634Q34.99182 27.689465 34.99182 27.251965ZM42.42932 27.501965L42.42932 30.064465L44.413696 30.064465L44.413696 31.45509L42.42932 31.45509L42.42932 38.001965Q42.42932 38.64259 42.694946 38.970715Q42.96057 39.283215 43.601196 39.283215Q43.913696 39.283215 44.46057 39.158215L44.46057 40.626965Q43.74182 40.83009 43.069946 40.83009Q41.86682 40.83009 41.24182 40.095715Q40.632446 39.36134 40.632446 38.001965L40.632446 31.45509L38.71057 31.45509L38.71057 30.064465L40.632446 30.064465L40.632446 27.501965L42.42932 27.501965ZM57.476196 34.876965L54.14807 34.876965L54.14807 40.626965L52.257446 40.626965L52.257446 26.408215L56.96057 26.408215Q59.36682 26.408215 60.663696 27.501965Q61.96057 28.595715 61.96057 30.689465Q61.96057 32.01759 61.24182 33.001965Q60.52307 33.98634 59.24182 34.470715L62.58557 40.501965L62.58557 40.626965L60.569946 40.626965L57.476196 34.876965ZM54.14807 33.345715L57.02307 33.345715Q58.413696 33.345715 59.24182 32.626965Q60.069946 31.89259 60.069946 30.689465Q60.069946 29.36134 59.27307 28.658215Q58.49182 27.95509 57.007446 27.95509L54.14807 27.95509L54.14807 33.345715ZM70.50745 40.626965Q70.3512 40.314465 70.25745 39.51759Q68.99182 40.83009 67.24182 40.83009Q65.67932 40.83009 64.67932 39.939465Q63.67932 39.04884 63.67932 37.689465Q63.67932 36.04884 64.92932 35.14259Q66.19495 34.220715 68.46057 34.220715L70.2262 34.220715L70.2262 33.39259Q70.2262 32.439465 69.64807 31.876965Q69.08557 31.314465 67.99182 31.314465Q67.02307 31.314465 66.36682 31.814465Q65.71057 32.29884 65.71057 32.98634L63.89807 32.98634Q63.89807 32.20509 64.46057 31.470715Q65.02307 30.720715 65.9762 30.29884Q66.94495 29.86134 68.1012 29.86134Q69.92932 29.86134 70.96057 30.783215Q71.99182 31.689465 72.0387 33.29884L72.0387 38.158215Q72.0387 39.61134 72.39807 40.470715L72.39807 40.626965L70.50745 40.626965ZM67.50745 39.251965Q68.36682 39.251965 69.11682 38.814465Q69.88245 38.376965 70.2262 37.67384L70.2262 35.501965L68.80432 35.501965Q65.49182 35.501965 65.49182 37.439465Q65.49182 38.29884 66.05432 38.783215Q66.61682 39.251965 67.50745 39.251965ZM77.42932 27.501965L77.42932 30.064465L79.4137 30.064465L79.4137 31.45509L77.42932 31.45509L77.42932 38.001965Q77.42932 38.64259 77.69495 38.970715Q77.96057 39.283215 78.6012 39.283215Q78.9137 39.283215 79.46057 39.158215L79.46057 40.626965Q78.74182 40.83009 78.06995 40.83009Q76.86682 40.83009 76.24182 40.095715Q75.63245 39.36134 75.63245 38.001965L75.63245 31.45509L73.71057 31.45509L73.71057 30.064465L75.63245 30.064465L75.63245 27.501965L77.42932 27.501965ZM83.94495 40.626965L82.14807 40.626965L82.14807 30.064465L83.94495 30.064465L83.94495 40.626965ZM81.99182 27.251965Q81.99182 26.814465 82.25745 26.51759Q82.5387 26.20509 83.05432 26.20509Q83.58557 26.20509 83.8512 26.51759Q84.13245 26.814465 84.13245 27.251965Q84.13245 27.689465 83.8512 27.98634Q83.58557 28.283215 83.05432 28.283215Q82.5387 28.283215 82.25745 27.98634Q81.99182 27.689465 81.99182 27.251965ZM86.50745 35.251965Q86.50745 33.689465 87.11682 32.45509Q87.7262 31.20509 88.80432 30.533215Q89.89807 29.86134 91.30432 29.86134Q93.46057 29.86134 94.7887 31.36134Q96.13245 32.845715 96.13245 35.33009L96.13245 35.45509Q96.13245 37.001965 95.5387 38.23634Q94.94495 39.45509 93.83557 40.14259Q92.74182 40.83009 91.31995 40.83009Q89.17932 40.83009 87.83557 39.33009Q86.50745 37.83009 86.50745 35.376965L86.50745 35.251965ZM88.31995 35.45509Q88.31995 37.220715 89.13245 38.283215Q89.96057 39.345715 91.31995 39.345715Q92.69495 39.345715 93.50745 38.26759Q94.31995 37.189465 94.31995 35.251965Q94.31995 33.501965 93.49182 32.42384Q92.6637 31.345715 91.30432 31.345715Q89.96057 31.345715 89.13245 32.408215Q88.31995 33.470715 88.31995 35.45509ZM104.13245 37.83009Q104.13245 37.095715 103.58557 36.689465Q103.0387 36.283215 101.6637 35.98634Q100.2887 35.689465 99.4762 35.283215Q98.67932 34.876965 98.2887 34.314465Q97.9137 33.73634 97.9137 32.95509Q97.9137 31.658215 99.00745 30.76759Q100.1012 29.86134 101.81995 29.86134Q103.61682 29.86134 104.7262 30.79884Q105.8512 31.720715 105.8512 33.158215L104.02307 33.158215Q104.02307 32.42384 103.39807 31.89259Q102.77307 31.345715 101.81995 31.345715Q100.81995 31.345715 100.25745 31.783215Q99.71057 32.20509 99.71057 32.908215Q99.71057 33.54884 100.2262 33.89259Q100.74182 34.220715 102.1012 34.533215Q103.46057 34.83009 104.2887 35.251965Q105.13245 35.658215 105.5387 36.251965Q105.94495 36.845715 105.94495 37.689465Q105.94495 39.11134 104.80432 39.970715Q103.67932 40.83009 101.86682 40.83009Q100.6012 40.83009 99.61682 40.376965Q98.64807 39.92384 98.08557 39.126965Q97.5387 38.314465 97.5387 37.376965L99.3512 37.376965Q99.39807 38.283215 100.06995 38.814465Q100.75745 39.345715 101.86682 39.345715Q102.89807 39.345715 103.50745 38.939465Q104.13245 38.51759 104.13245 37.83009ZM116.74182 35.33009L111.9762 35.33009L111.9762 33.845715L116.74182 33.845715L116.74182 35.33009ZM134.7262 36.11134Q134.46057 38.376965 133.05432 39.61134Q131.6637 40.83009 129.33557 40.83009Q126.81995 40.83009 125.2887 39.01759Q123.77307 37.20509 123.77307 34.17384L123.77307 32.814465Q123.77307 30.83009 124.4762 29.33009Q125.19495 27.83009 126.49182 27.01759Q127.7887 26.20509 129.50745 26.20509Q131.77307 26.20509 133.13245 27.470715Q134.50745 28.73634 134.7262 30.970715L132.83557 30.970715Q132.6012 29.283215 131.77307 28.51759Q130.96057 27.751965 129.50745 27.751965Q127.71057 27.751965 126.67932 29.08009Q125.6637 30.408215 125.6637 32.86134L125.6637 34.23634Q125.6637 36.54884 126.63245 37.92384Q127.6012 39.283215 129.33557 39.283215Q130.89807 39.283215 131.7262 38.58009Q132.56995 37.876965 132.83557 36.11134L134.7262 36.11134ZM148.21057 33.970715Q148.21057 36.064465 147.50745 37.626965Q146.80432 39.17384 145.50745 40.001965Q144.2262 40.83009 142.50745 40.83009Q140.81995 40.83009 139.52307 40.001965Q138.2262 39.17384 137.50745 37.64259Q136.7887 36.11134 136.77307 34.095715L136.77307 33.08009Q136.77307 31.033215 137.4762 29.45509Q138.19495 27.876965 139.49182 27.04884Q140.80432 26.20509 142.4762 26.20509Q144.19495 26.20509 145.49182 27.033215Q146.80432 27.86134 147.50745 29.439465Q148.21057 31.001965 148.21057 33.08009L148.21057 33.970715ZM146.33557 33.064465Q146.33557 30.533215 145.31995 29.189465Q144.30432 27.83009 142.4762 27.83009Q140.71057 27.83009 139.67932 29.189465Q138.6637 30.533215 138.63245 32.92384L138.63245 33.970715Q138.63245 36.42384 139.6637 37.83009Q140.69495 39.23634 142.50745 39.23634Q144.31995 39.23634 145.30432 37.908215Q146.30432 36.58009 146.33557 34.11134L146.33557 33.064465ZM151.27307 40.626965L151.27307 26.408215L155.2887 26.408215Q157.13245 26.408215 158.55432 27.23634Q159.99182 28.04884 160.75745 29.564465Q161.5387 31.08009 161.55432 33.033215L161.55432 33.939465Q161.55432 35.95509 160.77307 37.470715Q159.99182 38.98634 158.55432 39.79884Q157.11682 40.61134 155.21057 40.626965L151.27307 40.626965ZM153.14807 27.95509L153.14807 39.095715L155.11682 39.095715Q157.2887 39.095715 158.49182 37.751965Q159.69495 36.39259 159.69495 33.908215L159.69495 33.08009Q159.69495 30.658215 158.55432 29.314465Q157.4137 27.970715 155.33557 27.95509L153.14807 27.95509ZM172.11682 36.908215L166.1637 36.908215L164.81995 40.626965L162.89807 40.626965L168.31995 26.408215L169.96057 26.408215L175.39807 40.626965L173.4762 40.626965L172.11682 36.908215ZM166.7262 35.376965L171.56995 35.376965L169.14807 28.720715L166.7262 35.376965ZM181.46057 34.283215Q179.0387 33.595715 177.94495 32.595715Q176.8512 31.58009 176.8512 30.095715Q176.8512 28.408215 178.19495 27.314465Q179.5387 26.20509 181.67932 26.20509Q183.14807 26.20509 184.2887 26.783215Q185.44495 27.345715 186.06995 28.345715Q186.69495 29.33009 186.69495 30.51759L184.81995 30.51759Q184.81995 29.23634 183.99182 28.501965Q183.17932 27.751965 181.67932 27.751965Q180.2887 27.751965 179.50745 28.36134Q178.74182 28.970715 178.74182 30.064465Q178.74182 30.92384 179.4762 31.533215Q180.21057 32.126965 181.9762 32.626965Q183.75745 33.126965 184.75745 33.73634Q185.75745 34.33009 186.24182 35.126965Q186.7262 35.92384 186.7262 37.01759Q186.7262 38.73634 185.38245 39.783215Q184.0387 40.83009 181.77307 40.83009Q180.31995 40.83009 179.0387 40.26759Q177.77307 39.70509 177.08557 38.73634Q176.39807 37.751965 176.39807 36.501965L178.2887 36.501965Q178.2887 37.79884 179.24182 38.54884Q180.19495 39.283215 181.77307 39.283215Q183.25745 39.283215 184.05432 38.689465Q184.8512 38.08009 184.8512 37.033215Q184.8512 35.98634 184.11682 35.42384Q183.38245 34.845715 181.46057 34.283215ZM193.6012 33.54884L197.31995 26.408215L199.44495 26.408215L194.5387 35.33009L194.5387 40.626965L192.6637 40.626965L192.6637 35.33009L187.75745 26.408215L189.9137 26.408215L193.6012 33.54884ZM203.14807 39.095715L209.89807 39.095715L209.89807 40.626965L201.27307 40.626965L201.27307 26.408215L203.14807 26.408215L203.14807 39.095715ZM216.9137 34.86134Q216.9137 32.64259 217.50745 30.61134Q218.1012 28.58009 219.27307 26.92384Q220.44495 25.26759 221.69495 24.58009L222.06995 25.76759Q220.64807 26.86134 219.7262 29.11134Q218.81995 31.36134 218.7262 34.14259L218.7262 34.970715Q218.7262 38.73634 220.1012 41.51759Q220.92932 43.17384 222.06995 44.11134L221.69495 45.220715Q220.39807 44.501965 219.2262 42.79884Q216.9137 39.470715 216.9137 34.86134ZM232.11682 36.908215L226.1637 36.908215L224.81995 40.626965L222.89807 40.626965L228.31995 26.408215L229.96057 26.408215L235.39807 40.626965L233.4762 40.626965L232.11682 36.908215ZM226.7262 35.376965L231.56995 35.376965L229.14807 28.720715L226.7262 35.376965ZM242.4762 34.876965L239.14807 34.876965L239.14807 40.626965L237.25745 40.626965L237.25745 26.408215L241.96057 26.408215Q244.36682 26.408215 245.6637 27.501965Q246.96057 28.595715 246.96057 30.689465Q246.96057 32.01759 246.24182 33.001965Q245.52307 33.98634 244.24182 34.470715L247.58557 40.501965L247.58557 40.626965L245.56995 40.626965L242.4762 34.876965ZM239.14807 33.345715L242.02307 33.345715Q243.4137 33.345715 244.24182 32.626965Q245.06995 31.89259 245.06995 30.689465Q245.06995 29.36134 244.27307 28.658215Q243.49182 27.95509 242.00745 27.95509L239.14807 27.95509L239.14807 33.345715ZM259.7262 36.11134Q259.46057 38.376965 258.05432 39.61134Q256.6637 40.83009 254.33557 40.83009Q251.81995 40.83009 250.2887 39.01759Q248.77307 37.20509 248.77307 34.17384L248.77307 32.814465Q248.77307 30.83009 249.4762 29.33009Q250.19495 27.83009 251.49182 27.01759Q252.7887 26.20509 254.50745 26.20509Q256.77307 26.20509 258.13245 27.470715Q259.50745 28.73634 259.7262 30.970715L257.83557 30.970715Q257.6012 29.283215 256.77307 28.51759Q255.96057 27.751965 254.50745 27.751965Q252.71057 27.751965 251.67932 29.08009Q250.6637 30.408215 250.6637 32.86134L250.6637 34.23634Q250.6637 36.54884 251.63245 37.92384Q252.6012 39.283215 254.33557 39.283215Q255.89807 39.283215 256.7262 38.58009Q257.56995 37.876965 257.83557 36.11134L259.7262 36.11134ZM265.74182 35.33009L260.9762 35.33009L260.9762 33.845715L265.74182 33.845715L265.74182 35.33009ZM279.21057 33.970715Q279.21057 36.064465 278.50745 37.626965Q277.80432 39.17384 276.50745 40.001965Q275.2262 40.83009 273.50745 40.83009Q271.81995 40.83009 270.52307 40.001965Q269.2262 39.17384 268.50745 37.64259Q267.7887 36.11134 267.77307 34.095715L267.77307 33.08009Q267.77307 31.033215 268.4762 29.45509Q269.19495 27.876965 270.49182 27.04884Q271.80432 26.20509 273.4762 26.20509Q275.19495 26.20509 276.49182 27.033215Q277.80432 27.86134 278.50745 29.439465Q279.21057 31.001965 279.21057 33.08009L279.21057 33.970715ZM277.33557 33.064465Q277.33557 30.533215 276.31995 29.189465Q275.30432 27.83009 273.4762 27.83009Q271.71057 27.83009 270.67932 29.189465Q269.6637 30.533215 269.63245 32.92384L269.63245 33.970715Q269.63245 36.42384 270.6637 37.83009Q271.69495 39.23634 273.50745 39.23634Q275.31995 39.23634 276.30432 37.908215Q277.30432 36.58009 277.33557 34.11134L277.33557 33.064465ZM284.14807 39.095715L290.89807 39.095715L290.89807 40.626965L282.27307 40.626965L282.27307 26.408215L284.14807 26.408215L284.14807 39.095715ZM303.08557 27.95509L298.52307 27.95509L298.52307 40.626965L296.6637 40.626965L296.6637 27.95509L292.1012 27.95509L292.1012 26.408215L303.08557 26.408215L303.08557 27.95509ZM307.14807 35.064465L307.14807 40.626965L305.27307 40.626965L305.27307 26.408215L310.50745 26.408215Q312.8512 26.408215 314.1637 27.595715Q315.49182 28.783215 315.49182 30.751965Q315.49182 32.83009 314.19495 33.95509Q312.89807 35.064465 310.49182 35.064465L307.14807 35.064465ZM307.14807 33.533215L310.50745 33.533215Q312.02307 33.533215 312.81995 32.83009Q313.61682 32.11134 313.61682 30.76759Q313.61682 29.501965 312.81995 28.751965Q312.02307 27.98634 310.61682 27.95509L307.14807 27.95509L307.14807 33.533215ZM322.14807 34.95509Q322.14807 37.126965 321.56995 39.126965Q321.00745 41.126965 319.83557 42.814465Q318.6637 44.501965 317.36682 45.220715L316.99182 44.11134Q318.49182 42.95509 319.39807 40.533215Q320.31995 38.11134 320.33557 35.14259L320.33557 34.83009Q320.33557 32.783215 319.89807 31.01759Q319.4762 29.251965 318.71057 27.86134Q317.94495 26.470715 316.99182 25.689465L317.36682 24.58009Q318.6637 25.29884 319.81995 26.970715Q320.99182 28.626965 321.56995 30.64259Q322.14807 32.658215 322.14807 34.95509Z" fill-rule="nonzero"/></svg>